<svg width="148" height="141" viewBox="0 0 148 141" fill="none" xmlns="http://www.w3.org/2000/svg">
<path d="M149.679 -7H-4V146.679H149.679V-7Z" fill="#C5E5C2"/>
<path d="M149.679 142.07V59.3374C149.104 59.2825 148.532 59.1933 147.967 59.0701C138.035 56.8632 136.449 52.2331 126.507 51.6319C109.822 50.6181 88.7243 67.6238 69.2406 69.7889C45.3061 72.4491 12.2155 66.1671 -4 64.9691V146.679H134.625C139.881 145.254 144.922 143.714 149.679 142.071" fill="#A7D9A4"/>
<path d="M149.679 85.0307C147.938 84.5993 146.244 83.993 144.625 83.221C143.119 82.294 138.859 80.2848 134.4 78.2565C127.286 75.0197 117.288 75.829 111.782 80.092L107.671 83.2752C101.935 87.7174 91.3876 88.3827 84.3079 84.7498L81.9673 83.5475C76.6985 80.8441 69.256 80.4419 63.3041 82.5386L50.326 87.1101C44.678 89.0192 38.5382 88.8788 32.9834 86.7135L4.41386 74.8343C1.73584 73.7597 -1.11499 73.1801 -4 73.1238L-4 114.864L22.3084 124.842C25.5807 126.034 29.0658 126.528 32.5405 126.295L149.679 119.146V85.0307Z" fill="#82A31D"/>
<path d="M149.679 80.095C147.489 80.1711 145.352 80.7877 143.458 81.8898L122.331 94.3585C120.391 95.4747 118.207 96.0965 115.97 96.1691C113.733 96.2417 111.513 95.7629 109.504 94.7749L99.9049 89.9766C97.7206 88.8977 95.2861 88.4268 92.857 88.6132C90.4279 88.7996 88.0938 89.6365 86.0997 91.0361L84.367 92.2975C79.1314 96.1109 71.3292 95.4124 67.0866 90.7503L64.0462 87.4087C59.9742 82.9345 52.5791 82.0851 47.3171 85.4827C44.0205 87.6114 40.87 89.7204 39.7563 90.693C38.4179 91.8633 32.5411 94.0056 27.0062 95.854C21.021 97.8534 17.8286 103.56 19.722 108.908L23.9406 120.831C25.3844 124.91 29.4841 127.835 34.3458 128.257L122.652 135.9C125.269 136.135 127.898 135.605 130.22 134.374L149.679 123.901V80.095Z" fill="#6C8618"/>
<path d="M149.679 139.684C109.877 103.748 21.1923 89.4576 -4 86.0378V146.679H149.679V139.684Z" fill="#D9B122"/>
<path d="M70.2939 112.655C70.3875 109.907 58.6259 108.023 51.8967 108.023C34.5812 108.023 42.4234 106.827 15.3543 108.023C9.44985 108.283 1.85274 107.524 -4 107.27V127.205C2.34057 127.057 20.71 127.012 24.7032 123.016C28.2141 119.505 5.49485 115.601 34.5479 115.601C63.601 115.601 70.1497 116.7 70.2908 112.655" fill="#CCA51D"/>
<path d="M100.599 106.604C100.189 105.468 99.4361 104.488 98.4446 103.799C97.4532 103.11 96.2722 102.746 95.0649 102.758C93.8576 102.769 92.6837 103.155 91.7055 103.863C90.7273 104.57 89.9931 105.565 89.6045 106.708C88.8197 105.688 87.7304 104.944 86.4946 104.585C85.2588 104.226 83.9408 104.27 82.7317 104.711C82.4676 103.483 81.8305 102.368 80.9077 101.516C79.9849 100.665 78.8215 100.12 77.5768 99.9551C76.3321 99.7906 75.067 100.015 73.9546 100.597C72.8423 101.179 71.9372 102.091 71.3631 103.208C70.6383 102.125 69.6412 101.253 68.4721 100.678C67.3031 100.103 66.0033 99.8461 64.7034 99.933C63.4035 100.02 62.1495 100.447 61.0673 101.173C59.9851 101.898 59.1129 102.895 58.5385 104.065C57.8867 103.877 57.2118 103.781 56.5336 103.781C53.5949 103.781 51.128 105.51 50.4 107.855C49.7456 107.639 49.0699 107.494 48.3846 107.423C47.7786 106.417 46.882 105.617 45.8127 105.129C44.7434 104.642 43.5516 104.49 42.3942 104.693C41.2368 104.896 40.168 105.445 39.3286 106.268C38.4892 107.09 37.9185 108.147 37.6917 109.3C28.0453 111.47 6.0067 117.149 -4 121.064V146.348H149.679V105.177C136.301 105.76 115.269 105.5 100.599 106.604Z" fill="#8B4D03"/>
<path d="M-4 141.988C35.802 117.892 124.487 108.31 149.679 106.017V146.679H-4V141.988Z" fill="#F2C82B"/>
<path d="M4.26544 105.485C4.26544 105.485 3.60392 101.148 6.47793 99.729C6.47793 99.729 5.79238 104.307 6.29746 105.485H4.26544Z" fill="#007000"/>
<path d="M4.91953 108.063C4.91953 108.063 4.56782 102.672 10.6719 102.332C10.6719 102.332 6.71994 105.042 7.44368 107.629L4.91953 108.063Z" fill="#009500"/>
<path d="M3.95783 108.3C3.95783 108.3 4.36005 103.55 1.23657 102.672C1.23657 102.672 6.04528 102.401 5.93687 107.84L3.95783 108.3Z" fill="#00A100"/>
<path d="M7.01913 107.702C7.01913 107.702 6.61138 104.898 9.44597 105.399C9.44597 105.399 7.53653 106.199 8.2227 107.76L7.01913 107.702Z" fill="#007000"/>
<path d="M4.42237 108.192C4.42237 108.192 4.72542 105.436 1.6001 105.697C1.6001 105.697 3.04881 106.071 3.15167 108.182L4.42237 108.192Z" fill="#007000"/>
<path d="M1.19311 108.208C1.15228 108.18 1.12199 108.139 1.10705 108.092C1.0921 108.044 1.09335 107.993 1.11059 107.947C1.12783 107.9 1.16009 107.861 1.20226 107.835C1.24442 107.809 1.29409 107.798 1.34341 107.803C2.58424 107.976 3.84048 108.011 5.08899 107.906C7.60514 107.554 8.30177 107.414 9.26081 107.591C10.2198 107.768 11.355 108.036 11.0415 108.416C10.2371 109.401 8.6775 107.866 5.81334 108.798C5.05032 109.064 4.23579 109.15 3.43407 109.047C2.63234 108.945 1.86538 108.658 1.19373 108.208" fill="#A3620A"/>
<path d="M116.642 110.163C116.642 110.163 115.98 105.827 118.854 104.408C118.854 104.408 118.169 108.985 118.674 110.163H116.642Z" fill="#007000"/>
<path d="M117.296 112.74C117.296 112.74 116.944 107.349 123.048 107.012C123.048 107.012 119.096 109.722 119.82 112.309L117.296 112.74Z" fill="#009500"/>
<path d="M116.334 112.979C116.334 112.979 116.737 108.229 113.613 107.351C113.613 107.351 118.422 107.08 118.314 112.519L116.334 112.979Z" fill="#00A100"/>
<path d="M119.396 112.381C119.396 112.381 118.988 109.576 121.822 110.078C121.822 110.078 119.913 110.878 120.599 112.439L119.396 112.381Z" fill="#007000"/>
<path d="M116.799 112.87C116.799 112.87 117.102 110.114 113.976 110.375C113.976 110.375 115.425 110.75 115.528 112.86L116.799 112.87Z" fill="#007000"/>
<path d="M113.569 112.886C113.528 112.858 113.498 112.817 113.483 112.77C113.468 112.723 113.47 112.672 113.487 112.625C113.504 112.579 113.536 112.539 113.578 112.513C113.621 112.487 113.67 112.476 113.72 112.481C114.96 112.654 116.217 112.689 117.465 112.584C119.981 112.232 120.678 112.092 121.637 112.269C122.596 112.447 123.731 112.714 123.418 113.094C122.613 114.079 121.054 112.544 118.19 113.476C117.427 113.742 116.612 113.828 115.81 113.725C115.009 113.623 114.242 113.336 113.57 112.886" fill="#A3620A"/>
<path d="M19.9438 106.307L20.3695 115.311C20.3741 115.408 20.4126 115.5 20.4782 115.571C20.5438 115.643 20.6324 115.689 20.7286 115.702L29.5212 116.872C29.6071 116.884 29.6944 116.868 29.7709 116.827C29.8473 116.786 29.909 116.722 29.9472 116.645C29.9854 116.567 29.9983 116.479 29.984 116.394C29.9697 116.308 29.9289 116.229 29.8674 116.168L25.14 111.477C25.0958 111.433 25.0621 111.38 25.0414 111.321C25.0207 111.262 25.0136 111.199 25.0205 111.137L24.9226 106.803L19.9438 106.307Z" fill="#FFF2C1"/>
<path d="M18.6225 105.78L20.0953 82.4122C20.2238 80.3702 20.1958 78.3213 20.0115 76.2835L19.0876 66.1111C18.7161 62.0092 18.8234 57.8779 19.4072 53.8008L34.4499 56.8473L48.6931 66.6735C49.5285 67.3079 50.2261 68.1057 50.7433 69.0183C51.2606 69.9308 51.5868 70.9391 51.702 71.9817L53.4501 87.7944C53.4811 88.0743 53.4014 88.3553 53.2281 88.5773C53.0548 88.7993 52.8016 88.9447 52.5225 88.9825L47.7255 89.633C47.5843 89.6524 47.4406 89.6437 47.3028 89.6074C47.165 89.571 47.0357 89.5077 46.9225 89.4211C46.8093 89.3345 46.7143 89.2264 46.6431 89.1029C46.5719 88.9794 46.5259 88.843 46.5077 88.7017L44.3519 76.5675C44.21 75.4974 43.8289 74.473 43.2368 73.5704C42.6448 72.6677 41.8571 71.91 40.9322 71.3535L28.9039 64.1179L27.9049 83.2123L26.474 106.334C26.4619 106.529 26.4113 106.719 26.3252 106.894C26.2391 107.069 26.1191 107.224 25.9723 107.353C25.8254 107.481 25.6546 107.578 25.4697 107.64C25.2849 107.701 25.0896 107.726 24.8953 107.711L19.9813 107.341C19.5951 107.312 19.236 107.132 18.9816 106.84C18.7273 106.548 18.5983 106.168 18.6225 105.781" fill="#0F190E"/>
<path d="M36.5295 72.572L37.3129 71.0321C37.6464 70.3652 37.7888 69.6191 37.7244 68.8763C37.6772 68.6058 37.7104 68.3274 37.8199 68.0755L39.1577 65.7639L36.4679 63.7109L35.0925 65.8483L34.2917 67.1418C34.1822 67.3186 34.1181 67.5197 34.1049 67.7273C34.0916 67.9349 34.1298 68.1425 34.216 68.3318L36.5295 72.572Z" fill="#F8AF79"/>
<path d="M43.7057 37.1431C43.7057 37.1431 47.8855 51.1688 39.4717 66.1487L35.5505 63.4194C35.5505 63.4194 40.2441 51.5649 39.3904 46.4556L43.7057 37.1431Z" fill="#33B97A"/>
<path d="M34.4525 56.8493C34.4525 56.8493 39.1337 51.2442 40.6772 47.9439C42.9365 43.1118 46.7807 36.9745 40.166 32.1239C36.3336 29.3133 32.8036 28.9493 29.2157 29.739C25.2256 30.6167 23.1092 34.4202 22.8659 38.5008C22.7889 39.7883 22.9219 41.0798 23.2595 42.3246C23.536 43.3454 23.4585 44.4297 23.0396 45.4007L19.4104 53.8028L34.4525 56.8493Z" fill="#00793F"/>
<path d="M38.3087 27.1033L35.7217 29.8898C35.4764 30.1555 35.2876 30.4682 35.1665 30.8089C35.0455 31.1496 34.9948 31.5114 35.0175 31.8723C35.0402 32.2331 35.1358 32.5857 35.2986 32.9086C35.4613 33.2314 35.6879 33.518 35.9645 33.7509C36.2411 33.9837 36.5621 34.1581 36.908 34.2634C37.2539 34.3688 37.6176 34.4029 37.9771 34.3637C38.3365 34.3245 38.6843 34.2129 38.9994 34.0355C39.3145 33.8581 39.5904 33.6187 39.8104 33.3317L41.535 31.07L38.3087 27.1033Z" fill="#FFE16E"/>
<path d="M50.4609 23.8227C50.4609 23.8227 47.9201 34.2501 41.0769 32.3979C39.8958 32.0819 38.8681 31.3509 38.182 30.3388C37.3775 29.1423 36.9899 27.714 37.0789 26.275C37.168 24.836 37.7289 23.4665 38.6747 22.3783L42.1739 18.2539L50.4609 23.8227Z" fill="#FFD845"/>
<path d="M39.2396 17.1679L50.2183 24.8981C50.3183 24.9689 50.432 25.0179 50.5521 25.042C50.6722 25.0661 50.796 25.0647 50.9156 25.038C51.0352 25.0114 51.1478 24.9599 51.2462 24.887C51.3447 24.8141 51.4267 24.7213 51.4871 24.6148C52.7985 22.3093 55.7329 15.7192 48.777 12.3611C48.777 12.3611 43.1614 9.55298 39.0056 15.9736C38.8832 16.1646 38.8392 16.3954 38.883 16.6179C38.9267 16.8405 39.0547 17.0375 39.2402 17.1679" fill="#F48636"/>
<path d="M49.996 13.0442C49.4252 16.3522 48.3987 19.5652 46.9458 22.5914L50.2208 24.8975C50.3209 24.9683 50.4347 25.0172 50.5549 25.0413C50.675 25.0654 50.7989 25.064 50.9185 25.0372C51.0382 25.0105 51.1508 24.959 51.2493 24.886C51.3478 24.813 51.4299 24.7202 51.4903 24.6136C52.7172 22.4577 55.3652 16.5446 49.996 13.043" fill="#F37920"/>
<path d="M37.9602 21.0084C37.8314 20.5045 37.8055 19.9798 37.8839 19.4657C37.9623 18.9515 38.1434 18.4584 38.4165 18.0158C38.6896 17.5732 39.0491 17.1901 39.4735 16.8894C39.8978 16.5887 40.3784 16.3766 40.8865 16.2656L43.3688 17.8277C43.3688 17.8277 41.776 24.0087 37.9602 21.0078" fill="#0F190E"/>
<path d="M52.5853 22.2279C46.0526 18.3074 42.368 15.7765 40.3446 14.26C39.8444 14.7927 39.3939 15.37 38.9987 15.9847C38.8786 16.1714 38.8351 16.3973 38.8773 16.6153C38.9195 16.8333 39.0442 17.0266 39.2254 17.155L50.2392 24.9098C50.3366 24.9786 50.4474 25.0263 50.5644 25.0498C50.6814 25.0733 50.802 25.0721 50.9184 25.0462C51.0349 25.0204 51.1447 24.9704 51.2407 24.8996C51.3367 24.8288 51.4169 24.7387 51.476 24.635C51.9147 23.8657 52.2857 23.0597 52.5847 22.2261" fill="#90410A"/>
<path d="M39.741 21.9027C39.741 22.2905 39.626 22.6695 39.4105 22.9919C39.1951 23.3143 38.8889 23.5656 38.5307 23.714C38.1724 23.8624 37.7782 23.9012 37.3979 23.8256C37.0176 23.7499 36.6682 23.5632 36.3941 23.289C36.1199 23.0148 35.9331 22.6655 35.8575 22.2852C35.7818 21.9049 35.8207 21.5107 35.9691 21.1524C36.1175 20.7942 36.3687 20.488 36.6912 20.2726C37.0136 20.0571 37.3926 19.9421 37.7804 19.9421C38.3004 19.9421 38.799 20.1487 39.1667 20.5164C39.5344 20.8841 39.741 21.3827 39.741 21.9027Z" fill="#FFD845"/>
<path d="M39.6282 31.7485C40.0739 32.0402 40.5631 32.2591 41.0775 32.3971C47.9207 34.2499 50.4615 23.8225 50.4615 23.8225L47.3472 21.7283C45.6377 25.6525 42.9864 29.0943 39.6282 31.7485Z" fill="#F2C82B"/>
<path d="M46.9451 22.592L50.2392 24.9116C50.3366 24.9805 50.4474 25.0282 50.5644 25.0517C50.6813 25.0752 50.8019 25.074 50.9184 25.0481C51.0349 25.0222 51.1447 24.9723 51.2407 24.9015C51.3367 24.8307 51.4169 24.7405 51.476 24.6369C51.9147 23.8676 52.2857 23.0616 52.5847 22.2279C50.966 21.2566 49.5234 20.3709 48.2361 19.564C47.8566 20.5946 47.4249 21.6052 46.9426 22.592" fill="#823906"/>
<path d="M14.6169 32.5834C14.3483 32.7232 14.1461 32.9638 14.0545 33.2524C13.963 33.541 13.9896 33.8541 14.1284 34.1232L47.4007 98.2656L49.4333 97.2124L16.1586 33.0724C16.0188 32.8037 15.7783 32.6014 15.4897 32.5097C15.201 32.4181 14.8879 32.4445 14.6187 32.5834" fill="#58595B"/>
<path d="M56.961 115.009C56.8231 115.077 56.6723 115.114 56.5188 115.118C56.3653 115.122 56.2128 115.093 56.0716 115.032L48.9321 111.976C46.7552 111.044 44.9857 109.361 43.946 107.234L42.6932 104.674C42.5481 104.377 42.4629 104.055 42.4424 103.726C42.4218 103.396 42.4664 103.066 42.5734 102.754C42.6805 102.442 42.848 102.154 43.0664 101.906C43.2848 101.659 43.5498 101.457 43.8462 101.312L54.1973 96.2476C54.4937 96.1026 54.8158 96.0174 55.1452 95.9968C55.4746 95.9763 55.8048 96.0208 56.117 96.1279C56.4292 96.2349 56.7172 96.4025 56.9646 96.6209C57.2121 96.8392 57.4141 97.1042 57.5591 97.4007L58.8113 99.9599C59.8522 102.086 60.0944 104.516 59.4938 106.806L57.5228 114.32C57.4838 114.469 57.4133 114.607 57.3161 114.726C57.2188 114.845 57.0971 114.941 56.9592 115.009" fill="#6D6E70"/>
<path d="M58.8115 99.963L57.5592 97.4032C57.2661 96.8045 56.7472 96.3468 56.1166 96.1307C55.4861 95.9145 54.7955 95.9577 54.1968 96.2507L48.9717 98.8069L56.9113 115.027C56.9273 115.02 56.9445 115.017 56.9599 115.009C57.098 114.942 57.2199 114.845 57.3173 114.727C57.4146 114.608 57.4852 114.469 57.5241 114.321L59.4952 106.806C60.0951 104.516 59.853 102.087 58.8127 99.9606" fill="#808184"/>
<path d="M47.1169 97.7446L48.1314 99.7002C48.2735 99.9742 48.5187 100.18 48.8129 100.274C49.1071 100.367 49.4263 100.339 49.7002 100.197C49.9742 100.055 50.1805 99.8101 50.2737 99.5159C50.3669 99.2216 50.3394 98.9024 50.1973 98.6285L49.1828 96.6729L47.1169 97.7446Z" fill="#00350E"/>
<path d="M22.6122 47.7397L25.8767 49.4706C26.4176 49.7572 26.8884 50.1598 27.2556 50.6497C27.6227 51.1395 27.8771 51.7044 28.0005 52.3039L28.5616 55.0276C28.5937 55.1839 28.5804 55.346 28.5232 55.4949C28.466 55.6438 28.3673 55.7732 28.2389 55.8677C28.1104 55.9623 27.9576 56.0181 27.7984 56.0284C27.6393 56.0388 27.4805 56.0034 27.3408 55.9263C26.3706 55.3904 25.5676 54.5965 25.0206 53.6325C24.4631 52.65 23.5939 51.8814 22.5506 51.4484L20.6763 50.6704L22.6122 47.7397Z" fill="#F8AF79"/>
<path d="M22.9787 39.0416L17.5269 42.9671C18.1385 43.5787 24.2192 47.9489 24.2192 47.9489L22.2327 51.6446C15.7831 47.846 15.7795 47.6914 11.9341 44.5045C11.6959 44.308 11.4996 44.0655 11.3569 43.7916C11.2142 43.5177 11.128 43.2179 11.1035 42.9101C11.0789 42.6022 11.1165 42.2926 11.2141 41.9995C11.3116 41.7065 11.467 41.436 11.6711 41.2042C17.4474 34.7226 27.1351 30.5625 27.1351 30.5625L22.9787 39.0416Z" fill="#33B97A"/>
<path d="M35.1397 73.7181L34.7646 73.9497L32.2971 69.1496L32.549 68.9827C32.6943 68.8936 32.8567 68.8364 33.0257 68.8147C33.1946 68.7931 33.3662 68.8075 33.5292 68.857C33.6922 68.9065 33.8428 68.9901 33.9712 69.1021C34.0995 69.2141 34.2026 69.3521 34.2737 69.5068L35.529 72.2392C35.6451 72.4925 35.6698 72.7783 35.5989 73.0478C35.5281 73.3173 35.366 73.554 35.1403 73.7175" fill="#F8AF79"/>
<path d="M47.7524 89.5904L49.5873 96.372C49.6138 96.4654 49.6721 96.5465 49.7523 96.6013C49.8325 96.656 49.9293 96.6808 50.0259 96.6713L58.8543 95.8053C58.9405 95.7966 59.0217 95.7611 59.0867 95.7038C59.1516 95.6465 59.197 95.5703 59.2164 95.4859C59.2359 95.4015 59.2284 95.3132 59.195 95.2333C59.1617 95.1533 59.1041 95.0859 59.0305 95.0403L53.3563 91.5516C53.3031 91.5188 53.258 91.4744 53.2244 91.4217C53.1908 91.369 53.1695 91.3094 53.1623 91.2473L52.7133 88.9375L47.7524 89.5904Z" fill="#FFF2C1"/>
<path d="M36.0365 132.451C35.893 129.702 53.8048 127.818 64.0523 127.818C90.4204 127.818 78.4784 126.622 119.7 127.818C128.692 128.079 140.261 127.32 149.173 127.065V147C139.518 146.853 111.543 146.808 105.458 142.812C100.109 139.301 134.71 135.397 90.4673 135.397C46.2249 135.397 36.249 136.493 36.0365 132.451Z" fill="#E5BC26"/>
<path d="M136.949 124.53C136.949 124.53 136.191 119.559 139.485 117.932C139.485 117.932 138.699 123.179 139.278 124.53H136.949Z" fill="#008800"/>
<path d="M137.698 127.486C137.698 127.486 137.295 121.306 144.292 120.916C144.292 120.916 139.762 124.023 140.592 126.988L137.698 127.486Z" fill="#00A100"/>
<path d="M136.596 127.756C136.596 127.756 137.058 122.313 133.476 121.305C133.476 121.305 138.989 120.997 138.865 127.23L136.596 127.756Z" fill="#007000"/>
<path d="M140.106 127.072C140.106 127.072 139.639 123.857 142.888 124.432C142.888 124.432 140.697 125.35 141.485 127.138L140.106 127.072Z" fill="#007000"/>
<path d="M137.129 127.633C137.129 127.633 137.476 124.474 133.894 124.774C133.894 124.774 135.557 125.205 135.672 127.622L137.129 127.633Z" fill="#008800"/>
<path d="M133.426 127.651C133.205 127.505 133.78 127.602 134.042 127.633C135.333 127.673 136.624 127.563 137.889 127.306C140.774 126.902 141.475 127.183 142.575 127.384C143.675 127.585 145.156 127.842 144.713 127.889C143.265 128.041 142.003 127.26 138.72 128.327C137.845 128.633 136.911 128.731 135.992 128.613C135.072 128.495 134.193 128.166 133.423 127.649" fill="#A3620A"/>
<path d="M83.6451 122.446C83.6451 122.446 82.4373 114.526 87.6858 111.935C87.6858 111.935 86.4342 120.294 87.3562 122.446H83.6451Z" fill="#007000"/>
<path d="M84.8396 127.154C84.8396 127.154 84.1972 117.308 95.3446 116.687C95.3446 116.687 88.1269 121.637 89.4494 126.36L84.8396 127.154Z" fill="#009500"/>
<path d="M83.0834 127.585C83.0834 127.585 83.8225 118.911 78.1133 117.307C78.1133 117.307 86.8955 116.814 86.699 126.745L83.0834 127.585Z" fill="#00A100"/>
<path d="M88.6743 126.495C88.6743 126.495 87.9302 121.374 93.1091 122.289C93.1091 122.289 89.6191 123.751 90.8744 126.6L88.6743 126.495Z" fill="#007000"/>
<path d="M83.9315 127.39C83.9315 127.39 84.4858 122.356 78.7778 122.832C78.7778 122.832 81.4233 123.516 81.6112 127.371L83.9315 127.39Z" fill="#007000"/>
<path d="M78.0339 127.419C77.9593 127.368 77.904 127.293 77.8766 127.207C77.8493 127.12 77.8516 127.027 77.883 126.943C77.9145 126.858 77.9734 126.786 78.0503 126.738C78.1273 126.691 78.218 126.67 78.308 126.68C80.5742 126.996 82.8685 127.059 85.1487 126.869C89.7436 126.226 91.0156 125.968 92.768 126.293C94.5203 126.618 96.5868 127.106 96.0195 127.799C94.5499 129.594 91.7017 126.796 86.4723 128.497C85.0786 128.984 83.5907 129.14 82.1262 128.953C80.6617 128.766 79.2607 128.242 78.0339 127.42" fill="#A3620A"/>
</svg>
