<svg width="21" height="25" viewBox="0 0 21 25" fill="none" xmlns="http://www.w3.org/2000/svg">
<path d="M18.3712 25H3.07018C2.44599 24.9973 1.84831 24.7351 1.40823 24.2711C0.968153 23.8071 0.721605 23.1791 0.72266 22.5248C0.72266 19.7448 1.77623 17.0786 3.65159 15.1129C5.52695 13.1471 8.07049 12.0428 10.7227 12.0428C13.3748 12.0428 15.9184 13.1471 17.7937 15.1129C19.6691 17.0786 20.7227 19.7448 20.7227 22.5248C20.7237 23.1791 20.4772 23.8071 20.0371 24.2711C19.597 24.7351 18.9993 24.9973 18.3751 25M10.7207 11.2852C9.65446 11.2928 8.6101 10.9683 7.72003 10.3529C6.82997 9.73755 6.1343 8.85897 5.72124 7.82861C5.30817 6.79824 5.19633 5.6625 5.39988 4.56542C5.60344 3.46834 6.11322 2.45933 6.86459 1.66634C7.61596 0.873357 8.57507 0.332121 9.62029 0.111268C10.6655 -0.109585 11.7498 -0.000107078 12.7355 0.42582C13.7213 0.851747 14.5642 1.57493 15.1574 2.50368C15.7505 3.43242 16.0672 4.52488 16.0672 5.64252C16.0706 7.13349 15.5096 8.56499 14.5072 9.62286C13.5049 10.6807 12.1431 11.2786 10.7207 11.2852Z" fill="white"/>
</svg>
