<svg width="170" height="170" viewBox="0 0 170 170" fill="none" xmlns="http://www.w3.org/2000/svg">
<mask id="mask0_245_170543" style="mask-type:alpha" maskUnits="userSpaceOnUse" x="0" y="0" width="170" height="170">
<path d="M169.416 0.904785H0.740723V169.58H169.416V0.904785Z" fill="white"/>
</mask>
<g mask="url(#mask0_245_170543)">
<path d="M169.416 85.2418C169.416 38.6635 131.657 0.904297 85.0783 0.904297C38.4999 0.904297 0.740723 38.6635 0.740723 85.2418C0.740723 131.82 38.4999 169.579 85.0783 169.579C131.657 169.579 169.416 131.82 169.416 85.2418Z" fill="#FA7D19"/>
<path d="M60.3249 51.7697H57.5136C52.1785 51.7697 49.2641 54.7777 49.2641 60.7953V89.8168C49.2641 97.2885 46.7403 99.9108 40.8195 99.9108C36.1622 99.9108 32.3779 97.871 29.3683 94.1836C29.0762 93.7963 22.9648 96.7059 22.9648 103.89C22.9648 111.654 30.2398 116.411 43.7369 116.411C60.1359 116.411 68.779 108.16 68.779 90.1089V60.7953C68.7696 54.7855 65.8583 51.7697 60.3249 51.7697ZM125.687 65.9399C109.767 65.9399 99.1889 76.0338 99.1889 91.085C99.1889 106.519 109.377 116.421 125.393 116.421C141.308 116.421 151.787 106.519 151.787 91.1849C151.797 76.0338 141.41 65.9399 125.687 65.9399ZM125.491 102.141C119.277 102.141 115.008 97.5806 115.008 91.0772C115.008 84.6738 119.381 80.1102 125.491 80.1102C131.602 80.1102 135.972 84.6738 135.972 91.1756C135.974 97.4821 131.51 102.141 125.493 102.141H125.491ZM85.7386 66.4241H83.7942C79.0416 66.4241 75.4509 68.6543 75.4509 75.4513V106.509C75.4509 113.402 78.9462 115.538 83.991 115.538H85.9338C90.6895 115.538 94.0848 113.206 94.0848 106.509V75.4513C94.0848 68.4638 90.7879 66.4241 85.7386 66.4241ZM84.6719 43.9106C78.6527 43.9106 74.8684 47.3091 74.8684 52.6474C74.8684 58.0794 78.7526 61.4763 84.9624 61.4763C90.98 61.4763 94.7658 58.0794 94.7658 52.6474C94.7658 47.2154 90.8832 43.9106 84.6719 43.9106Z" fill="white"/>
</g>
</svg>
