<svg width="170" height="732" viewBox="0 0 170 732" fill="none" xmlns="http://www.w3.org/2000/svg">
<path d="M13.427 7.17665C13.427 3.73005 10.633 0.936035 7.18641 0.936035C3.73982 0.936035 0.945801 3.73005 0.945801 7.17665C0.945801 10.6232 3.73982 13.4173 7.18641 13.4173C10.633 13.4173 13.427 10.6232 13.427 7.17665Z" fill="#FA7D19"/>
<path d="M44.6394 7.17665C44.6394 3.73005 41.8454 0.936035 38.3988 0.936035C34.9522 0.936035 32.1582 3.73005 32.1582 7.17665C32.1582 10.6232 34.9522 13.4173 38.3988 13.4173C41.8454 13.4173 44.6394 10.6232 44.6394 7.17665Z" fill="#FA7D19"/>
<path d="M75.8611 7.17665C75.8611 3.73005 73.0671 0.936035 69.6205 0.936035C66.1739 0.936035 63.3799 3.73005 63.3799 7.17665C63.3799 10.6232 66.1739 13.4173 69.6205 13.4173C73.0671 13.4173 75.8611 10.6232 75.8611 7.17665Z" fill="#FA7D19"/>
<path d="M107.083 7.17665C107.083 3.73005 104.289 0.936035 100.843 0.936035C97.3961 0.936035 94.6021 3.73005 94.6021 7.17665C94.6021 10.6232 97.3961 13.4173 100.843 13.4173C104.289 13.4173 107.083 10.6232 107.083 7.17665Z" fill="#10D974"/>
<path d="M138.305 7.17665C138.305 3.73005 135.511 0.936035 132.064 0.936035C128.618 0.936035 125.824 3.73005 125.824 7.17665C125.824 10.6232 128.618 13.4173 132.064 13.4173C135.511 13.4173 138.305 10.6232 138.305 7.17665Z" fill="#F7AB20"/>
<path d="M169.517 7.17665C169.517 3.73005 166.723 0.936035 163.277 0.936035C159.83 0.936035 157.036 3.73005 157.036 7.17665C157.036 10.6232 159.83 13.4173 163.277 13.4173C166.723 13.4173 169.517 10.6232 169.517 7.17665Z" fill="#10D974"/>
<path d="M13.427 38.389C13.427 34.9425 10.633 32.1484 7.18641 32.1484C3.73982 32.1484 0.945801 34.9425 0.945801 38.389C0.945801 41.8356 3.73982 44.6297 7.18641 44.6297C10.633 44.6297 13.427 41.8356 13.427 38.389Z" fill="#10D974"/>
<path d="M44.6394 38.389C44.6394 34.9425 41.8454 32.1484 38.3988 32.1484C34.9522 32.1484 32.1582 34.9425 32.1582 38.389C32.1582 41.8356 34.9522 44.6297 38.3988 44.6297C41.8454 44.6297 44.6394 41.8356 44.6394 38.389Z" fill="#F7AB20"/>
<path d="M75.8611 38.389C75.8611 34.9425 73.0671 32.1484 69.6205 32.1484C66.1739 32.1484 63.3799 34.9425 63.3799 38.389C63.3799 41.8356 66.1739 44.6297 69.6205 44.6297C73.0671 44.6297 75.8611 41.8356 75.8611 38.389Z" fill="#FA7D19"/>
<path d="M107.083 38.389C107.083 34.9425 104.289 32.1484 100.843 32.1484C97.3961 32.1484 94.6021 34.9425 94.6021 38.389C94.6021 41.8356 97.3961 44.6297 100.843 44.6297C104.289 44.6297 107.083 41.8356 107.083 38.389Z" fill="#10D974"/>
<path d="M138.305 38.389C138.305 34.9425 135.511 32.1484 132.064 32.1484C128.618 32.1484 125.824 34.9425 125.824 38.389C125.824 41.8356 128.618 44.6297 132.064 44.6297C135.511 44.6297 138.305 41.8356 138.305 38.389Z" fill="#FA7D19"/>
<path d="M169.517 38.389C169.517 34.9425 166.723 32.1484 163.277 32.1484C159.83 32.1484 157.036 34.9425 157.036 38.389C157.036 41.8356 159.83 44.6297 163.277 44.6297C166.723 44.6297 169.517 41.8356 169.517 38.389Z" fill="#10D974"/>
<path d="M13.427 69.6112C13.427 66.1646 10.633 63.3706 7.18641 63.3706C3.73982 63.3706 0.945801 66.1646 0.945801 69.6112C0.945801 73.0578 3.73982 75.8518 7.18641 75.8518C10.633 75.8518 13.427 73.0578 13.427 69.6112Z" fill="#FA7D19"/>
<path d="M44.6394 69.6112C44.6394 66.1646 41.8454 63.3706 38.3988 63.3706C34.9522 63.3706 32.1582 66.1646 32.1582 69.6112C32.1582 73.0578 34.9522 75.8518 38.3988 75.8518C41.8454 75.8518 44.6394 73.0578 44.6394 69.6112Z" fill="#10D974"/>
<path d="M75.8611 69.6112C75.8611 66.1646 73.0671 63.3706 69.6205 63.3706C66.1739 63.3706 63.3799 66.1646 63.3799 69.6112C63.3799 73.0578 66.1739 75.8518 69.6205 75.8518C73.0671 75.8518 75.8611 73.0578 75.8611 69.6112Z" fill="#10D974"/>
<path d="M107.083 69.6112C107.083 66.1646 104.289 63.3706 100.843 63.3706C97.3961 63.3706 94.6021 66.1646 94.6021 69.6112C94.6021 73.0578 97.3961 75.8518 100.843 75.8518C104.289 75.8518 107.083 73.0578 107.083 69.6112Z" fill="#10D974"/>
<path d="M138.305 69.6112C138.305 66.1646 135.511 63.3706 132.064 63.3706C128.618 63.3706 125.824 66.1646 125.824 69.6112C125.824 73.0578 128.618 75.8518 132.064 75.8518C135.511 75.8518 138.305 73.0578 138.305 69.6112Z" fill="#FA7D19"/>
<path d="M169.517 69.6112C169.517 66.1646 166.723 63.3706 163.277 63.3706C159.83 63.3706 157.036 66.1646 157.036 69.6112C157.036 73.0578 159.83 75.8518 163.277 75.8518C166.723 75.8518 169.517 73.0578 169.517 69.6112Z" fill="#F7AB20"/>
<path d="M13.427 100.833C13.427 97.3863 10.633 94.5923 7.18641 94.5923C3.73982 94.5923 0.945801 97.3863 0.945801 100.833C0.945801 104.279 3.73982 107.074 7.18641 107.074C10.633 107.074 13.427 104.279 13.427 100.833Z" fill="#10D974"/>
<path d="M44.6394 100.833C44.6394 97.3863 41.8454 94.5923 38.3988 94.5923C34.9522 94.5923 32.1582 97.3863 32.1582 100.833C32.1582 104.279 34.9522 107.074 38.3988 107.074C41.8454 107.074 44.6394 104.279 44.6394 100.833Z" fill="#F7AB20"/>
<path d="M75.8611 100.833C75.8611 97.3863 73.0671 94.5923 69.6205 94.5923C66.1739 94.5923 63.3799 97.3863 63.3799 100.833C63.3799 104.279 66.1739 107.074 69.6205 107.074C73.0671 107.074 75.8611 104.279 75.8611 100.833Z" fill="#FA7D19"/>
<path d="M107.083 100.833C107.083 97.3863 104.289 94.5923 100.843 94.5923C97.3961 94.5923 94.6021 97.3863 94.6021 100.833C94.6021 104.279 97.3961 107.074 100.843 107.074C104.289 107.074 107.083 104.279 107.083 100.833Z" fill="#FA7D19"/>
<path d="M138.305 100.833C138.305 97.3863 135.511 94.5923 132.064 94.5923C128.618 94.5923 125.824 97.3863 125.824 100.833C125.824 104.279 128.618 107.074 132.064 107.074C135.511 107.074 138.305 104.279 138.305 100.833Z" fill="#10D974"/>
<path d="M169.517 100.833C169.517 97.3863 166.723 94.5923 163.277 94.5923C159.83 94.5923 157.036 97.3863 157.036 100.833C157.036 104.279 159.83 107.074 163.277 107.074C166.723 107.074 169.517 104.279 169.517 100.833Z" fill="#F7AB20"/>
<path d="M13.427 132.055C13.427 128.608 10.633 125.814 7.18641 125.814C3.73982 125.814 0.945801 128.608 0.945801 132.055C0.945801 135.501 3.73982 138.295 7.18641 138.295C10.633 138.295 13.427 135.501 13.427 132.055Z" fill="#FA7D19"/>
<path d="M44.6394 132.055C44.6394 128.608 41.8454 125.814 38.3988 125.814C34.9522 125.814 32.1582 128.608 32.1582 132.055C32.1582 135.501 34.9522 138.295 38.3988 138.295C41.8454 138.295 44.6394 135.501 44.6394 132.055Z" fill="#10D974"/>
<path d="M75.8611 132.055C75.8611 128.608 73.0671 125.814 69.6205 125.814C66.1739 125.814 63.3799 128.608 63.3799 132.055C63.3799 135.501 66.1739 138.295 69.6205 138.295C73.0671 138.295 75.8611 135.501 75.8611 132.055Z" fill="#10D974"/>
<path d="M107.083 132.055C107.083 128.608 104.289 125.814 100.843 125.814C97.3961 125.814 94.6021 128.608 94.6021 132.055C94.6021 135.501 97.3961 138.295 100.843 138.295C104.289 138.295 107.083 135.501 107.083 132.055Z" fill="#10D974"/>
<path d="M138.305 132.055C138.305 128.608 135.511 125.814 132.064 125.814C128.618 125.814 125.824 128.608 125.824 132.055C125.824 135.501 128.618 138.295 132.064 138.295C135.511 138.295 138.305 135.501 138.305 132.055Z" fill="#F7AB20"/>
<path d="M169.517 132.055C169.517 128.608 166.723 125.814 163.277 125.814C159.83 125.814 157.036 128.608 157.036 132.055C157.036 135.501 159.83 138.295 163.277 138.295C166.723 138.295 169.517 135.501 169.517 132.055Z" fill="#10D974"/>
<path d="M13.427 163.267C13.427 159.821 10.633 157.027 7.18641 157.027C3.73982 157.027 0.945801 159.821 0.945801 163.267C0.945801 166.714 3.73982 169.508 7.18641 169.508C10.633 169.508 13.427 166.714 13.427 163.267Z" fill="#10D974"/>
<path d="M44.6394 163.267C44.6394 159.821 41.8454 157.027 38.3988 157.027C34.9522 157.027 32.1582 159.821 32.1582 163.267C32.1582 166.714 34.9522 169.508 38.3988 169.508C41.8454 169.508 44.6394 166.714 44.6394 163.267Z" fill="#F7AB20"/>
<path d="M75.8611 163.267C75.8611 159.821 73.0671 157.027 69.6205 157.027C66.1739 157.027 63.3799 159.821 63.3799 163.267C63.3799 166.714 66.1739 169.508 69.6205 169.508C73.0671 169.508 75.8611 166.714 75.8611 163.267Z" fill="#10D974"/>
<path d="M107.083 163.267C107.083 159.821 104.289 157.027 100.843 157.027C97.3961 157.027 94.6021 159.821 94.6021 163.267C94.6021 166.714 97.3961 169.508 100.843 169.508C104.289 169.508 107.083 166.714 107.083 163.267Z" fill="#FA7D19"/>
<path d="M138.305 163.267C138.305 159.821 135.511 157.027 132.064 157.027C128.618 157.027 125.824 159.821 125.824 163.267C125.824 166.714 128.618 169.508 132.064 169.508C135.511 169.508 138.305 166.714 138.305 163.267Z" fill="#F7AB20"/>
<path d="M169.517 163.267C169.517 159.821 166.723 157.027 163.277 157.027C159.83 157.027 157.036 159.821 157.036 163.267C157.036 166.714 159.83 169.508 163.277 169.508C166.723 169.508 169.517 166.714 169.517 163.267Z" fill="#FA7D19"/>
<path d="M13.427 194.489C13.427 191.043 10.633 188.249 7.18641 188.249C3.73982 188.249 0.945801 191.043 0.945801 194.489C0.945801 197.936 3.73982 200.73 7.18641 200.73C10.633 200.73 13.427 197.936 13.427 194.489Z" fill="#FA7D19"/>
<path d="M44.6394 194.489C44.6394 191.043 41.8454 188.249 38.3988 188.249C34.9522 188.249 32.1582 191.043 32.1582 194.489C32.1582 197.936 34.9522 200.73 38.3988 200.73C41.8454 200.73 44.6394 197.936 44.6394 194.489Z" fill="#10D974"/>
<path d="M75.8611 194.489C75.8611 191.043 73.0671 188.249 69.6205 188.249C66.1739 188.249 63.3799 191.043 63.3799 194.489C63.3799 197.936 66.1739 200.73 69.6205 200.73C73.0671 200.73 75.8611 197.936 75.8611 194.489Z" fill="#10D974"/>
<path d="M107.083 194.489C107.083 191.043 104.289 188.249 100.843 188.249C97.3961 188.249 94.6021 191.043 94.6021 194.489C94.6021 197.936 97.3961 200.73 100.843 200.73C104.289 200.73 107.083 197.936 107.083 194.489Z" fill="#10D974"/>
<path d="M138.305 194.489C138.305 191.043 135.511 188.249 132.064 188.249C128.618 188.249 125.824 191.043 125.824 194.489C125.824 197.936 128.618 200.73 132.064 200.73C135.511 200.73 138.305 197.936 138.305 194.489Z" fill="#F7AB20"/>
<path d="M169.517 194.489C169.517 191.043 166.723 188.249 163.277 188.249C159.83 188.249 157.036 191.043 157.036 194.489C157.036 197.936 159.83 200.73 163.277 200.73C166.723 200.73 169.517 197.936 169.517 194.489Z" fill="#F7AB20"/>
<path d="M13.427 225.711C13.427 222.264 10.633 219.47 7.18641 219.47C3.73982 219.47 0.945801 222.264 0.945801 225.711C0.945801 229.157 3.73982 231.951 7.18641 231.951C10.633 231.951 13.427 229.157 13.427 225.711Z" fill="#F7AB20"/>
<path d="M44.6394 225.711C44.6394 222.264 41.8454 219.47 38.3988 219.47C34.9522 219.47 32.1582 222.264 32.1582 225.711C32.1582 229.157 34.9522 231.951 38.3988 231.951C41.8454 231.951 44.6394 229.157 44.6394 225.711Z" fill="#FA7D19"/>
<path d="M75.8611 225.711C75.8611 222.264 73.0671 219.47 69.6205 219.47C66.1739 219.47 63.3799 222.264 63.3799 225.711C63.3799 229.157 66.1739 231.951 69.6205 231.951C73.0671 231.951 75.8611 229.157 75.8611 225.711Z" fill="#F7AB20"/>
<path d="M107.083 225.711C107.083 222.264 104.289 219.47 100.843 219.47C97.3961 219.47 94.6021 222.264 94.6021 225.711C94.6021 229.157 97.3961 231.951 100.843 231.951C104.289 231.951 107.083 229.157 107.083 225.711Z" fill="#FA7D19"/>
<path d="M138.305 225.711C138.305 222.264 135.511 219.47 132.064 219.47C128.618 219.47 125.824 222.264 125.824 225.711C125.824 229.157 128.618 231.951 132.064 231.951C135.511 231.951 138.305 229.157 138.305 225.711Z" fill="#10D974"/>
<path d="M169.517 225.711C169.517 222.264 166.723 219.47 163.277 219.47C159.83 219.47 157.036 222.264 157.036 225.711C157.036 229.157 159.83 231.951 163.277 231.951C166.723 231.951 169.517 229.157 169.517 225.711Z" fill="#10D974"/>
<path d="M13.427 256.933C13.427 253.486 10.633 250.692 7.18641 250.692C3.73982 250.692 0.945801 253.486 0.945801 256.933C0.945801 260.38 3.73982 263.174 7.18641 263.174C10.633 263.174 13.427 260.38 13.427 256.933Z" fill="#F7AB20"/>
<path d="M44.6394 256.933C44.6394 253.486 41.8454 250.692 38.3988 250.692C34.9522 250.692 32.1582 253.486 32.1582 256.933C32.1582 260.38 34.9522 263.174 38.3988 263.174C41.8454 263.174 44.6394 260.38 44.6394 256.933Z" fill="#10D974"/>
<path d="M75.8611 256.933C75.8611 253.486 73.0671 250.692 69.6205 250.692C66.1739 250.692 63.3799 253.486 63.3799 256.933C63.3799 260.38 66.1739 263.174 69.6205 263.174C73.0671 263.174 75.8611 260.38 75.8611 256.933Z" fill="#F7AB20"/>
<path d="M107.083 256.933C107.083 253.486 104.289 250.692 100.843 250.692C97.3961 250.692 94.6021 253.486 94.6021 256.933C94.6021 260.38 97.3961 263.174 100.843 263.174C104.289 263.174 107.083 260.38 107.083 256.933Z" fill="#FA7D19"/>
<path d="M138.305 256.933C138.305 253.486 135.511 250.692 132.064 250.692C128.618 250.692 125.824 253.486 125.824 256.933C125.824 260.38 128.618 263.174 132.064 263.174C135.511 263.174 138.305 260.38 138.305 256.933Z" fill="#10D974"/>
<path d="M169.517 256.933C169.517 253.486 166.723 250.692 163.277 250.692C159.83 250.692 157.036 253.486 157.036 256.933C157.036 260.38 159.83 263.174 163.277 263.174C166.723 263.174 169.517 260.38 169.517 256.933Z" fill="#F7AB20"/>
<path d="M13.427 475.467C13.427 472.021 10.633 469.227 7.18641 469.227C3.73982 469.227 0.945801 472.021 0.945801 475.467C0.945801 478.914 3.73982 481.708 7.18641 481.708C10.633 481.708 13.427 478.914 13.427 475.467Z" fill="#FA7D19"/>
<path d="M44.6394 475.467C44.6394 472.021 41.8454 469.227 38.3988 469.227C34.9522 469.227 32.1582 472.021 32.1582 475.467C32.1582 478.914 34.9522 481.708 38.3988 481.708C41.8454 481.708 44.6394 478.914 44.6394 475.467Z" fill="#10D974"/>
<path d="M75.8611 475.467C75.8611 472.021 73.0671 469.227 69.6205 469.227C66.1739 469.227 63.3799 472.021 63.3799 475.467C63.3799 478.914 66.1739 481.708 69.6205 481.708C73.0671 481.708 75.8611 478.914 75.8611 475.467Z" fill="#F7AB20"/>
<path d="M107.083 475.467C107.083 472.021 104.289 469.227 100.843 469.227C97.3961 469.227 94.6021 472.021 94.6021 475.467C94.6021 478.914 97.3961 481.708 100.843 481.708C104.289 481.708 107.083 478.914 107.083 475.467Z" fill="#F7AB20"/>
<path d="M138.305 475.467C138.305 472.021 135.511 469.227 132.064 469.227C128.618 469.227 125.824 472.021 125.824 475.467C125.824 478.914 128.618 481.708 132.064 481.708C135.511 481.708 138.305 478.914 138.305 475.467Z" fill="#F7AB20"/>
<path d="M169.517 475.467C169.517 472.021 166.723 469.227 163.277 469.227C159.83 469.227 157.036 472.021 157.036 475.467C157.036 478.914 159.83 481.708 163.277 481.708C166.723 481.708 169.517 478.914 169.517 475.467Z" fill="#10D974"/>
<path d="M13.427 506.689C13.427 503.243 10.633 500.449 7.18641 500.449C3.73982 500.449 0.945801 503.243 0.945801 506.689C0.945801 510.136 3.73982 512.93 7.18641 512.93C10.633 512.93 13.427 510.136 13.427 506.689Z" fill="#F7AB20"/>
<path d="M44.6394 506.689C44.6394 503.243 41.8454 500.449 38.3988 500.449C34.9522 500.449 32.1582 503.243 32.1582 506.689C32.1582 510.136 34.9522 512.93 38.3988 512.93C41.8454 512.93 44.6394 510.136 44.6394 506.689Z" fill="#FA7D19"/>
<path d="M75.8611 506.689C75.8611 503.243 73.0671 500.449 69.6205 500.449C66.1739 500.449 63.3799 503.243 63.3799 506.689C63.3799 510.136 66.1739 512.93 69.6205 512.93C73.0671 512.93 75.8611 510.136 75.8611 506.689Z" fill="#FA7D19"/>
<path d="M107.083 506.689C107.083 503.243 104.289 500.449 100.843 500.449C97.3961 500.449 94.6021 503.243 94.6021 506.689C94.6021 510.136 97.3961 512.93 100.843 512.93C104.289 512.93 107.083 510.136 107.083 506.689Z" fill="#F7AB20"/>
<path d="M138.305 506.689C138.305 503.243 135.511 500.449 132.064 500.449C128.618 500.449 125.824 503.243 125.824 506.689C125.824 510.136 128.618 512.93 132.064 512.93C135.511 512.93 138.305 510.136 138.305 506.689Z" fill="#FA7D19"/>
<path d="M169.517 506.689C169.517 503.243 166.723 500.449 163.277 500.449C159.83 500.449 157.036 503.243 157.036 506.689C157.036 510.136 159.83 512.93 163.277 512.93C166.723 512.93 169.517 510.136 169.517 506.689Z" fill="#F7AB20"/>
<path d="M13.427 537.902C13.427 534.455 10.633 531.661 7.18641 531.661C3.73982 531.661 0.945801 534.455 0.945801 537.902C0.945801 541.348 3.73982 544.142 7.18641 544.142C10.633 544.142 13.427 541.348 13.427 537.902Z" fill="#FA7D19"/>
<path d="M44.6394 537.902C44.6394 534.455 41.8454 531.661 38.3988 531.661C34.9522 531.661 32.1582 534.455 32.1582 537.902C32.1582 541.348 34.9522 544.142 38.3988 544.142C41.8454 544.142 44.6394 541.348 44.6394 537.902Z" fill="#10D974"/>
<path d="M75.8611 537.902C75.8611 534.455 73.0671 531.661 69.6205 531.661C66.1739 531.661 63.3799 534.455 63.3799 537.902C63.3799 541.348 66.1739 544.142 69.6205 544.142C73.0671 544.142 75.8611 541.348 75.8611 537.902Z" fill="#FA7D19"/>
<path d="M107.083 537.902C107.083 534.455 104.289 531.661 100.843 531.661C97.3961 531.661 94.6021 534.455 94.6021 537.902C94.6021 541.348 97.3961 544.142 100.843 544.142C104.289 544.142 107.083 541.348 107.083 537.902Z" fill="#10D974"/>
<path d="M138.305 537.902C138.305 534.455 135.511 531.661 132.064 531.661C128.618 531.661 125.824 534.455 125.824 537.902C125.824 541.348 128.618 544.142 132.064 544.142C135.511 544.142 138.305 541.348 138.305 537.902Z" fill="#10D974"/>
<path d="M169.517 537.902C169.517 534.455 166.723 531.661 163.277 531.661C159.83 531.661 157.036 534.455 157.036 537.902C157.036 541.348 159.83 544.142 163.277 544.142C166.723 544.142 169.517 541.348 169.517 537.902Z" fill="#FA7D19"/>
<path d="M13.427 569.123C13.427 565.677 10.633 562.883 7.18641 562.883C3.73982 562.883 0.945801 565.677 0.945801 569.123C0.945801 572.57 3.73982 575.364 7.18641 575.364C10.633 575.364 13.427 572.57 13.427 569.123Z" fill="#F7AB20"/>
<path d="M44.6394 569.123C44.6394 565.677 41.8454 562.883 38.3988 562.883C34.9522 562.883 32.1582 565.677 32.1582 569.123C32.1582 572.57 34.9522 575.364 38.3988 575.364C41.8454 575.364 44.6394 572.57 44.6394 569.123Z" fill="#F7AB20"/>
<path d="M75.8611 569.123C75.8611 565.677 73.0671 562.883 69.6205 562.883C66.1739 562.883 63.3799 565.677 63.3799 569.123C63.3799 572.57 66.1739 575.364 69.6205 575.364C73.0671 575.364 75.8611 572.57 75.8611 569.123Z" fill="#F7AB20"/>
<path d="M107.083 569.123C107.083 565.677 104.289 562.883 100.843 562.883C97.3961 562.883 94.6021 565.677 94.6021 569.123C94.6021 572.57 97.3961 575.364 100.843 575.364C104.289 575.364 107.083 572.57 107.083 569.123Z" fill="#10D974"/>
<path d="M138.305 569.123C138.305 565.677 135.511 562.883 132.064 562.883C128.618 562.883 125.824 565.677 125.824 569.123C125.824 572.57 128.618 575.364 132.064 575.364C135.511 575.364 138.305 572.57 138.305 569.123Z" fill="#F7AB20"/>
<path d="M169.517 569.123C169.517 565.677 166.723 562.883 163.277 562.883C159.83 562.883 157.036 565.677 157.036 569.123C157.036 572.57 159.83 575.364 163.277 575.364C166.723 575.364 169.517 572.57 169.517 569.123Z" fill="#10D974"/>
<path d="M13.427 600.345C13.427 596.899 10.633 594.104 7.18641 594.104C3.73982 594.104 0.945801 596.899 0.945801 600.345C0.945801 603.792 3.73982 606.586 7.18641 606.586C10.633 606.586 13.427 603.792 13.427 600.345Z" fill="#FA7D19"/>
<path d="M44.6394 600.345C44.6394 596.899 41.8454 594.104 38.3988 594.104C34.9522 594.104 32.1582 596.899 32.1582 600.345C32.1582 603.792 34.9522 606.586 38.3988 606.586C41.8454 606.586 44.6394 603.792 44.6394 600.345Z" fill="#10D974"/>
<path d="M75.8611 600.345C75.8611 596.899 73.0671 594.104 69.6205 594.104C66.1739 594.104 63.3799 596.899 63.3799 600.345C63.3799 603.792 66.1739 606.586 69.6205 606.586C73.0671 606.586 75.8611 603.792 75.8611 600.345Z" fill="#F7AB20"/>
<path d="M107.083 600.345C107.083 596.899 104.289 594.104 100.843 594.104C97.3961 594.104 94.6021 596.899 94.6021 600.345C94.6021 603.792 97.3961 606.586 100.843 606.586C104.289 606.586 107.083 603.792 107.083 600.345Z" fill="#FA7D19"/>
<path d="M138.305 600.345C138.305 596.899 135.511 594.104 132.064 594.104C128.618 594.104 125.824 596.899 125.824 600.345C125.824 603.792 128.618 606.586 132.064 606.586C135.511 606.586 138.305 603.792 138.305 600.345Z" fill="#F7AB20"/>
<path d="M169.517 600.345C169.517 596.899 166.723 594.104 163.277 594.104C159.83 594.104 157.036 596.899 157.036 600.345C157.036 603.792 159.83 606.586 163.277 606.586C166.723 606.586 169.517 603.792 169.517 600.345Z" fill="#F7AB20"/>
<path d="M13.427 631.567C13.427 628.121 10.633 625.327 7.18641 625.327C3.73982 625.327 0.945801 628.121 0.945801 631.567C0.945801 635.014 3.73982 637.808 7.18641 637.808C10.633 637.808 13.427 635.014 13.427 631.567Z" fill="#10D974"/>
<path d="M44.6394 631.567C44.6394 628.121 41.8454 625.327 38.3988 625.327C34.9522 625.327 32.1582 628.121 32.1582 631.567C32.1582 635.014 34.9522 637.808 38.3988 637.808C41.8454 637.808 44.6394 635.014 44.6394 631.567Z" fill="#FA7D19"/>
<path d="M75.8611 631.567C75.8611 628.121 73.0671 625.327 69.6205 625.327C66.1739 625.327 63.3799 628.121 63.3799 631.567C63.3799 635.014 66.1739 637.808 69.6205 637.808C73.0671 637.808 75.8611 635.014 75.8611 631.567Z" fill="#FA7D19"/>
<path d="M107.083 631.567C107.083 628.121 104.289 625.327 100.843 625.327C97.3961 625.327 94.6021 628.121 94.6021 631.567C94.6021 635.014 97.3961 637.808 100.843 637.808C104.289 637.808 107.083 635.014 107.083 631.567Z" fill="#10D974"/>
<path d="M138.305 631.567C138.305 628.121 135.511 625.327 132.064 625.327C128.618 625.327 125.824 628.121 125.824 631.567C125.824 635.014 128.618 637.808 132.064 637.808C135.511 637.808 138.305 635.014 138.305 631.567Z" fill="#FA7D19"/>
<path d="M169.517 631.567C169.517 628.121 166.723 625.327 163.277 625.327C159.83 625.327 157.036 628.121 157.036 631.567C157.036 635.014 159.83 637.808 163.277 637.808C166.723 637.808 169.517 635.014 169.517 631.567Z" fill="#F7AB20"/>
<path d="M13.427 662.789C13.427 659.343 10.633 656.549 7.18641 656.549C3.73982 656.549 0.945801 659.343 0.945801 662.789C0.945801 666.236 3.73982 669.03 7.18641 669.03C10.633 669.03 13.427 666.236 13.427 662.789Z" fill="#FA7D19"/>
<path d="M44.6394 662.789C44.6394 659.343 41.8454 656.549 38.3988 656.549C34.9522 656.549 32.1582 659.343 32.1582 662.789C32.1582 666.236 34.9522 669.03 38.3988 669.03C41.8454 669.03 44.6394 666.236 44.6394 662.789Z" fill="#10D974"/>
<path d="M75.8611 662.789C75.8611 659.343 73.0671 656.549 69.6205 656.549C66.1739 656.549 63.3799 659.343 63.3799 662.789C63.3799 666.236 66.1739 669.03 69.6205 669.03C73.0671 669.03 75.8611 666.236 75.8611 662.789Z" fill="#F7AB20"/>
<path d="M107.083 662.789C107.083 659.343 104.289 656.549 100.843 656.549C97.3961 656.549 94.6021 659.343 94.6021 662.789C94.6021 666.236 97.3961 669.03 100.843 669.03C104.289 669.03 107.083 666.236 107.083 662.789Z" fill="#10D974"/>
<path d="M138.305 662.789C138.305 659.343 135.511 656.549 132.064 656.549C128.618 656.549 125.824 659.343 125.824 662.789C125.824 666.236 128.618 669.03 132.064 669.03C135.511 669.03 138.305 666.236 138.305 662.789Z" fill="#F7AB20"/>
<path d="M169.517 662.789C169.517 659.343 166.723 656.549 163.277 656.549C159.83 656.549 157.036 659.343 157.036 662.789C157.036 666.236 159.83 669.03 163.277 669.03C166.723 669.03 169.517 666.236 169.517 662.789Z" fill="#FA7D19"/>
<path d="M13.427 694.001C13.427 690.555 10.633 687.761 7.18641 687.761C3.73982 687.761 0.945801 690.555 0.945801 694.001C0.945801 697.448 3.73982 700.242 7.18641 700.242C10.633 700.242 13.427 697.448 13.427 694.001Z" fill="#10D974"/>
<path d="M44.6394 694.001C44.6394 690.555 41.8454 687.761 38.3988 687.761C34.9522 687.761 32.1582 690.555 32.1582 694.001C32.1582 697.448 34.9522 700.242 38.3988 700.242C41.8454 700.242 44.6394 697.448 44.6394 694.001Z" fill="#F7AB20"/>
<path d="M75.8611 694.001C75.8611 690.555 73.0671 687.761 69.6205 687.761C66.1739 687.761 63.3799 690.555 63.3799 694.001C63.3799 697.448 66.1739 700.242 69.6205 700.242C73.0671 700.242 75.8611 697.448 75.8611 694.001Z" fill="#FA7D19"/>
<path d="M107.083 694.001C107.083 690.555 104.289 687.761 100.843 687.761C97.3961 687.761 94.6021 690.555 94.6021 694.001C94.6021 697.448 97.3961 700.242 100.843 700.242C104.289 700.242 107.083 697.448 107.083 694.001Z" fill="#F7AB20"/>
<path d="M138.305 694.001C138.305 690.555 135.511 687.761 132.064 687.761C128.618 687.761 125.824 690.555 125.824 694.001C125.824 697.448 128.618 700.242 132.064 700.242C135.511 700.242 138.305 697.448 138.305 694.001Z" fill="#FA7D19"/>
<path d="M169.517 694.001C169.517 690.555 166.723 687.761 163.277 687.761C159.83 687.761 157.036 690.555 157.036 694.001C157.036 697.448 159.83 700.242 163.277 700.242C166.723 700.242 169.517 697.448 169.517 694.001Z" fill="#FA7D19"/>
<path d="M13.427 725.224C13.427 721.777 10.633 718.983 7.18641 718.983C3.73982 718.983 0.945801 721.777 0.945801 725.224C0.945801 728.67 3.73982 731.464 7.18641 731.464C10.633 731.464 13.427 728.67 13.427 725.224Z" fill="#10D974"/>
<path d="M44.6394 725.224C44.6394 721.777 41.8454 718.983 38.3988 718.983C34.9522 718.983 32.1582 721.777 32.1582 725.224C32.1582 728.67 34.9522 731.464 38.3988 731.464C41.8454 731.464 44.6394 728.67 44.6394 725.224Z" fill="#10D974"/>
<path d="M75.8611 725.224C75.8611 721.777 73.0671 718.983 69.6205 718.983C66.1739 718.983 63.3799 721.777 63.3799 725.224C63.3799 728.67 66.1739 731.464 69.6205 731.464C73.0671 731.464 75.8611 728.67 75.8611 725.224Z" fill="#10D974"/>
<path d="M107.083 725.224C107.083 721.777 104.289 718.983 100.843 718.983C97.3961 718.983 94.6021 721.777 94.6021 725.224C94.6021 728.67 97.3961 731.464 100.843 731.464C104.289 731.464 107.083 728.67 107.083 725.224Z" fill="#FA7D19"/>
<path d="M138.305 725.224C138.305 721.777 135.511 718.983 132.064 718.983C128.618 718.983 125.824 721.777 125.824 725.224C125.824 728.67 128.618 731.464 132.064 731.464C135.511 731.464 138.305 728.67 138.305 725.224Z" fill="#F7AB20"/>
<path d="M169.517 725.224C169.517 721.777 166.723 718.983 163.277 718.983C159.83 718.983 157.036 721.777 157.036 725.224C157.036 728.67 159.83 731.464 163.277 731.464C166.723 731.464 169.517 728.67 169.517 725.224Z" fill="#FA7D19"/>
</svg>
