<svg width="74" height="74" viewBox="0 0 74 74" fill="none" xmlns="http://www.w3.org/2000/svg">
<path d="M74 37C74 44.3179 71.83 51.4715 67.7644 57.5561C63.6988 63.6407 57.9202 68.3831 51.1593 71.1835C44.3984 73.984 36.959 74.7167 29.7817 73.289C22.6044 71.8614 16.0116 68.3375 10.8371 63.1629C5.66252 57.9884 2.13861 51.3956 0.710961 44.2183C-0.716692 37.041 0.0160314 29.6016 2.81647 22.8407C5.61691 16.0798 10.3593 10.3012 16.4439 6.23563C22.5285 2.17001 29.6821 0 37 0C46.813 0 56.2241 3.8982 63.163 10.837C70.1018 17.7759 74 27.187 74 37Z" fill="#FFF8E7"/>
</svg>
