<svg width="20" height="14" viewBox="0 0 20 14" fill="none" xmlns="http://www.w3.org/2000/svg">
<path id="Vector" d="M19.7061 6.29019L13.7061 0.290185C13.5178 0.101882 13.2624 -0.00390625 12.9961 -0.00390625C12.7298 -0.00390625 12.4744 0.101882 12.2861 0.290185C12.0978 0.478489 11.992 0.733884 11.992 1.00019C11.992 1.26649 12.0978 1.52188 12.2861 1.71019L16.5861 6.00019H0.996094C0.730877 6.00019 0.476523 6.10554 0.288987 6.29308C0.101451 6.48062 -0.00390625 6.73497 -0.00390625 7.00019C-0.00390625 7.2654 0.101451 7.51976 0.288987 7.70729C0.476523 7.89483 0.730877 8.00019 0.996094 8.00019H16.5861L12.2861 12.2902C12.1924 12.3831 12.118 12.4937 12.0672 12.6156C12.0164 12.7375 11.9903 12.8682 11.9903 13.0002C11.9903 13.1322 12.0164 13.2629 12.0672 13.3848C12.118 13.5066 12.1924 13.6172 12.2861 13.7102C12.3791 13.8039 12.4897 13.8783 12.6115 13.9291C12.7334 13.9798 12.8641 14.006 12.9961 14.006C13.1281 14.006 13.2588 13.9798 13.3807 13.9291C13.5025 13.8783 13.6131 13.8039 13.7061 13.7102L19.7061 7.71019C19.7998 7.61722 19.8742 7.50662 19.925 7.38476C19.9758 7.2629 20.0019 7.1322 20.0019 7.00019C20.0019 6.86817 19.9758 6.73747 19.925 6.61561C19.8742 6.49375 19.7998 6.38315 19.7061 6.29019Z" fill="#03753C"/>
</svg>
