<svg width="58" height="58" viewBox="0 0 58 58" fill="none" xmlns="http://www.w3.org/2000/svg">
<path d="M52.2811 44.556C55.3578 39.9514 57 34.5379 57 29C57 21.5739 54.05 14.452 48.799 9.20102C43.548 3.95001 36.4261 1 29 1C23.4621 1 18.0486 2.64218 13.444 5.71886C8.83947 8.79554 5.25065 13.1685 3.1314 18.2849C1.01215 23.4012 0.457633 29.0311 1.53802 34.4625C2.61841 39.894 5.28517 44.8831 9.20103 48.799C13.1169 52.7149 18.106 55.3816 23.5375 56.462C28.969 57.5424 34.5988 56.9879 39.7152 54.8686C44.8315 52.7494 49.2045 49.1605 52.2811 44.556Z" fill="#FFF8E7" stroke="#03753C" stroke-width="2"/>
<path d="M45.4286 44.648C45.4286 45.3044 38.0733 45.836 29.0002 45.836C19.9271 45.836 12.5713 45.3044 12.5713 44.648C12.5713 43.9915 19.9265 43.46 29.0002 43.46C38.0739 43.46 45.4286 43.9915 45.4286 44.648Z" fill="#F0DEB9"/>
<path d="M25.4443 16.8291H24.8818V43.9888H25.4443V16.8291Z" fill="#986904"/>
<path d="M25.1552 17.5008C25.1552 17.5008 21.3645 14.7643 25.2159 10.9961C25.2159 10.9961 28.9059 14.2485 25.1552 17.5008Z" fill="#DF961A"/>
<path d="M20.6719 16.4548C20.5973 16.4548 20.5258 16.4252 20.473 16.3724C20.4203 16.3197 20.3906 16.2482 20.3906 16.1736V11.7754C20.3906 11.7008 20.4203 11.6292 20.473 11.5765C20.5258 11.5238 20.5973 11.4941 20.6719 11.4941C20.7465 11.4941 20.818 11.5238 20.8708 11.5765C20.9235 11.6292 20.9531 11.7008 20.9531 11.7754V16.1736C20.9531 16.2482 20.9235 16.3197 20.8708 16.3724C20.818 16.4252 20.7465 16.4548 20.6719 16.4548Z" fill="#D38C16"/>
<path d="M25.1729 10.49C25.0983 10.49 25.0267 10.4603 24.974 10.4076C24.9212 10.3549 24.8916 10.2833 24.8916 10.2087V5.81055C24.8916 5.73595 24.9212 5.66442 24.974 5.61168C25.0267 5.55893 25.0983 5.5293 25.1729 5.5293C25.2474 5.5293 25.319 5.55893 25.3717 5.61168C25.4245 5.66442 25.4541 5.73595 25.4541 5.81055V10.2087C25.4541 10.2833 25.4245 10.3549 25.3717 10.4076C25.319 10.4603 25.2474 10.49 25.1729 10.49Z" fill="#D38C16"/>
<path d="M29.3535 16.4548C29.2789 16.4548 29.2074 16.4252 29.1547 16.3724C29.1019 16.3197 29.0723 16.2482 29.0723 16.1736V11.7754C29.0723 11.7008 29.1019 11.6292 29.1547 11.5765C29.2074 11.5238 29.2789 11.4941 29.3535 11.4941C29.4281 11.4941 29.4997 11.5238 29.5524 11.5765C29.6051 11.6292 29.6348 11.7008 29.6348 11.7754V16.1736C29.6348 16.2482 29.6051 16.3197 29.5524 16.3724C29.4997 16.4252 29.4281 16.4548 29.3535 16.4548Z" fill="#D38C16"/>
<path d="M18.2656 22.7368C18.191 22.7368 18.1195 22.7071 18.0667 22.6544C18.014 22.6016 17.9844 22.5301 17.9844 22.4555V18.0596C17.9844 17.985 18.014 17.9134 18.0667 17.8607C18.1195 17.8079 18.191 17.7783 18.2656 17.7783C18.3402 17.7783 18.4117 17.8079 18.4645 17.8607C18.5172 17.9134 18.5469 17.985 18.5469 18.0596V22.4578C18.5469 22.5323 18.5172 22.6039 18.4645 22.6566C18.4117 22.7094 18.3402 22.739 18.2656 22.739" fill="#D38C16"/>
<path d="M32.292 22.7368C32.2174 22.7368 32.1459 22.7071 32.0931 22.6544C32.0404 22.6016 32.0107 22.5301 32.0107 22.4555V18.0596C32.0107 17.985 32.0404 17.9134 32.0931 17.8607C32.1459 17.8079 32.2174 17.7783 32.292 17.7783C32.3666 17.7783 32.4381 17.8079 32.4909 17.8607C32.5436 17.9134 32.5732 17.985 32.5732 18.0596V22.4578C32.5732 22.5323 32.5436 22.6039 32.4909 22.6566C32.4381 22.7094 32.3666 22.739 32.292 22.739" fill="#D38C16"/>
<path d="M25.1729 17.4851C28.891 14.24 25.2212 11.0006 25.2167 10.9961L25.1729 17.4851Z" fill="#F7AB20"/>
<path d="M25.1637 21.699C25.1637 21.699 20.8532 23.5096 19.6416 18.2593C19.6416 18.2593 24.3407 16.803 25.1637 21.699Z" fill="#DF961A"/>
<path d="M25.159 21.6768C24.3254 16.8123 19.6465 18.258 19.6426 18.2602L25.159 21.6768Z" fill="#F7AB20"/>
<path d="M25.2246 21.699C25.2246 21.699 29.5345 23.5096 30.7461 18.2593C30.7461 18.2593 26.0475 16.803 25.2246 21.699Z" fill="#DF961A"/>
<path d="M25.2285 21.6768C26.0621 16.8123 30.741 18.258 30.745 18.2602L25.2285 21.6768Z" fill="#F7AB20"/>
<path d="M25.1983 25.8786C25.1983 25.8786 20.8884 27.6893 19.6768 22.4389C19.6768 22.4389 24.3753 20.9826 25.1983 25.8786Z" fill="#DF961A"/>
<path d="M25.1942 25.8526C24.3606 20.9881 19.6817 22.4337 19.6777 22.436L25.1942 25.8526Z" fill="#F7AB20"/>
<path d="M25.2607 25.8786C25.2607 25.8786 29.5706 27.6893 30.7823 22.4389C30.7823 22.4389 26.0837 20.9826 25.2607 25.8786Z" fill="#DF961A"/>
<path d="M25.2607 25.8526C26.0944 20.9881 30.7732 22.4337 30.7772 22.436L25.2607 25.8526Z" fill="#F7AB20"/>
<path d="M25.1983 30.3786C25.1983 30.3786 20.8884 32.1893 19.6768 26.9389C19.6768 26.9389 24.3753 25.4826 25.1983 30.3786Z" fill="#DF961A"/>
<path d="M25.1942 30.3536C24.3606 25.4891 19.6817 26.9347 19.6777 26.937L25.1942 30.3536Z" fill="#F7AB20"/>
<path d="M25.2607 30.3786C25.2607 30.3786 29.5706 32.1893 30.7823 26.9389C30.7823 26.9389 26.0837 25.4826 25.2607 30.3786Z" fill="#DF961A"/>
<path d="M25.2607 30.3536C26.0944 25.4891 30.7732 26.9347 30.7772 26.937L25.2607 30.3536Z" fill="#F7AB20"/>
<path d="M25.1637 35.0661C25.1637 35.0661 20.8532 36.8768 19.6416 31.6264C19.6416 31.6264 24.3407 30.1701 25.1637 35.0661Z" fill="#DF961A"/>
<path d="M25.159 35.043C24.3254 30.1786 19.6465 31.6242 19.6426 31.6264L25.159 35.043Z" fill="#F7AB20"/>
<path d="M25.2246 35.0661C25.2246 35.0661 29.5345 36.8768 30.7461 31.6264C30.7461 31.6264 26.0475 30.1701 25.2246 35.0661Z" fill="#DF961A"/>
<path d="M25.2285 35.043C26.0621 30.1786 30.741 31.6242 30.745 31.6264L25.2285 35.043Z" fill="#F7AB20"/>
<path d="M25.128 39.5007C25.128 39.5007 20.8181 41.3114 19.6064 36.061C19.6064 36.061 24.305 34.6047 25.128 39.5007Z" fill="#DF961A"/>
<path d="M25.1239 39.4786C24.2902 34.6141 19.6114 36.0597 19.6074 36.062L25.1239 39.4786Z" fill="#F7AB20"/>
<path d="M25.1885 39.5007C25.1885 39.5007 29.4983 41.3114 30.71 36.061C30.71 36.061 26.0114 34.6047 25.1885 39.5007Z" fill="#DF961A"/>
<path d="M25.1941 39.4786C26.0277 34.6141 30.7066 36.0597 30.7105 36.062L25.1941 39.4786Z" fill="#F7AB20"/>
<path d="M36.4141 27.4521H35.8516V43.9508H36.4141V27.4521Z" fill="#986904"/>
<path d="M36.1288 27.8607C36.1288 27.8607 33.8259 26.1986 36.1659 23.9092C36.1659 23.9092 38.4075 25.8852 36.1288 27.8607Z" fill="#DF961A"/>
<path d="M33.4053 27.335C33.3307 27.335 33.2592 27.3053 33.2064 27.2526C33.1537 27.1998 33.124 27.1283 33.124 27.0537V24.3818C33.124 24.3072 33.1537 24.2357 33.2064 24.183C33.2592 24.1302 33.3307 24.1006 33.4053 24.1006C33.4799 24.1006 33.5514 24.1302 33.6042 24.183C33.6569 24.2357 33.6865 24.3072 33.6865 24.3818V27.0537C33.6865 27.1283 33.6569 27.1998 33.6042 27.2526C33.5514 27.3053 33.4799 27.335 33.4053 27.335Z" fill="#D38C16"/>
<path d="M36.0344 23.416C35.9598 23.416 35.8883 23.3864 35.8355 23.3337C35.7828 23.2809 35.7532 23.2094 35.7532 23.1348V20.4629C35.7532 20.3883 35.7828 20.3168 35.8355 20.264C35.8883 20.2113 35.9598 20.1816 36.0344 20.1816C36.109 20.1816 36.1806 20.2113 36.2333 20.264C36.2861 20.3168 36.3157 20.3883 36.3157 20.4629V23.1348C36.3157 23.2094 36.2861 23.2809 36.2333 23.3337C36.1806 23.3864 36.109 23.416 36.0344 23.416Z" fill="#D38C16"/>
<path d="M38.6799 27.335C38.6053 27.335 38.5338 27.3053 38.481 27.2526C38.4283 27.1998 38.3987 27.1283 38.3987 27.0537V24.3818C38.3987 24.3072 38.4283 24.2357 38.481 24.183C38.5338 24.1302 38.6053 24.1006 38.6799 24.1006C38.7545 24.1006 38.8261 24.1302 38.8788 24.183C38.9316 24.2357 38.9612 24.3072 38.9612 24.3818V27.0537C38.9612 27.1283 38.9316 27.1998 38.8788 27.2526C38.8261 27.3053 38.7545 27.335 38.6799 27.335Z" fill="#D38C16"/>
<path d="M36.1387 27.8512C38.3977 25.8824 36.1679 23.9137 36.1651 23.9092L36.1387 27.8512Z" fill="#F7AB20"/>
<path d="M36.1332 30.4109C36.1332 30.4109 33.5148 31.5111 32.7791 28.3212C32.7791 28.3212 35.6332 27.437 36.1332 30.4109Z" fill="#DF961A"/>
<path d="M36.1304 30.3967C35.6242 27.4419 32.783 28.32 32.7791 28.3211L36.1304 30.3967Z" fill="#F7AB20"/>
<path d="M36.1738 30.4109C36.1738 30.4109 38.7923 31.5111 39.528 28.3212C39.528 28.3212 36.6739 27.437 36.1738 30.4109Z" fill="#DF961A"/>
<path d="M36.1738 30.3967C36.6801 27.4419 39.5213 28.32 39.5252 28.3211L36.1738 30.3967Z" fill="#F7AB20"/>
<path d="M36.155 32.948C36.155 32.948 33.5365 34.0483 32.8008 30.8583C32.8008 30.8583 35.6549 29.9741 36.155 32.948Z" fill="#DF961A"/>
<path d="M36.1522 32.9338C35.6459 29.979 32.8047 30.8571 32.8008 30.8582L36.1522 32.9338Z" fill="#F7AB20"/>
<path d="M36.1924 32.948C36.1924 32.948 38.8108 34.0483 39.5466 30.8583C39.5466 30.8583 36.6924 29.9741 36.1924 32.948Z" fill="#DF961A"/>
<path d="M36.1943 32.9338C36.7006 29.979 39.5418 30.8571 39.5457 30.8582L36.1943 32.9338Z" fill="#F7AB20"/>
<path d="M36.155 35.6814C36.155 35.6814 33.5365 36.7816 32.8008 33.5917C32.8008 33.5917 35.6549 32.7075 36.155 35.6814Z" fill="#DF961A"/>
<path d="M36.1522 35.6663C35.6459 32.7115 32.8047 33.5895 32.8008 33.5906L36.1522 35.6663Z" fill="#F7AB20"/>
<path d="M36.1924 35.6814C36.1924 35.6814 38.8108 36.7816 39.5466 33.5917C39.5466 33.5917 36.6924 32.7075 36.1924 35.6814Z" fill="#DF961A"/>
<path d="M36.1943 35.6663C36.7006 32.7115 39.5418 33.5895 39.5457 33.5906L36.1943 35.6663Z" fill="#F7AB20"/>
<path d="M36.1332 38.531C36.1332 38.531 33.5148 39.6313 32.7791 36.4413C32.7791 36.4413 35.6332 35.5571 36.1332 38.531Z" fill="#DF961A"/>
<path d="M36.1304 38.5168C35.6242 35.562 32.783 36.4401 32.7791 36.4412L36.1304 38.5168Z" fill="#F7AB20"/>
<path d="M36.1738 38.531C36.1738 38.531 38.7923 39.6313 39.528 36.4413C39.528 36.4413 36.6739 35.5571 36.1738 38.531Z" fill="#DF961A"/>
<path d="M36.1738 38.5168C36.6801 35.562 39.5213 36.4401 39.5252 36.4412L36.1738 38.5168Z" fill="#F7AB20"/>
<path d="M36.112 41.2253C36.112 41.2253 33.4936 42.3256 32.7578 39.1357C32.7578 39.1357 35.6119 38.2514 36.112 41.2253Z" fill="#DF961A"/>
<path d="M36.1092 41.2112C35.6029 38.2564 32.7618 39.1344 32.7578 39.1356L36.1092 41.2112Z" fill="#F7AB20"/>
<path d="M36.1494 41.2253C36.1494 41.2253 38.7679 42.3256 39.5036 39.1357C39.5036 39.1357 36.6495 38.2514 36.1494 41.2253Z" fill="#DF961A"/>
<path d="M36.1523 41.2112C36.6586 38.2564 39.4998 39.1344 39.5037 39.1356L36.1523 41.2112Z" fill="#F7AB20"/>
</svg>
