<svg width="32" height="32" viewBox="0 0 32 32" fill="none" xmlns="http://www.w3.org/2000/svg">
<circle cx="16" cy="16" r="16" fill="#FFE3AE"/>
<path d="M16.0003 20.3618C18.3757 20.3618 20.3013 18.4362 20.3013 16.0608C20.3013 13.6854 18.3757 11.7598 16.0003 11.7598C13.6249 11.7598 11.6992 13.6854 11.6992 16.0608C11.6992 18.4362 13.6249 20.3618 16.0003 20.3618Z" fill="#AC660C"/>
<path d="M16 10.7721C15.8342 10.7721 15.6753 10.7062 15.5581 10.589C15.4409 10.4718 15.375 10.3129 15.375 10.1471V7.96387C15.375 7.79811 15.4409 7.63918 15.5581 7.52197C15.6753 7.40476 15.8342 7.33887 16 7.33887C16.1658 7.33887 16.3247 7.40476 16.4419 7.52197C16.5591 7.63918 16.625 7.79811 16.625 7.96387V10.1471C16.625 10.3129 16.5591 10.4718 16.4419 10.589C16.3247 10.7062 16.1658 10.7721 16 10.7721Z" fill="#AC660C"/>
<path d="M16 24.6608C15.8342 24.6608 15.6753 24.5949 15.5581 24.4777C15.4409 24.3605 15.375 24.2015 15.375 24.0358V21.8525C15.375 21.6868 15.4409 21.5279 15.5581 21.4106C15.6753 21.2934 15.8342 21.2275 16 21.2275C16.1658 21.2275 16.3247 21.2934 16.4419 21.4106C16.5591 21.5279 16.625 21.6868 16.625 21.8525V24.0358C16.625 24.2015 16.5591 24.3605 16.4419 24.4777C16.3247 24.5949 16.1658 24.6608 16 24.6608Z" fill="#AC660C"/>
<path d="M10.148 16.625H7.96484C7.79908 16.625 7.64016 16.5591 7.52295 16.4419C7.40574 16.3247 7.33984 16.1658 7.33984 16C7.33984 15.8342 7.40574 15.6753 7.52295 15.5581C7.64016 15.4409 7.79908 15.375 7.96484 15.375H10.148C10.3137 15.375 10.4728 15.4409 10.59 15.5581C10.7072 15.6753 10.773 15.8342 10.773 16C10.773 16.1658 10.7072 16.3247 10.59 16.4419C10.4728 16.5591 10.3137 16.625 10.148 16.625Z" fill="#AC660C"/>
<path d="M24.0347 16.625H21.8516C21.6858 16.625 21.5268 16.5591 21.4096 16.4419C21.2924 16.3247 21.2266 16.1658 21.2266 16C21.2266 15.8342 21.2924 15.6753 21.4096 15.5581C21.5268 15.4409 21.6858 15.375 21.8516 15.375H24.0347C24.2004 15.375 24.3594 15.4409 24.4766 15.5581C24.5938 15.6753 24.6597 15.8342 24.6597 16C24.6597 16.1658 24.5938 16.3247 24.4766 16.4419C24.3594 16.5591 24.2004 16.625 24.0347 16.625Z" fill="#AC660C"/>
<path d="M10.3204 22.3074C10.1968 22.3074 10.0759 22.2707 9.97312 22.202C9.87033 22.1334 9.79023 22.0359 9.74291 21.9217C9.69559 21.8075 9.68321 21.6818 9.70731 21.5606C9.73141 21.4393 9.79091 21.3279 9.87831 21.2405L11.4221 19.6967C11.5396 19.5811 11.698 19.5164 11.8629 19.5171C12.0277 19.5177 12.1857 19.5836 12.3023 19.7002C12.4189 19.8168 12.4847 19.9748 12.4854 20.1397C12.4861 20.3045 12.4216 20.463 12.306 20.5805L10.7623 22.1243C10.7043 22.1824 10.6354 22.2284 10.5596 22.2598C10.4837 22.2912 10.4025 22.3075 10.3204 22.3074Z" fill="#AC660C"/>
<path d="M20.1405 12.4862C20.0169 12.4861 19.8961 12.4495 19.7934 12.3808C19.6906 12.3121 19.6104 12.2146 19.5631 12.1004C19.5159 11.9862 19.5035 11.8605 19.5276 11.7393C19.5517 11.6181 19.6113 11.5067 19.6986 11.4193L21.2423 9.87528C21.3004 9.81724 21.3693 9.7712 21.4452 9.73979C21.521 9.70837 21.6022 9.69238 21.6843 9.69238C21.7664 9.69238 21.8477 9.70837 21.9236 9.73979C21.9994 9.7712 22.0683 9.81724 22.1263 9.87528C22.1844 9.93333 22.2304 10.0023 22.2618 10.0781C22.2932 10.154 22.3094 10.2353 22.3094 10.3174C22.3094 10.3995 22.2932 10.4808 22.2618 10.5566C22.2304 10.6325 22.1844 10.7012 22.1263 10.7593L20.5825 12.3031C20.5245 12.3612 20.4557 12.4073 20.3798 12.4388C20.3039 12.4702 20.2227 12.4863 20.1405 12.4862Z" fill="#AC660C"/>
<path d="M21.6806 22.3074C21.5986 22.3075 21.5173 22.2912 21.4415 22.2598C21.3657 22.2284 21.2967 22.1824 21.2388 22.1243L19.6951 20.5805C19.5795 20.463 19.5149 20.3045 19.5156 20.1397C19.5163 19.9748 19.5821 19.8168 19.6987 19.7002C19.8153 19.5836 19.9733 19.5177 20.1382 19.5171C20.3031 19.5164 20.4614 19.5811 20.579 19.6967L22.1227 21.2405C22.2101 21.3279 22.2696 21.4393 22.2937 21.5606C22.3178 21.6818 22.3055 21.8075 22.2581 21.9217C22.2108 22.0359 22.1307 22.1334 22.0279 22.202C21.9252 22.2707 21.8043 22.3074 21.6806 22.3074Z" fill="#AC660C"/>
<path d="M11.8642 12.4862C11.7821 12.4863 11.7008 12.4702 11.6249 12.4388C11.5491 12.4073 11.4802 12.3612 11.4222 12.3031L9.87842 10.7593C9.7612 10.6421 9.69531 10.4832 9.69531 10.3174C9.69531 10.1516 9.7612 9.9925 9.87842 9.87528C9.99564 9.75806 10.1546 9.69238 10.3204 9.69238C10.4862 9.69238 10.6452 9.75806 10.7624 9.87528L12.3061 11.4193C12.3935 11.5067 12.453 11.6181 12.4771 11.7393C12.5012 11.8605 12.4889 11.9862 12.4416 12.1004C12.3943 12.2146 12.3141 12.3121 12.2114 12.3808C12.1086 12.4495 11.9878 12.4861 11.8642 12.4862Z" fill="#AC660C"/>
</svg>
