<svg width="32" height="32" viewBox="0 0 32 32" fill="none" xmlns="http://www.w3.org/2000/svg">
<circle cx="16" cy="16" r="16" fill="#FFE3AE"/>
<path d="M22.3635 7.99742H20.6488V7.41757C20.6488 7.25192 20.5829 7.09304 20.4657 6.97591C20.3485 6.85877 20.1895 6.79297 20.0238 6.79297C19.858 6.79297 19.699 6.85877 19.5818 6.97591C19.4646 7.09304 19.3988 7.25192 19.3988 7.41757V7.99742H12.5979V7.41757C12.5979 7.25192 12.5321 7.09304 12.4149 6.97591C12.2977 6.85877 12.1387 6.79297 11.9729 6.79297C11.8072 6.79297 11.6482 6.85877 11.531 6.97591C11.4138 7.09304 11.3479 7.25192 11.3479 7.41757V7.99742H9.63314C9.09867 7.99198 8.58385 8.19855 8.20156 8.57186C7.81926 8.94517 7.60067 9.45474 7.59375 9.98886V22.2905C7.60067 22.8246 7.81926 23.3342 8.20156 23.7075C8.58385 24.0808 9.09867 24.2873 9.63314 24.2819H22.3635C22.898 24.2873 23.4128 24.0808 23.7951 23.7075C24.1774 23.3342 24.396 22.8246 24.4029 22.2905V9.98886C24.396 9.45474 24.1774 8.94517 23.7951 8.57186C23.4128 8.19855 22.898 7.99198 22.3635 7.99742ZM17.0269 20.7344C17.0269 20.9 16.961 21.0589 16.8438 21.176C16.7266 21.2931 16.5676 21.359 16.4019 21.359C16.2361 21.359 16.0772 21.2931 15.9599 21.176C15.8427 21.0589 15.7769 20.9 15.7769 20.7344V16.9634L14.9059 17.6296C14.7741 17.7274 14.6091 17.7695 14.4466 17.7468C14.284 17.724 14.137 17.6383 14.0371 17.5081C13.9373 17.3779 13.8927 17.2137 13.913 17.0509C13.9333 16.8882 14.0169 16.7399 14.1456 16.6382L16.0219 15.2016C16.0267 15.1981 16.0321 15.196 16.0369 15.1924C16.0558 15.1792 16.0755 15.167 16.0958 15.156C16.1119 15.147 16.1275 15.1375 16.1442 15.1298C16.1633 15.1218 16.1829 15.1149 16.2027 15.109C16.2217 15.1019 16.241 15.0959 16.2606 15.0908C16.2792 15.0867 16.2979 15.0846 16.3169 15.0821C16.339 15.0785 16.3614 15.0763 16.3838 15.0752C16.39 15.0752 16.3958 15.0734 16.4019 15.0734C16.4152 15.0734 16.4275 15.0765 16.4404 15.0773C16.4623 15.0784 16.484 15.0806 16.5056 15.084C16.5265 15.0873 16.5452 15.0923 16.5646 15.0975C16.584 15.1027 16.6031 15.1081 16.6221 15.1152C16.641 15.1223 16.6596 15.1312 16.6779 15.1404C16.696 15.1489 16.7135 15.1584 16.7306 15.1687C16.7479 15.1798 16.7647 15.1917 16.7809 15.2045C16.7965 15.2164 16.8117 15.2282 16.8263 15.2418C16.8427 15.2574 16.8581 15.274 16.8727 15.2913C16.8808 15.3007 16.8904 15.3082 16.8979 15.3182C16.9017 15.3228 16.9038 15.3282 16.9071 15.333C16.9205 15.3521 16.9328 15.372 16.944 15.3925C16.9529 15.4083 16.9623 15.4238 16.9698 15.44C16.9786 15.4594 16.985 15.4795 16.9919 15.4997C16.9988 15.5199 17.005 15.5374 17.0096 15.5566C17.0142 15.5758 17.0158 15.5945 17.0183 15.6136C17.0219 15.6355 17.0241 15.6575 17.0252 15.6796C17.0252 15.6859 17.0269 15.6917 17.0269 15.698V20.7344ZM23.1529 12.1036H8.84375V9.98886C8.85034 9.78595 8.9371 9.59392 9.08504 9.45481C9.23299 9.3157 9.43008 9.24085 9.63314 9.24663H11.3479V9.82645C11.3479 9.99211 11.4138 10.151 11.531 10.2681C11.6482 10.3853 11.8072 10.4511 11.9729 10.4511C12.1387 10.4511 12.2977 10.3853 12.4149 10.2681C12.5321 10.151 12.5979 9.99211 12.5979 9.82645V9.24663H19.3988V9.82645C19.3988 9.99211 19.4646 10.151 19.5818 10.2681C19.699 10.3853 19.858 10.4511 20.0238 10.4511C20.1895 10.4511 20.3485 10.3853 20.4657 10.2681C20.5829 10.151 20.6488 9.99211 20.6488 9.82645V9.24663H22.3635C22.5666 9.24085 22.7637 9.3157 22.9116 9.45481C23.0596 9.59392 23.1463 9.78595 23.1529 9.98886V12.1036Z" fill="#AC660C"/>
</svg>
