<svg width="32" height="32" viewBox="0 0 32 32" fill="none" xmlns="http://www.w3.org/2000/svg">
<circle cx="16" cy="16" r="16" fill="#FFE3AE"/>
<path d="M24.0729 22.7266H7.92969C7.76393 22.7266 7.605 22.6607 7.48779 22.5435C7.37058 22.4262 7.30469 22.2673 7.30469 22.1016C7.30469 21.9358 7.37058 21.7768 7.48779 21.6596C7.605 21.5424 7.76393 21.4766 7.92969 21.4766H24.0729C24.2386 21.4766 24.3976 21.5424 24.5148 21.6596C24.632 21.7768 24.6979 21.9358 24.6979 22.1016C24.6979 22.2673 24.632 22.4262 24.5148 22.5435C24.3976 22.6607 24.2386 22.7266 24.0729 22.7266Z" fill="#AC660C"/>
<path d="M9.39069 24.3305C9.26708 24.3306 9.14629 24.2939 9.0435 24.2253C8.94072 24.1566 8.86062 24.059 8.8133 23.9448C8.76598 23.8306 8.7535 23.7049 8.77759 23.5837C8.80169 23.4624 8.8612 23.3511 8.94859 23.2637L10.291 21.9214C10.4082 21.8042 10.5672 21.7383 10.733 21.7383C10.8987 21.7383 11.0576 21.8042 11.1749 21.9214C11.2921 22.0386 11.358 22.1975 11.358 22.3633C11.358 22.5291 11.2921 22.6881 11.1749 22.8053L9.83259 24.1476C9.77459 24.2057 9.70567 24.2518 9.62985 24.2831C9.55402 24.3145 9.47276 24.3306 9.39069 24.3305Z" fill="#AC660C"/>
<path d="M12.3048 24.3305C12.1811 24.3306 12.0604 24.2939 11.9576 24.2253C11.8548 24.1566 11.7747 24.059 11.7274 23.9448C11.68 23.8306 11.6676 23.7049 11.6917 23.5837C11.7158 23.4624 11.7753 23.3511 11.8627 23.2637L13.205 21.9214C13.3222 21.8042 13.4812 21.7383 13.647 21.7383C13.8128 21.7383 13.9717 21.8042 14.0889 21.9214C14.2061 22.0386 14.272 22.1975 14.272 22.3633C14.272 22.5291 14.2061 22.6881 14.0889 22.8053L12.7466 24.1476C12.6887 24.2057 12.6197 24.2518 12.5439 24.2831C12.4681 24.3145 12.3868 24.3306 12.3048 24.3305Z" fill="#AC660C"/>
<path d="M15.2188 24.3305C15.0952 24.3306 14.9744 24.2939 14.8716 24.2253C14.7688 24.1566 14.6887 24.059 14.6414 23.9448C14.5941 23.8306 14.5816 23.7049 14.6057 23.5837C14.6298 23.4624 14.6893 23.3511 14.7767 23.2637L16.1191 21.9214C16.2363 21.8042 16.3953 21.7383 16.5611 21.7383C16.7269 21.7383 16.8858 21.8042 17.003 21.9214C17.1202 22.0386 17.1861 22.1975 17.1861 22.3633C17.1861 22.5291 17.1202 22.6881 17.003 22.8053L15.6607 24.1476C15.6027 24.2057 15.5338 24.2518 15.458 24.2831C15.3821 24.3145 15.3009 24.3306 15.2188 24.3305Z" fill="#AC660C"/>
<path d="M18.1407 24.3305C18.0171 24.3306 17.8963 24.2939 17.7935 24.2253C17.6907 24.1566 17.6106 24.059 17.5633 23.9448C17.516 23.8306 17.5035 23.7049 17.5276 23.5837C17.5517 23.4624 17.6112 23.3511 17.6986 23.2637L19.041 21.9214C19.1582 21.8042 19.3172 21.7383 19.483 21.7383C19.6487 21.7383 19.8076 21.8042 19.9249 21.9214C20.0421 22.0386 20.108 22.1975 20.108 22.3633C20.108 22.5291 20.0421 22.6881 19.9249 22.8053L18.5826 24.1476C18.5246 24.2057 18.4557 24.2518 18.3798 24.2831C18.304 24.3145 18.2228 24.3306 18.1407 24.3305Z" fill="#AC660C"/>
<path d="M21.0548 24.3305C20.9311 24.3306 20.8104 24.2939 20.7076 24.2253C20.6048 24.1566 20.5247 24.059 20.4774 23.9448C20.43 23.8306 20.4176 23.7049 20.4417 23.5837C20.4658 23.4624 20.5253 23.3511 20.6127 23.2637L21.955 21.9214C22.0722 21.8042 22.2312 21.7383 22.397 21.7383C22.5628 21.7383 22.7217 21.8042 22.8389 21.9214C22.9561 22.0386 23.022 22.1975 23.022 22.3633C23.022 22.5291 22.9561 22.6881 22.8389 22.8053L21.4966 24.1476C21.4387 24.2057 21.3697 24.2518 21.2939 24.2831C21.2181 24.3145 21.1368 24.3306 21.0548 24.3305Z" fill="#AC660C"/>
<path d="M16.7417 8.62399C16.6542 8.52082 16.5453 8.43779 16.4226 8.38067C16.2999 8.32354 16.1664 8.29359 16.0311 8.29298C15.8958 8.29236 15.762 8.32109 15.6388 8.37711C15.5156 8.43312 15.406 8.5151 15.3176 8.61748C14.114 10.0108 11.8046 13.0804 11.6748 16.2385C11.6704 16.3177 11.668 16.3971 11.668 16.4773C11.668 17.6352 12.1279 18.7457 12.9467 19.5644C13.7654 20.3832 14.8759 20.8431 16.0338 20.8431C17.1917 20.8431 18.3021 20.3832 19.1209 19.5644C19.9396 18.7457 20.3997 17.6352 20.3997 16.4773C20.3997 13.3285 17.978 10.0777 16.7417 8.62399ZM14.9256 18.0104C14.8679 18.068 14.7993 18.1136 14.7239 18.1447C14.6485 18.1757 14.5676 18.1915 14.4861 18.1913C14.4027 18.1914 14.3202 18.1751 14.2431 18.1432C14.1661 18.1114 14.0961 18.0647 14.0371 18.0058C13.6576 17.6262 13.1567 16.6185 13.979 15.5223C14.0282 15.4566 14.0899 15.4013 14.1605 15.3595C14.2312 15.3177 14.3094 15.2902 14.3906 15.2786C14.4719 15.2669 14.5546 15.2715 14.6341 15.2919C14.7136 15.3122 14.7883 15.348 14.854 15.3973C14.9197 15.4465 14.9749 15.5082 15.0168 15.5788C15.0586 15.6495 15.0861 15.7277 15.0977 15.8089C15.1093 15.8902 15.1048 15.9729 15.0844 16.0524C15.064 16.1319 15.0283 16.2066 14.979 16.2723C14.6401 16.7244 14.8319 17.0238 14.93 17.1315C14.9876 17.1893 15.0333 17.258 15.0643 17.3335C15.0953 17.409 15.111 17.4899 15.1106 17.5715C15.1101 17.6532 15.0936 17.734 15.0618 17.8092C15.0301 17.8844 14.9838 17.9525 14.9256 18.0098V18.0104Z" fill="#AC660C"/>
</svg>
