<svg width="32" height="32" viewBox="0 0 32 32" fill="none" xmlns="http://www.w3.org/2000/svg">
<circle cx="16" cy="16" r="16" fill="#FFE3AE"/>
<path d="M22.148 22.62C21.5275 22.6195 20.9226 22.4265 20.4164 22.0677L19.9711 21.7531C19.6813 21.5504 19.3373 21.4393 18.9837 21.4343C18.6302 21.4292 18.2832 21.5304 17.9878 21.7247L17.5946 21.986C17.1134 22.3047 16.5507 22.4783 15.9737 22.4863C15.3966 22.4943 14.8295 22.3362 14.3398 22.031L13.8641 21.7337C13.5765 21.5541 13.243 21.4616 12.904 21.4674C12.565 21.4733 12.2349 21.5772 11.9537 21.7666C11.437 22.1142 10.8253 22.2928 10.2028 22.2779C9.58029 22.263 8.97776 22.0552 8.47834 21.6833L7.65681 21.0706C7.58975 21.022 7.5331 20.9606 7.48998 20.8899C7.44687 20.8192 7.41805 20.7406 7.40555 20.6588C7.39305 20.5769 7.39709 20.4934 7.41715 20.413C7.43721 20.3327 7.47302 20.2571 7.52253 20.1908C7.57204 20.1244 7.63415 20.0685 7.70544 20.0264C7.77673 19.9843 7.85575 19.9567 7.93778 19.9454C8.0198 19.934 8.10329 19.9391 8.18334 19.9602C8.2634 19.9814 8.3384 20.0183 8.40409 20.0687L9.22562 20.6814C9.51723 20.8985 9.86903 21.0198 10.2325 21.0285C10.596 21.0371 10.953 20.9327 11.2546 20.7297C11.7363 20.4058 12.3015 20.2281 12.8818 20.2181C13.4622 20.2082 14.033 20.3663 14.5255 20.6735L15.0012 20.9708C15.2872 21.1491 15.6184 21.2414 15.9554 21.2367C16.2923 21.2321 16.6209 21.1307 16.9018 20.9445L17.2951 20.6833C17.8009 20.3504 18.3951 20.1771 19.0006 20.1858C19.6061 20.1945 20.1948 20.3848 20.6909 20.732L21.1362 21.0464C21.3994 21.2331 21.7089 21.3434 22.0308 21.365C22.3527 21.3866 22.6745 21.3186 22.9602 21.1687L23.6779 20.7937C23.7508 20.7539 23.8309 20.729 23.9135 20.7205C23.9962 20.712 24.0796 20.7201 24.1591 20.7443C24.2386 20.7684 24.3126 20.8082 24.3766 20.8612C24.4405 20.9143 24.4932 20.9796 24.5316 21.0532C24.57 21.1269 24.5933 21.2075 24.6002 21.2903C24.6071 21.3731 24.5976 21.4564 24.5719 21.5354C24.5462 21.6144 24.5049 21.6875 24.4506 21.7504C24.3964 21.8134 24.3301 21.8648 24.2557 21.9018L23.5386 22.2768C23.1095 22.5015 22.6323 22.6193 22.148 22.62Z" fill="#7F4B10"/>
<path d="M22.1479 24.7048C21.5274 24.7044 20.9224 24.5114 20.4163 24.1525L19.9709 23.838C19.6812 23.6353 19.3371 23.5242 18.9836 23.5192C18.63 23.5141 18.2831 23.6153 17.9877 23.8096L17.5944 24.0709C17.1133 24.3896 16.5506 24.5633 15.9735 24.5713C15.3965 24.5792 14.8294 24.4212 14.3396 24.1159L13.864 23.8186C13.58 23.6414 13.2513 23.549 12.9167 23.5523C12.582 23.5556 12.2553 23.6544 11.9749 23.8371C11.4686 24.2435 10.837 24.4614 10.1878 24.4538C9.53865 24.4462 8.91222 24.2135 8.41555 23.7955L7.6282 23.1325C7.56403 23.0801 7.51091 23.0155 7.47195 22.9424C7.43298 22.8693 7.40887 22.7892 7.40115 22.7067C7.39343 22.6242 7.40226 22.541 7.42698 22.4619C7.45171 22.3829 7.49186 22.3095 7.54519 22.2461C7.59852 22.1827 7.66398 22.1305 7.73765 22.0927C7.81132 22.0548 7.89168 22.0319 7.97427 22.0254C8.05685 22.0189 8.13991 22.0288 8.21861 22.0547C8.29731 22.0806 8.37003 22.1218 8.43264 22.1761L9.2204 22.839C9.49807 23.0727 9.8489 23.2018 10.2118 23.2038C10.5747 23.2058 10.9268 23.0806 11.2071 22.85L11.2547 22.8144C11.7363 22.4905 12.3015 22.3128 12.8819 22.3028C13.4623 22.2928 14.0331 22.451 14.5256 22.7582L15.0012 23.0555C15.2872 23.2337 15.6185 23.3261 15.9554 23.3214C16.2924 23.3168 16.6209 23.2153 16.9019 23.0292L17.2951 22.768C17.801 22.4352 18.3952 22.2619 19.0007 22.2706C19.6061 22.2793 20.1951 22.4695 20.6911 22.8167L21.1363 23.1311C21.3994 23.3178 21.7091 23.4281 22.0311 23.4496C22.353 23.4712 22.6745 23.4033 22.9602 23.2534L23.678 22.8784C23.7509 22.8385 23.8309 22.8137 23.9136 22.8052C23.9962 22.7967 24.0797 22.8048 24.1592 22.8289C24.2387 22.8531 24.3127 22.8929 24.3766 22.9459C24.4406 22.999 24.4933 23.0642 24.5317 23.1379C24.5701 23.2116 24.5933 23.2921 24.6002 23.3749C24.6071 23.4577 24.5976 23.5411 24.572 23.6201C24.5463 23.6991 24.505 23.7722 24.4507 23.8351C24.3964 23.898 24.3302 23.9495 24.2558 23.9865L23.5386 24.3615C23.1095 24.5863 22.6323 24.7041 22.1479 24.7048Z" fill="#7F4B10"/>
<path d="M23.4204 14.2952L22.7506 14.401C22.0521 14.4954 21.3884 14.764 20.8209 15.182V13.8237C21.6429 13.5163 22.3466 12.9568 22.8314 12.2253C23.3161 11.4937 23.5571 10.6276 23.5198 9.7508L23.4698 9.07227L22.7976 9.17997C21.4566 9.39518 20.6689 10.0216 20.2103 10.6216C19.7459 10.0214 18.9474 9.39456 17.5874 9.17976L16.9177 9.07393L16.8666 9.75018C16.8316 10.6256 17.0743 11.4898 17.56 12.219C18.0456 12.9483 18.7493 13.5053 19.5707 13.8104V15.1775C19.0046 14.7621 18.3435 14.4951 17.6477 14.401L16.9779 14.2952L16.927 14.9714C16.8927 15.8273 17.1299 16.6721 17.6047 17.385C18.0796 18.0979 18.7677 18.6423 19.5707 18.9404V21.1641C19.5707 21.3299 19.6366 21.4889 19.7538 21.6061C19.871 21.7233 20.0299 21.7891 20.1957 21.7891C20.3614 21.7891 20.5206 21.7233 20.6378 21.6061C20.755 21.4889 20.8207 21.3299 20.8207 21.1641V18.9431C21.6253 18.6459 22.3151 18.1015 22.7913 17.388C23.2674 16.6745 23.5055 15.8285 23.4712 14.9714L23.4204 14.2952Z" fill="#7F4B10"/>
<path d="M15.1376 12.8051L14.468 12.911C13.7504 13.0073 13.0692 13.285 12.4888 13.7179V12.3647C13.3108 12.0573 14.0146 11.4978 14.4993 10.7663C14.9841 10.0347 15.2251 9.16861 15.1878 8.29181L15.1376 7.61328L14.4656 7.72098C13.1245 7.93619 12.3368 8.56265 11.8783 9.16265C11.4139 8.56244 10.6154 7.93557 9.2554 7.72078L8.58564 7.61495L8.53457 8.29119C8.49954 9.16666 8.74225 10.0308 9.22793 10.76C9.71362 11.4893 10.4173 12.0463 11.2386 12.3514V13.7133C10.6598 13.2832 9.98126 13.0072 9.26659 12.911L8.59683 12.8051L8.54576 13.4814C8.51084 14.3521 8.75267 15.2114 9.23648 15.9361C9.72028 16.6608 10.4211 17.2136 11.2386 17.5152V20.7468C11.2386 20.9126 11.3045 21.0715 11.4217 21.1888C11.5389 21.306 11.6979 21.3718 11.8636 21.3718C12.0294 21.3718 12.1885 21.306 12.3057 21.1888C12.4229 21.0715 12.4886 20.9126 12.4886 20.7468V17.5176C13.3077 17.2169 14.0103 16.6641 14.4953 15.9388C14.9802 15.2135 15.2226 14.353 15.1876 13.4812L15.1376 12.8051Z" fill="#7F4B10"/>
</svg>
