<svg width="40" height="40" viewBox="0 0 40 40" fill="none" xmlns="http://www.w3.org/2000/svg">
<path d="M34.2493 19.7167L34.3659 19.6C34.457 19.531 34.5408 19.4528 34.6159 19.3667L34.7826 19.1167C34.8287 19.0196 34.8676 18.9193 34.8993 18.8167C34.9087 18.7058 34.9087 18.5942 34.8993 18.4833L34.9993 18.3333V8.33333C34.9993 7.89131 34.8237 7.46738 34.5111 7.15482C34.1985 6.84226 33.7746 6.66667 33.3326 6.66667C32.8906 6.66667 32.4666 6.84226 32.1541 7.15482C31.8415 7.46738 31.6659 7.89131 31.6659 8.33333V10.7667L29.9993 11.8833V6.66667C29.9993 6.22464 29.8237 5.80072 29.5111 5.48816C29.1985 5.17559 28.7746 5 28.3326 5C27.8906 5 27.4666 5.17559 27.1541 5.48816C26.8415 5.80072 26.6659 6.22464 26.6659 6.66667V11.8833L24.9993 10.7667V8.33333C24.9993 7.89131 24.8237 7.46738 24.5111 7.15482C24.1985 6.84226 23.7746 6.66667 23.3326 6.66667C22.8906 6.66667 22.4666 6.84226 22.1541 7.15482C21.8415 7.46738 21.6659 7.89131 21.6659 8.33333V18.3333C21.6659 18.3333 21.6659 18.4333 21.6659 18.4833C21.6565 18.5942 21.6565 18.7058 21.6659 18.8167C21.6976 18.9193 21.7365 19.0196 21.7826 19.1167C21.8323 19.2038 21.888 19.2873 21.9493 19.3667C22.0244 19.4528 22.1081 19.531 22.1993 19.6L22.3159 19.7167L26.6659 22.5667V28.3333C25.8834 28.2621 25.1207 28.0474 24.4159 27.7C23.0497 27.0015 21.5336 26.6468 19.9993 26.6667C18.4635 26.6292 16.9418 26.9668 15.5659 27.65C14.8704 28.0146 14.113 28.2464 13.3326 28.3333V24.2333L17.5826 21.3833L17.6993 21.2667C17.7904 21.1977 17.8742 21.1195 17.9493 21.0333C18.0105 20.954 18.0662 20.8704 18.1159 20.7833C18.162 20.6863 18.201 20.586 18.2326 20.4833C18.242 20.3724 18.242 20.2609 18.2326 20.15L18.3326 20V10C18.3326 9.55797 18.157 9.13405 17.8444 8.82149C17.5319 8.50893 17.108 8.33333 16.6659 8.33333C16.2239 8.33333 15.8 8.50893 15.4874 8.82149C15.1749 9.13405 14.9993 9.55797 14.9993 10V12.4333L13.3326 13.55V8.33333C13.3326 7.89131 13.157 7.46738 12.8444 7.15482C12.5319 6.84226 12.108 6.66667 11.6659 6.66667C11.2239 6.66667 10.8 6.84226 10.4874 7.15482C10.1749 7.46738 9.99926 7.89131 9.99926 8.33333V13.55L8.3326 12.4333V10C8.3326 9.55797 8.157 9.13405 7.84444 8.82149C7.53188 8.50893 7.10796 8.33333 6.66593 8.33333C6.2239 8.33333 5.79998 8.50893 5.48742 8.82149C5.17486 9.13405 4.99926 9.55797 4.99926 10V20C4.99926 20 4.99926 20.1 4.99926 20.15C4.98983 20.2609 4.98983 20.3724 4.99926 20.4833C5.03088 20.586 5.06987 20.6863 5.11593 20.7833L5.2826 21.0333C5.35771 21.1195 5.44148 21.1977 5.5326 21.2667L5.64926 21.3833L9.99926 24.2333V27.9L9.3826 27.65C8.61441 27.2815 7.80228 27.0126 6.96593 26.85C6.72639 26.8049 6.47987 26.8128 6.24374 26.8733C6.0076 26.9337 5.78761 27.0453 5.59926 27.2C5.41112 27.3567 5.25982 27.5529 5.15612 27.7747C5.05242 27.9965 4.99886 28.2385 4.99926 28.4833V33.3333C4.99926 33.7754 5.17486 34.1993 5.48742 34.5118C5.79998 34.8244 6.2239 35 6.66593 35H33.3326C33.7746 35 34.1985 34.8244 34.5111 34.5118C34.8237 34.1993 34.9993 33.7754 34.9993 33.3333V28.4833C34.9997 28.2385 34.9461 27.9965 34.8424 27.7747C34.7387 27.5529 34.5874 27.3567 34.3993 27.2C34.2109 27.0453 33.9909 26.9337 33.7548 26.8733C33.5187 26.8128 33.2721 26.8049 33.0326 26.85C32.1909 27.0127 31.3733 27.2815 30.5993 27.65L29.9993 27.9V22.5667L34.2493 19.7167ZM29.9993 15.9L31.6659 14.7833V17.4333L29.9993 18.55V15.9ZM13.3326 17.5667L14.9993 16.45V19.1L13.3326 20.2167V17.5667ZM9.99926 20.2167L8.3326 19.1V16.45L9.99926 17.5667V20.2167ZM26.6659 18.55L24.9993 17.4333V14.7833L26.6659 15.9V18.55Z" fill="#03753C"/>
</svg>
