<svg width="32" height="32" viewBox="0 0 32 32" fill="none" xmlns="http://www.w3.org/2000/svg">
<circle cx="16" cy="16" r="16" fill="#FFE3AE"/>
<path d="M22.3448 14.8427H21.6919C21.6437 13.3653 21.023 11.9644 19.9608 10.9363C18.8987 9.90817 17.4783 9.3335 16.0001 9.3335C14.5219 9.3335 13.1015 9.90817 12.0394 10.9363C10.9772 11.9644 10.3565 13.3653 10.3083 14.8427H9.6552C9.01752 14.8434 8.40617 15.0972 7.95526 15.5481C7.50435 15.999 7.25072 16.6102 7.25 17.2479V20.1046C7.25072 20.7423 7.50435 21.3537 7.95526 21.8046C8.40617 22.2555 9.01752 22.509 9.6552 22.5098H10.9285C11.0943 22.5098 11.2533 22.4441 11.3705 22.3269C11.4877 22.2097 11.5535 22.0505 11.5535 21.8848V15.0307C11.5616 13.8567 12.0336 12.7335 12.8666 11.9061C13.6996 11.0788 14.826 10.6144 16.0001 10.6144C17.1742 10.6144 18.3006 11.0788 19.1336 11.9061C19.9666 12.7335 20.4386 13.8567 20.4467 15.0307V21.8848C20.4467 22.0505 20.5125 22.2097 20.6297 22.3269C20.7469 22.4441 20.9059 22.5098 21.0717 22.5098H22.3448C22.9825 22.509 23.5938 22.2555 24.0447 21.8046C24.4956 21.3537 24.7493 20.7423 24.75 20.1046V17.2479C24.7493 16.6102 24.4956 15.999 24.0447 15.5481C23.5938 15.0972 22.9825 14.8434 22.3448 14.8427Z" fill="#7F4B10"/>
</svg>
