<svg width="40" height="40" viewBox="0 0 40 40" fill="none" xmlns="http://www.w3.org/2000/svg">
<path d="M37.2775 34.3041C37.1249 34.0116 36.8625 33.7917 36.5478 33.6927C36.2331 33.5937 35.892 33.6238 35.5995 33.7763L34.171 34.5226C33.6022 34.8206 32.9623 34.9556 32.3217 34.9126C31.6811 34.8697 31.0648 34.6505 30.5409 34.2792L29.6549 33.6535C28.8688 33.1011 27.96 32.7475 27.0072 32.6232V30.0939C28.6087 29.5024 29.982 28.4188 30.9296 26.9987C31.8773 25.5786 32.3509 23.8948 32.2824 22.1889L32.1808 20.8435L30.8482 21.0541C29.4579 21.2417 28.1368 21.7762 27.0072 22.6082V19.9048C28.6431 19.293 30.0438 18.1796 31.0086 16.7237C31.9734 15.2678 32.453 13.5441 32.3788 11.7991L32.2796 10.4482L30.9418 10.6626C28.2724 11.0909 26.7047 12.3373 25.7921 13.5314C24.8678 12.3373 23.2786 11.0897 20.5719 10.6622L19.2389 10.452L19.1373 11.7975C19.0677 13.5398 19.5506 15.2596 20.5172 16.7109C21.4838 18.1622 22.8844 19.2708 24.519 19.8782V22.599C23.3924 21.7722 22.0767 21.2411 20.6918 21.0541L19.3592 20.8435L19.2575 22.1889C19.1892 23.8924 19.6612 25.5738 20.6063 26.9927C21.5514 28.4116 22.9208 29.4952 24.519 30.0885V32.8069C23.9429 32.9737 23.3955 33.2271 22.8957 33.5586L22.113 34.0781C21.5539 34.4489 20.9001 34.651 20.2293 34.6604C19.5586 34.6697 18.8991 34.4858 18.3299 34.1308L17.3832 33.5391C16.4031 32.9275 15.267 32.6127 14.1119 32.6327C12.9568 32.6526 11.8318 33.0064 10.8734 33.6515L10.7025 33.7908C10.1818 34.2978 9.48524 34.5843 8.75852 34.5908C8.0318 34.5973 7.33085 34.3232 6.80116 33.8256L5.30824 32.425C5.19019 32.3076 5.05007 32.2151 4.89563 32.153C4.74118 32.0909 4.57577 32.0605 4.40933 32.0634C4.24289 32.0664 4.07881 32.1027 3.92667 32.1703C3.77453 32.2379 3.63718 32.3353 3.52337 32.4568C3.40957 32.5783 3.32131 32.7214 3.26382 32.8776C3.20634 33.0338 3.181 33.2 3.18891 33.3663C3.19683 33.5325 3.23792 33.6955 3.30998 33.8456C3.38204 33.9956 3.48358 34.1297 3.60841 34.2399L5.10092 35.6405C6.08087 36.5619 7.37452 37.0767 8.71964 37.0806C10.0648 37.0846 11.3612 36.5773 12.3465 35.6616C12.9028 35.3093 13.5473 35.1212 14.2058 35.1189C14.8644 35.1166 15.5101 35.3003 16.0688 35.6488L17.0151 36.2404C17.9899 36.848 19.1189 37.1625 20.2674 37.1466C21.4159 37.1306 22.5354 36.7848 23.493 36.1505L24.2757 35.6309C24.8635 35.244 25.554 35.0425 26.2577 35.0525C26.9614 35.0626 27.6462 35.2837 28.2228 35.6873L29.1091 36.3134C30.0059 36.9498 31.0614 37.3256 32.1585 37.3993C33.2557 37.4729 34.3517 37.2414 35.3254 36.7305L36.7527 35.9842C36.8975 35.9084 37.0261 35.8048 37.1309 35.6793C37.2356 35.5538 37.3146 35.4089 37.3633 35.2529C37.412 35.0968 37.4295 34.9327 37.4147 34.7699C37.4 34.6072 37.3534 34.4488 37.2775 34.3041Z" fill="#03753C"/>
<path d="M8.11879 32.4297C8.52713 32.614 8.96796 32.716 9.41573 32.73C9.86351 32.7439 10.3095 32.6695 10.7285 32.5109C11.1475 32.3524 11.5314 32.1129 11.8578 31.806C12.1842 31.4992 12.4467 31.1311 12.6308 30.7226L15.2736 24.8626C15.4092 24.562 15.4198 24.2199 15.3032 23.9115C15.1866 23.603 14.9522 23.3535 14.6517 23.2178L13.8921 22.8753L14.8331 20.7897C15.0025 20.4143 15.0193 19.9877 14.8801 19.6001C14.7408 19.2125 14.4565 18.8942 14.0868 18.7124C13.1923 18.2653 12.3994 17.6386 11.7578 16.8716C11.1161 16.1045 10.6392 15.2134 10.3572 14.254C10.0751 13.2946 9.99383 12.2873 10.1183 11.295C10.2427 10.3028 10.5705 9.34679 11.0807 8.4867C11.9588 7.06675 13.2886 5.9831 14.8566 5.40981C16.4246 4.83651 18.1396 4.80687 19.7265 5.32558C20.8543 5.71541 21.8685 6.37749 22.6791 7.25318C22.9053 7.48662 23.2138 7.62223 23.5388 7.63097C23.8637 7.6397 24.1794 7.52089 24.4178 7.29995C24.6563 7.079 24.7986 6.7735 24.8146 6.44882C24.8307 6.12414 24.7192 5.80605 24.5037 5.56271C23.4145 4.39316 22.0572 3.50611 20.5489 2.97794C18.4168 2.28144 16.1123 2.32165 14.0058 3.09218C11.8994 3.86271 10.1129 5.31883 8.93348 7.22666C8.24568 8.38177 7.80554 9.66715 7.64059 11.0014C7.47564 12.3356 7.58967 13.6895 7.97545 14.9774C8.66299 17.2839 10.1748 19.257 12.223 20.521L11.6225 21.8524L10.6989 21.4378C10.55 21.3706 10.3893 21.3333 10.226 21.3282C10.0627 21.323 9.89977 21.3501 9.74695 21.4079C9.59414 21.4656 9.45424 21.5529 9.33516 21.6648C9.21608 21.7766 9.12014 21.9108 9.05293 22.0597L6.41046 27.9193C6.03885 28.744 6.01018 29.6825 6.33028 30.5285C6.65039 31.3745 7.29313 32.0588 8.11758 32.4309L8.11879 32.4297Z" fill="#03753C"/>
</svg>
