<svg width="48" height="48" viewBox="0 0 48 48" fill="none" xmlns="http://www.w3.org/2000/svg">
<path d="M39.4824 11.3585L41.4824 9.35854C41.6689 9.17207 41.8168 8.95069 41.9178 8.70704C42.0187 8.4634 42.0706 8.20226 42.0706 7.93854C42.0706 7.67483 42.0187 7.41369 41.9178 7.17005C41.8168 6.9264 41.6689 6.70502 41.4824 6.51854C41.296 6.33207 41.0746 6.18415 40.8309 6.08322C40.5873 5.9823 40.3262 5.93036 40.0625 5.93036C39.7987 5.93036 39.5376 5.9823 39.2939 6.08322C39.0503 6.18415 38.8289 6.33207 38.6424 6.51854L6.64245 38.5185C6.45499 38.7045 6.30621 38.9257 6.20467 39.1694C6.10313 39.4131 6.05085 39.6745 6.05085 39.9385C6.05085 40.2026 6.10313 40.464 6.20467 40.7077C6.30621 40.9514 6.45499 41.1726 6.64245 41.3585C6.82838 41.546 7.04958 41.6948 7.2933 41.7963C7.53702 41.8979 7.79843 41.9501 8.06245 41.9501C8.32647 41.9501 8.58788 41.8979 8.8316 41.7963C9.07532 41.6948 9.29652 41.546 9.48245 41.3585L11.4825 39.3585C11.6824 39.5185 11.8625 39.7185 12.0824 39.8785H12.0025C15.4575 42.4881 19.6727 43.8931 24.0025 43.8785C27.7627 43.8567 31.4407 42.7752 34.6142 40.7582C37.7878 38.7411 40.3285 35.8703 41.9447 32.475C43.5609 29.0797 44.1872 25.2975 43.7517 21.5625C43.3162 17.8275 41.8365 14.2909 39.4824 11.3585ZM32.0025 23.9985H29.7225C29.3839 25.2866 28.7292 26.4697 27.8176 27.4406C26.9061 28.4115 25.7666 29.1395 24.5025 29.5585L29.0225 32.2785C29.3993 32.5021 29.6923 32.8433 29.8563 33.2496C30.0204 33.6559 30.0465 34.1048 29.9307 34.5274C29.8148 34.95 29.5634 35.3228 29.215 35.5886C28.8666 35.8544 28.4406 35.9984 28.0025 35.9985C27.6435 35.9984 27.2912 35.9017 26.9825 35.7185L19.5624 31.2585L30.8225 19.9985H32.0025C32.5329 19.9985 33.0416 20.2093 33.4167 20.5843C33.7917 20.9594 34.0025 21.4681 34.0025 21.9985C34.0025 22.529 33.7917 23.0377 33.4167 23.4128C33.0416 23.7878 32.5329 23.9985 32.0025 23.9985ZM15.6025 23.9985C15.072 23.9455 14.5844 23.6839 14.2468 23.2713C14.0797 23.067 13.9544 22.8318 13.8782 22.5791C13.8019 22.3264 13.7762 22.0612 13.8025 21.7985C13.8287 21.5359 13.9065 21.281 14.0312 21.0484C14.156 20.8158 14.3254 20.6101 14.5297 20.4429C14.9422 20.1053 15.472 19.9455 16.0024 19.9985H19.5225L21.5225 17.9985H16.0024C15.472 17.9985 14.9633 17.7878 14.5882 17.4128C14.2132 17.0377 14.0024 16.529 14.0024 15.9985C14.0024 15.4681 14.2132 14.9594 14.5882 14.5843C14.9633 14.2093 15.472 13.9985 16.0024 13.9985H25.5225L33.2425 6.27854C29.4715 4.32406 25.1763 3.62081 20.979 4.27067C16.7817 4.92052 12.9003 6.88973 9.89695 9.89304C6.89364 12.8964 4.92443 16.7778 4.27457 20.9751C3.62472 25.1724 4.32797 29.4676 6.28245 33.2385L15.6025 23.9985Z" fill="#7F4B10"/>
</svg>
