<svg width="85" height="63" viewBox="0 0 85 63" fill="none" xmlns="http://www.w3.org/2000/svg">
<path d="M83.9786 63H0.53142C0.390479 63 0.25531 62.9438 0.15565 62.8439C0.055989 62.7439 0 62.6082 0 62.4668C0 62.3254 0.055989 62.1898 0.15565 62.0898C0.25531 61.9898 0.390479 61.9336 0.53142 61.9336H83.9786C84.1195 61.9336 84.2547 61.9898 84.3544 62.0898C84.454 62.1898 84.51 62.3254 84.51 62.4668C84.51 62.6082 84.454 62.7439 84.3544 62.8439C84.2547 62.9438 84.1195 63 83.9786 63Z" fill="#02522A"/>
<path d="M79.6137 61.9563C83.004 55.522 84.679 48.3176 84.4763 41.0422C84.2735 33.7669 82.1999 26.6676 78.4566 20.4334C74.7133 14.1993 69.4275 9.04181 63.1121 5.4616C56.7966 1.88139 49.6661 0 42.4124 0C35.1587 0 28.0281 1.88139 21.7127 5.4616C15.3973 9.04181 10.1114 14.1993 6.36815 20.4334C2.62485 26.6676 0.551222 33.7669 0.348475 41.0422C0.145729 48.3176 1.82075 55.522 5.211 61.9563H79.6137Z" fill="#E5F7EE"/>
<path d="M54.5192 50.3085H30.3406C30.069 50.3085 29.8085 50.2002 29.6164 50.0075C29.4243 49.8148 29.3164 49.5534 29.3164 49.2808V40.2873C29.3165 38.5681 29.9972 36.9193 31.2088 35.7037C32.4204 34.4881 34.0637 33.8052 35.7771 33.8052H49.0828C50.7962 33.8052 52.4395 34.4881 53.6511 35.7038C54.8627 36.9195 55.5434 38.5684 55.5434 40.2876V49.2812C55.5434 49.5537 55.4355 49.8151 55.2434 50.0079C55.0513 50.2006 54.7908 50.3089 54.5192 50.3089" fill="#F37920"/>
<path d="M49.0824 33.8052H42.4297V50.3085H54.5188C54.6533 50.3085 54.7865 50.282 54.9107 50.2304C55.035 50.1788 55.1479 50.1031 55.243 50.0077C55.3381 49.9123 55.4136 49.7991 55.465 49.6744C55.5165 49.5497 55.543 49.4161 55.543 49.2812V40.2876C55.5429 38.5684 54.8622 36.9196 53.6506 35.7039C52.439 34.4883 50.7958 33.8053 49.0824 33.8052Z" fill="#E5711D"/>
<path d="M48.6002 34.3313C48.5216 34.1702 48.4451 33.9914 48.3696 33.8052H36.491C36.4155 33.9914 36.3386 34.1702 36.2603 34.3313C36.1292 34.5954 36.0556 34.8844 36.0445 35.1793C36.0333 35.4741 36.0848 35.7679 36.1956 36.0412C36.3063 36.3145 36.4738 36.561 36.6868 36.7644C36.8999 36.9677 37.1536 37.1232 37.4312 37.2206L41.8725 38.7637C42.0479 38.8238 42.2306 38.8597 42.4156 38.8704V38.8739L42.4301 38.8721L42.4446 38.8739V38.8704C42.6298 38.8596 42.8126 38.8238 42.9881 38.7637L47.429 37.2206C47.7066 37.1233 47.9604 36.9678 48.1735 36.7645C48.3866 36.5611 48.5541 36.3146 48.6649 36.0413C48.7757 35.768 48.8272 35.4742 48.8161 35.1793C48.8049 34.8845 48.7313 34.5954 48.6002 34.3313Z" fill="#823906"/>
<path d="M48.6002 34.3313C48.5216 34.1702 48.445 33.9914 48.3696 33.8052H42.4375V38.8728H42.4446V38.8693C42.6297 38.8586 42.8125 38.8227 42.9881 38.7626L47.429 37.2195C47.7066 37.1222 47.9603 36.9667 48.1734 36.7634C48.3865 36.5601 48.554 36.3135 48.6648 36.0402C48.7756 35.7669 48.8272 35.4731 48.816 35.1782C48.8049 34.8834 48.7313 34.5943 48.6002 34.3302" fill="#743103"/>
<path d="M46.1167 27.833C45.8714 29.3994 45.9026 30.9968 46.2088 32.5523C46.3019 32.954 46.4282 33.3472 46.5864 33.7279C46.7631 34.0567 46.8523 34.4257 46.8454 34.7993C46.8353 34.9703 46.7894 35.1372 46.7105 35.2892C46.6316 35.4411 46.5216 35.5746 46.3877 35.6809C46.0965 35.8902 45.7671 36.0402 45.4184 36.1224C43.9782 36.535 42.4699 36.6524 40.9835 36.4675C40.2966 36.3957 39.6248 36.2181 38.9917 35.9411C38.6905 35.8276 38.4269 35.6317 38.2311 35.3755C38.0582 35.1213 37.9818 34.8133 38.0157 34.5074C38.079 34.1894 38.1856 33.8817 38.3324 33.5928C38.7878 32.3375 38.9787 31.0011 38.8929 29.668C38.8755 29.0541 38.822 28.4419 38.7448 27.833" fill="#FFD430"/>
<path d="M46.5865 33.7293C46.4283 33.3486 46.3021 32.9554 46.2092 32.5537C45.9025 30.9978 45.871 29.3999 46.116 27.833H42.4375V36.5489C43.4458 36.5431 44.4487 36.3996 45.4184 36.1224C45.7673 36.0402 46.0967 35.8902 46.3881 35.6809C46.5219 35.5745 46.6318 35.441 46.7106 35.2891C46.7894 35.1372 46.8354 34.9702 46.8455 34.7993C46.8526 34.4257 46.7634 34.0567 46.5865 33.7279" fill="#F2C82B"/>
<path d="M50.0921 23.1115C50.0921 27.6335 46.6613 31.2992 42.4287 31.2992C38.1961 31.2992 34.7656 27.6335 34.7656 23.1115C34.7656 18.5895 38.1965 14.9238 42.4287 14.9238C46.6609 14.9238 50.0921 18.5895 50.0921 23.1115Z" fill="#FFE16E"/>
<path d="M42.4297 14.9238V31.2995C46.6619 31.2995 50.0931 27.6335 50.0931 23.1115C50.0931 18.5895 46.6619 14.9238 42.4297 14.9238Z" fill="#FFDD59"/>
<path d="M35.2197 25.2808C35.2746 25.3426 34.8558 22.4114 36.3849 21.9087C38.2109 21.3087 39.5936 24.4681 44.07 21.9869C45.7886 21.0349 47.0813 19.9682 47.6177 18.8445C47.9011 18.2523 47.5281 20.7488 48.586 21.9066C50.0304 23.4877 49.5379 25.6807 49.5379 25.6807C50.2253 24.9187 50.7128 23.997 50.9565 22.9987C51.2002 22.0004 51.1924 20.957 50.9338 19.9625C50.0619 16.4831 48.4521 14.9261 48.3277 14.7558C48.2033 14.5855 44.0912 12.1726 41.3257 13.3403C38.5602 14.5081 37.8495 14.3712 36.7346 14.7011C33.3335 15.7092 34.3428 24.2904 35.2197 25.2808Z" fill="#8C5F02"/>
<path d="M50.9346 19.9619C50.0627 16.4825 48.4528 14.9255 48.3281 14.7552C48.2194 14.6066 45.0744 12.7507 42.4375 13.0564V22.698C43.005 22.5184 43.5523 22.2801 44.0707 21.987C45.789 21.0347 47.0821 19.9683 47.6185 18.8443C47.9019 18.2524 47.5289 20.7486 48.5867 21.9067C50.0311 23.4878 49.5383 25.6804 49.5383 25.6804C50.2257 24.9184 50.7133 23.9967 50.957 22.9985C51.2008 22.0002 51.1931 20.9568 50.9346 19.9622" fill="#7F5500"/>
<path d="M51.0619 26.8418C50.8232 26.8418 50.5942 26.7467 50.4254 26.5773C50.2565 26.4079 50.1617 26.1781 50.1617 25.9386V21.5282C50.1617 19.5243 49.3683 17.6025 47.9561 16.1855C46.5439 14.7686 44.6286 13.9725 42.6315 13.9725C40.6343 13.9725 38.719 14.7686 37.3068 16.1855C35.8946 17.6025 35.1012 19.5243 35.1012 21.5282V25.9386C35.1012 26.1781 35.0064 26.4079 34.8376 26.5773C34.6687 26.7467 34.4398 26.8418 34.201 26.8418C33.9623 26.8418 33.7333 26.7467 33.5645 26.5773C33.3956 26.4079 33.3008 26.1781 33.3008 25.9386V21.5282C33.3008 19.0452 34.2838 16.6639 36.0337 14.9081C37.7835 13.1524 40.1568 12.166 42.6315 12.166C45.1061 12.166 47.4794 13.1524 49.2292 14.9081C50.9791 16.6639 51.9621 19.0452 51.9621 21.5282V25.9386C51.9621 26.1781 51.8673 26.4079 51.6985 26.5773C51.5296 26.7467 51.3007 26.8418 51.0619 26.8418Z" fill="#0F190E"/>
<path d="M47.3701 30.7925H47.3577L43.9102 30.7807L43.9165 28.9739L47.364 28.9859H47.3711C47.9268 28.9858 48.4598 28.7643 48.8527 28.37C49.2456 27.9757 49.4663 27.4409 49.4663 26.8833H51.2671C51.2671 27.3968 51.1663 27.9053 50.9705 28.3797C50.7746 28.8541 50.4876 29.2852 50.1257 29.6483C49.7638 30.0114 49.3342 30.2994 48.8614 30.4959C48.3886 30.6924 47.8818 30.7935 47.3701 30.7935" fill="#0F190E"/>
<path d="M44.3825 29.7838C44.3825 30.1694 44.2686 30.5464 44.055 30.8671C43.8415 31.1877 43.538 31.4376 43.1829 31.5852C42.8278 31.7327 42.437 31.7713 42.0601 31.6961C41.6831 31.6208 41.3369 31.4351 41.0651 31.1624C40.7934 30.8896 40.6083 30.5422 40.5334 30.1639C40.4584 29.7857 40.497 29.3936 40.6441 29.0374C40.7913 28.6811 41.0404 28.3766 41.36 28.1624C41.6796 27.9482 42.0553 27.8339 42.4397 27.834C42.955 27.8341 43.4492 28.0395 43.8135 28.4052C44.1779 28.7708 44.3825 29.2667 44.3825 29.7838Z" fill="#404041"/>
<path d="M42.6306 12.166C42.5633 12.166 42.4966 12.1696 42.4297 12.171V13.9779C42.4966 13.9779 42.5633 13.9725 42.6306 13.9725C44.627 13.9748 46.541 14.7716 47.9528 16.188C49.3645 17.6045 50.1585 19.525 50.1608 21.5282V25.9386C50.1608 26.1781 50.2556 26.4079 50.4245 26.5773C50.5933 26.7467 50.8223 26.8418 51.061 26.8418C51.2998 26.8418 51.5287 26.7467 51.6976 26.5773C51.8664 26.4079 51.9612 26.1781 51.9612 25.9386V21.5282C51.9584 19.0461 50.9745 16.6664 49.2252 14.9113C47.476 13.1561 45.1044 12.1688 42.6306 12.166Z" fill="#0F190E"/>
<path d="M42.4375 27.8329H42.4297V31.7314H42.4375C42.6949 31.7349 42.9504 31.6871 43.1891 31.5907C43.4279 31.4942 43.6453 31.3512 43.8285 31.1698C44.0117 30.9884 44.1572 30.7723 44.2565 30.534C44.3558 30.2958 44.407 30.0401 44.407 29.7818C44.407 29.5236 44.3558 29.2679 44.2565 29.0296C44.1572 28.7913 44.0117 28.5752 43.8285 28.3938C43.6453 28.2125 43.4279 28.0694 43.1891 27.973C42.9504 27.8766 42.6949 27.8287 42.4375 27.8322" fill="#231F20"/>
<path d="M50.9759 27.584H50.0753C49.9144 27.584 49.7601 27.5199 49.6464 27.4058C49.5327 27.2916 49.4688 27.1369 49.4688 26.9755V20.926C49.4687 20.846 49.4844 20.7669 49.5148 20.693C49.5453 20.6192 49.59 20.552 49.6463 20.4955C49.7026 20.439 49.7695 20.3942 49.8431 20.3636C49.9167 20.333 49.9956 20.3173 50.0753 20.3174H50.9759C51.7352 20.3174 52.4634 20.62 53.0003 21.1588C53.5372 21.6975 53.8388 22.4281 53.8388 23.19V24.7125C53.8385 25.4742 53.5368 26.2045 52.9999 26.743C52.463 27.2815 51.735 27.584 50.9759 27.584Z" fill="#231F20"/>
<path d="M51.654 20.4039C51.4321 20.3486 51.2044 20.3202 50.9759 20.3193H50.0753C49.9144 20.3194 49.7601 20.3836 49.6464 20.4978C49.5326 20.612 49.4687 20.7668 49.4688 20.9283V26.9785C49.4695 27.1394 49.5337 27.2935 49.6474 27.4071C49.761 27.5207 49.9149 27.5845 50.0753 27.5846H50.9759C51.2044 27.5837 51.4321 27.5553 51.654 27.5V20.4039Z" fill="#404041"/>
<path d="M34.3239 27.3844H35.2245C35.3041 27.3844 35.383 27.3687 35.4566 27.3381C35.5302 27.3075 35.597 27.2627 35.6533 27.2062C35.7097 27.1496 35.7543 27.0826 35.7848 27.0087C35.8153 26.9349 35.831 26.8558 35.831 26.7758V20.7253C35.831 20.5639 35.7671 20.4091 35.6533 20.2949C35.5396 20.1808 35.3853 20.1167 35.2245 20.1167H34.3239C33.9479 20.1167 33.5756 20.191 33.2283 20.3354C32.8809 20.4797 32.5653 20.6913 32.2995 20.9581C32.0336 21.2248 31.8227 21.5415 31.6789 21.89C31.535 22.2385 31.4609 22.6121 31.4609 22.9893V24.5118C31.4609 25.2737 31.7626 26.0043 32.2995 26.543C32.8364 27.0818 33.5646 27.3844 34.3239 27.3844Z" fill="#231F20"/>
<path d="M33.6484 20.2013C33.8703 20.1459 34.0979 20.1175 34.3265 20.1167H35.2271C35.388 20.1168 35.5423 20.181 35.656 20.2952C35.7697 20.4094 35.8336 20.5642 35.8336 20.7256V26.7758C35.8336 26.9373 35.7697 27.0921 35.656 27.2063C35.5423 27.3205 35.388 27.3847 35.2271 27.3848H34.3265C34.0979 27.3839 33.8703 27.3555 33.6484 27.3002V20.2013Z" fill="#404041"/>
<path d="M26.4727 60.8041L24.4682 41.6727C24.4488 41.4881 24.4684 41.3015 24.5256 41.125C24.5828 40.9485 24.6763 40.786 24.8001 40.6481C24.9239 40.5102 25.0752 40.3999 25.2442 40.3244C25.4132 40.2489 25.5961 40.2099 25.7811 40.21H59.3966C59.5795 40.21 59.7604 40.2481 59.9279 40.322C60.0953 40.3959 60.2456 40.5038 60.3693 40.639C60.4929 40.7743 60.5872 40.9338 60.6461 41.1075C60.7051 41.2813 60.7274 41.4654 60.7117 41.6482L59.0626 60.8041H26.4727Z" fill="#0F190E"/>
<path d="M44.9025 50.046C44.9025 50.5037 44.7672 50.9512 44.5137 51.3318C44.2603 51.7124 43.9 52.0091 43.4785 52.1843C43.057 52.3595 42.5932 52.4053 42.1458 52.316C41.6983 52.2267 41.2873 52.0062 40.9647 51.6826C40.6421 51.3589 40.4224 50.9465 40.3334 50.4975C40.2444 50.0485 40.2901 49.5831 40.4647 49.1602C40.6392 48.7373 40.9349 48.3758 41.3142 48.1215C41.6936 47.8672 42.1396 47.7314 42.5958 47.7314C43.2076 47.7314 43.7943 47.9753 44.2269 48.4093C44.6595 48.8434 44.9025 49.4321 44.9025 50.046Z" fill="#FDCD5A"/>
<path d="M43.9566 50.0465C43.9567 50.3175 43.8767 50.5823 43.7267 50.8076C43.5768 51.0329 43.3636 51.2085 43.1142 51.3122C42.8647 51.4159 42.5902 51.4431 42.3254 51.3902C42.0606 51.3374 41.8173 51.207 41.6264 51.0154C41.4354 50.8238 41.3054 50.5797 41.2528 50.314C41.2001 50.0483 41.2272 49.7729 41.3305 49.5226C41.4339 49.2723 41.6089 49.0584 41.8335 48.9079C42.058 48.7575 42.3219 48.6772 42.592 48.6772C42.9539 48.6772 43.301 48.8215 43.5569 49.0783C43.8129 49.3351 43.9566 49.6834 43.9566 50.0465Z" fill="#F0F9F0"/>
<path d="M59.9573 60.6978H25.2357C25.0703 60.6978 24.9066 60.7304 24.7538 60.7939C24.6011 60.8574 24.4623 60.9505 24.3453 61.0678C24.2284 61.1851 24.1357 61.3244 24.0724 61.4777C24.0091 61.6309 23.9766 61.7952 23.9766 61.9611H61.2164C61.2164 61.7952 61.1838 61.6309 61.1205 61.4777C61.0573 61.3244 60.9645 61.1851 60.8476 61.0678C60.7307 60.9505 60.5919 60.8574 60.4391 60.7939C60.2863 60.7304 60.1226 60.6978 59.9573 60.6978Z" fill="#2B4B29"/>
<path d="M58.293 30.1825L58.2958 25.2908C58.296 24.9054 58.3719 24.5237 58.5192 24.1677C58.6664 23.8117 58.882 23.4882 59.1539 23.2159C59.4257 22.9435 59.7483 22.7275 60.1033 22.5802C60.4583 22.4329 60.8387 22.3572 61.2229 22.3574L70.9737 22.3635C71.3579 22.3637 71.7382 22.4398 72.093 22.5874C72.4478 22.7351 72.7702 22.9515 73.0417 23.2242C73.3132 23.4969 73.5284 23.8206 73.6752 24.1767C73.822 24.5329 73.8975 24.9146 73.8972 25.3001L73.8941 30.1921C73.8908 30.9697 73.5812 31.7145 73.0329 32.264C72.4846 32.8135 71.742 33.1232 70.967 33.1255L66.5792 33.1227L62.4919 36.3977C62.4202 36.4545 62.3339 36.49 62.243 36.5001C62.1521 36.5101 62.0603 36.4943 61.9779 36.4544C61.8956 36.4146 61.826 36.3523 61.7773 36.2747C61.7285 36.1971 61.7025 36.1073 61.7022 36.0155V33.1198H61.2165C60.8323 33.1196 60.452 33.0434 60.0972 32.8957C59.7423 32.748 59.42 32.5316 59.1485 32.2589C58.877 31.9861 58.6618 31.6624 58.515 31.3062C58.3682 30.95 58.2927 30.5683 58.293 30.1829" fill="#D7EE93"/>
<path d="M55.9844 32.2836L55.9872 27.3919C55.9874 27.0064 56.0633 26.6248 56.2106 26.2688C56.3578 25.9128 56.5735 25.5893 56.8453 25.3169C57.1171 25.0445 57.4397 24.8285 57.7947 24.6812C58.1497 24.534 58.5301 24.4583 58.9143 24.4585L68.6651 24.4645C69.0493 24.4647 69.4296 24.5408 69.7844 24.6885C70.1392 24.8362 70.4616 25.0526 70.7331 25.3253C71.0046 25.5979 71.2198 25.9216 71.3666 26.2778C71.5134 26.634 71.5889 27.0157 71.5886 27.4011L71.5855 32.2932C71.5822 33.0708 71.2726 33.8155 70.7243 34.365C70.176 34.9145 69.4334 35.2242 68.6584 35.2266L64.2706 35.2237L60.1833 38.4973C60.1116 38.5542 60.0253 38.5897 59.9344 38.5997C59.8436 38.6097 59.7517 38.5939 59.6693 38.5541C59.587 38.5142 59.5175 38.4519 59.4687 38.3743C59.4199 38.2967 59.3939 38.2069 59.3936 38.1152L59.3954 35.2195H58.9079C58.5237 35.2192 58.1434 35.1431 57.7886 34.9954C57.4338 34.8476 57.1114 34.6312 56.8399 34.3585C56.5684 34.0858 56.3532 33.7621 56.2064 33.4059C56.0596 33.0497 55.9841 32.668 55.9844 32.2825" fill="#C7E768"/>
<path d="M68.8593 27.5658H58.7241C58.6078 27.5566 58.4992 27.5038 58.42 27.4179C58.3409 27.332 58.2969 27.2192 58.2969 27.1022C58.2969 26.9852 58.3409 26.8725 58.42 26.7865C58.4992 26.7006 58.6078 26.6478 58.7241 26.6387H68.8593C68.9756 26.6478 69.0841 26.7006 69.1633 26.7865C69.2425 26.8725 69.2865 26.9852 69.2865 27.1022C69.2865 27.2192 69.2425 27.332 69.1633 27.4179C69.0841 27.5038 68.9756 27.5566 68.8593 27.5658Z" fill="white"/>
<path d="M68.8593 29.8949H58.7241C58.6078 29.8857 58.4992 29.8329 58.42 29.747C58.3409 29.6611 58.2969 29.5483 58.2969 29.4313C58.2969 29.3143 58.3409 29.2016 58.42 29.1156C58.4992 29.0297 58.6078 28.9769 58.7241 28.9678H68.8593C68.9756 28.9769 69.0841 29.0297 69.1633 29.1156C69.2425 29.2016 69.2865 29.3143 69.2865 29.4313C69.2865 29.5483 69.2425 29.6611 69.1633 29.747C69.0841 29.8329 68.9756 29.8857 68.8593 29.8949Z" fill="white"/>
<path d="M65.0327 32.2977H58.7241C58.6078 32.2885 58.4992 32.2357 58.42 32.1498C58.3409 32.0639 58.2969 31.9512 58.2969 31.8341C58.2969 31.7171 58.3409 31.6044 58.42 31.5185C58.4992 31.4326 58.6078 31.3798 58.7241 31.3706H65.0327C65.149 31.3798 65.2576 31.4326 65.3368 31.5185C65.4159 31.6044 65.4599 31.7171 65.4599 31.8341C65.4599 31.9512 65.4159 32.0639 65.3368 32.1498C65.2576 32.2357 65.149 32.2885 65.0327 32.2977Z" fill="white"/>
<path d="M26.7103 23.283L26.7075 18.8918C26.7073 18.5458 26.6392 18.2032 26.507 17.8837C26.3749 17.5641 26.1813 17.2738 25.9373 17.0293C25.6934 16.7848 25.4038 16.5909 25.0851 16.4587C24.7664 16.3265 24.425 16.2586 24.0801 16.2588L15.3273 16.2645C14.9825 16.2647 14.641 16.333 14.3225 16.4656C14.004 16.5982 13.7147 16.7924 13.471 17.0372C13.2273 17.282 13.0341 17.5726 12.9023 17.8923C12.7706 18.2121 12.7029 18.5547 12.7031 18.9007L12.7056 23.2919C12.7086 23.9899 12.9865 24.6584 13.4788 25.1516C13.971 25.6449 14.6376 25.9228 15.3333 25.9249L19.2718 25.9228L22.9411 28.8625C23.0056 28.9134 23.0829 28.9451 23.1644 28.954C23.2459 28.9629 23.3283 28.9486 23.4021 28.9129C23.4759 28.8771 23.5383 28.8213 23.582 28.7518C23.6258 28.6822 23.6492 28.6018 23.6497 28.5195V25.9199H24.0876C24.7838 25.9191 25.4512 25.6408 25.9431 25.1463C26.4349 24.6518 26.7109 23.9816 26.7103 23.283Z" fill="#FEDC89"/>
<path d="M28.4916 25.9705L28.4887 21.5793C28.4885 21.2333 28.4204 20.8907 28.2883 20.5712C28.1561 20.2516 27.9626 19.9613 27.7186 19.7168C27.4746 19.4723 27.185 19.2784 26.8664 19.1462C26.5477 19.014 26.2062 18.9461 25.8614 18.9463L17.1085 18.9516C16.7637 18.9518 16.4223 19.0201 16.1038 19.1527C15.7853 19.2853 15.4959 19.4796 15.2523 19.7244C15.0086 19.9692 14.8153 20.2597 14.6836 20.5795C14.5518 20.8992 14.4841 21.2418 14.4844 21.5878L14.4869 25.979C14.4898 26.677 14.7678 27.3455 15.26 27.8388C15.7522 28.332 16.4189 28.61 17.1146 28.612L21.0531 28.6099L24.7224 31.5497C24.7868 31.6005 24.8642 31.6322 24.9457 31.6411C25.0272 31.65 25.1095 31.6358 25.1833 31.6C25.2572 31.5643 25.3195 31.5085 25.3633 31.4389C25.4071 31.3694 25.4305 31.2889 25.4309 31.2067V28.6071H25.8688C26.5652 28.6066 27.2329 28.3286 27.725 27.8342C28.2171 27.3398 28.4933 26.6696 28.493 25.9709" fill="#FDD471"/>
<path d="M16.9385 21.735H26.0368C26.1412 21.7269 26.2388 21.6795 26.3099 21.6024C26.3811 21.5253 26.4206 21.424 26.4206 21.3189C26.4206 21.2138 26.3811 21.1126 26.3099 21.0354C26.2388 20.9583 26.1412 20.9109 26.0368 20.9028H16.9385C16.8341 20.9109 16.7365 20.9583 16.6654 21.0354C16.5942 21.1126 16.5547 21.2138 16.5547 21.3189C16.5547 21.424 16.5942 21.5253 16.6654 21.6024C16.7365 21.6795 16.8341 21.7269 16.9385 21.735Z" fill="white"/>
<path d="M16.9385 23.8248H26.0368C26.1412 23.8167 26.2388 23.7694 26.3099 23.6922C26.3811 23.6151 26.4206 23.5139 26.4206 23.4088C26.4206 23.3037 26.3811 23.2024 26.3099 23.1253C26.2388 23.0481 26.1412 23.0008 26.0368 22.9927H16.9385C16.8341 23.0008 16.7365 23.0481 16.6654 23.1253C16.5942 23.2024 16.5547 23.3037 16.5547 23.4088C16.5547 23.5139 16.5942 23.6151 16.6654 23.6922C16.7365 23.7694 16.8341 23.8167 16.9385 23.8248Z" fill="white"/>
<path d="M20.376 25.9826H26.0392C26.1436 25.9745 26.2412 25.9271 26.3123 25.85C26.3835 25.7728 26.423 25.6716 26.423 25.5665C26.423 25.4614 26.3835 25.3601 26.3123 25.283C26.2412 25.2059 26.1436 25.1585 26.0392 25.1504H20.376C20.2716 25.1585 20.174 25.2059 20.1029 25.283C20.0317 25.3601 19.9922 25.4614 19.9922 25.5665C19.9922 25.6716 20.0317 25.7728 20.1029 25.85C20.174 25.9271 20.2716 25.9745 20.376 25.9826Z" fill="white"/>
<path d="M67.196 47.0419L67.4575 55.3657H70.0916L70.3491 47.0411C70.3554 46.8294 70.3193 46.6186 70.243 46.4211C70.1666 46.2236 70.0515 46.0436 69.9044 45.8916C69.7574 45.7395 69.5815 45.6187 69.3871 45.5362C69.1926 45.4537 68.9837 45.4111 68.7726 45.4111C68.5615 45.4111 68.3525 45.4537 68.1581 45.5362C67.9637 45.6187 67.7877 45.7395 67.6407 45.8916C67.4937 46.0436 67.3786 46.2236 67.3022 46.4211C67.2258 46.6186 67.1897 46.8294 67.196 47.0411V47.0419Z" fill="#00914C"/>
<path d="M69.8516 52.0722C69.8516 52.0722 73.4507 51.8085 72.729 48.8591C72.3978 47.5083 71.6811 48.1062 71.1408 48.8392C70.74 49.3893 70.4401 50.0067 70.2551 50.6624L69.8516 52.0722Z" fill="#4CBD4C"/>
<path d="M67.5805 52.5194C67.5805 52.5194 66.3242 52.5997 65.7567 49.795C65.6855 49.4057 65.5707 49.0258 65.4144 48.6625C65.3371 48.4958 65.2072 48.3595 65.0448 48.2745C64.8824 48.1894 64.6966 48.1605 64.5162 48.1922C64.3358 48.2238 64.1708 48.3143 64.0468 48.4496C63.9229 48.5849 63.8468 48.7574 63.8304 48.9404C63.7422 49.8952 63.795 51.4238 64.7838 52.5197C66.3249 54.226 67.8639 53.9018 67.8639 53.9018L67.5805 52.5194Z" fill="#009C53"/>
<path d="M68.9224 45.8202C68.9159 45.8205 68.9093 45.8194 68.9032 45.8169C68.8971 45.8145 68.8916 45.8107 68.887 45.806L68.1643 45.0812C68.1563 45.072 68.152 45.0602 68.1524 45.048C68.1527 45.0358 68.1577 45.0242 68.1663 45.0156C68.1748 45.007 68.1863 45.0019 68.1985 45.0015C68.2106 45.0011 68.2224 45.0053 68.2316 45.0133L68.9543 45.7384C68.9587 45.7428 68.9623 45.7481 68.9646 45.7538C68.967 45.7596 68.9683 45.7658 68.9683 45.772C68.9683 45.7783 68.967 45.7845 68.9646 45.7902C68.9623 45.796 68.9587 45.8012 68.9543 45.8056C68.9497 45.8103 68.9441 45.8139 68.9381 45.8164C68.932 45.8188 68.9254 45.82 68.9189 45.8198L68.9224 45.8202Z" fill="#50AC55"/>
<path d="M69.9266 46.9617C69.9171 46.9617 69.9079 46.959 69.9001 46.9537C69.8922 46.9485 69.8861 46.9411 69.8825 46.9323C69.8789 46.9236 69.878 46.914 69.8798 46.9047C69.8817 46.8955 69.8862 46.887 69.8929 46.8803L70.6815 46.0869C70.6902 46.0775 70.7022 46.0719 70.715 46.0713C70.7277 46.0708 70.7402 46.0754 70.7496 46.084C70.7589 46.0927 70.7645 46.1048 70.7651 46.1176C70.7656 46.1304 70.761 46.1429 70.7524 46.1523L70.7503 46.1544L69.962 46.9479C69.9573 46.9524 69.9518 46.956 69.9457 46.9584C69.9396 46.9608 69.9331 46.9619 69.9266 46.9617Z" fill="#50AC55"/>
<path d="M67.4549 48.6998C67.445 48.6997 67.4354 48.6966 67.4273 48.6909L66.7708 48.2199C66.7616 48.2121 66.7557 48.201 66.7543 48.189C66.7528 48.177 66.7559 48.1649 66.763 48.1551C66.7701 48.1453 66.7806 48.1385 66.7924 48.1362C66.8043 48.1338 66.8165 48.136 66.8268 48.1424L67.4815 48.6134C67.4917 48.6209 67.4986 48.632 67.5006 48.6445C67.5027 48.657 67.4998 48.6699 67.4925 48.6802C67.488 48.6863 67.4822 48.6913 67.4755 48.6948C67.4688 48.6983 67.4614 48.7003 67.4539 48.7005L67.4549 48.6998Z" fill="#50AC55"/>
<path d="M72.3728 48.8886C72.3601 48.8888 72.348 48.8839 72.3389 48.8752C72.3298 48.8664 72.3245 48.8543 72.3242 48.8417C72.324 48.8316 72.327 48.8218 72.3327 48.8136L72.7876 48.1535C72.7951 48.1437 72.806 48.1372 72.8181 48.1353C72.8302 48.1334 72.8426 48.1363 72.8526 48.1432C72.8627 48.1502 72.8698 48.1608 72.8723 48.1728C72.8748 48.1848 72.8727 48.1974 72.8663 48.2078L72.4114 48.868C72.407 48.8742 72.4013 48.8794 72.3946 48.883C72.3878 48.8865 72.3804 48.8885 72.3728 48.8886Z" fill="#50AC55"/>
<path d="M73.0129 50.5886H72.1474C72.1409 50.5894 72.1344 50.5888 72.1281 50.587C72.1219 50.5851 72.1161 50.5821 72.1111 50.5779C72.1061 50.5737 72.102 50.5686 72.099 50.5628C72.096 50.557 72.0943 50.5506 72.0939 50.5441C72.0934 50.5376 72.0943 50.5311 72.0965 50.5249C72.0986 50.5188 72.102 50.5132 72.1064 50.5084C72.1109 50.5036 72.1162 50.4997 72.1221 50.4971C72.1281 50.4944 72.1345 50.493 72.141 50.4929C72.1431 50.4926 72.1452 50.4926 72.1474 50.4929H73.0129C73.0251 50.4928 73.0369 50.4973 73.0459 50.5057C73.0549 50.514 73.0604 50.5255 73.0612 50.5377C73.062 50.55 73.0581 50.5621 73.0503 50.5715C73.0425 50.581 73.0314 50.5871 73.0192 50.5886H73.0129Z" fill="#50AC55"/>
<path d="M69.825 53.2707C69.8147 53.2707 69.8046 53.2674 69.7963 53.2612C69.788 53.2549 69.782 53.2462 69.7792 53.2362C69.7763 53.2262 69.7768 53.2156 69.7805 53.2059C69.7843 53.1962 69.7911 53.188 69.7999 53.1825L70.8521 52.5398C70.8623 52.5322 70.8751 52.5289 70.8877 52.5308C70.9003 52.5326 70.9116 52.5394 70.9192 52.5496C70.9268 52.5598 70.9301 52.5727 70.9282 52.5853C70.9264 52.598 70.9197 52.6093 70.9095 52.617L70.9031 52.6209L69.8512 53.2636C69.8436 53.2678 69.8351 53.27 69.8264 53.27" fill="#50AC55"/>
<path d="M66.0084 51.5707C65.9958 51.5707 65.9838 51.5657 65.9749 51.5568C65.966 51.5478 65.961 51.5357 65.961 51.5231C65.9608 51.5161 65.9622 51.5091 65.9652 51.5028L66.418 50.5206C66.4203 50.5148 66.4238 50.5094 66.4282 50.5049C66.4325 50.5003 66.4378 50.4967 66.4436 50.4942C66.4494 50.4917 66.4556 50.4903 66.4619 50.4902C66.4682 50.4901 66.4745 50.4913 66.4803 50.4936C66.4862 50.496 66.4915 50.4994 66.4961 50.5038C66.5006 50.5083 66.5042 50.5135 66.5067 50.5193C66.5092 50.5251 66.5105 50.5314 66.5106 50.5377C66.5107 50.544 66.5096 50.5503 66.5073 50.5562L66.5048 50.5615L66.052 51.5437C66.0482 51.5521 66.042 51.5591 66.0343 51.564C66.0266 51.569 66.0176 51.5715 66.0084 51.5714" fill="#50AC55"/>
<path d="M65.0335 52.4441H64.2431C64.2305 52.4441 64.2183 52.4391 64.2093 52.4301C64.2004 52.4211 64.1953 52.4089 64.1953 52.3961C64.1953 52.3834 64.2004 52.3712 64.2093 52.3622C64.2183 52.3532 64.2305 52.3481 64.2431 52.3481H65.0335C65.0462 52.3481 65.0584 52.3532 65.0674 52.3622C65.0763 52.3712 65.0814 52.3834 65.0814 52.3961C65.0814 52.4089 65.0763 52.4211 65.0674 52.4301C65.0584 52.4391 65.0462 52.4441 65.0335 52.4441Z" fill="#50AC55"/>
<path d="M65.5946 49.6064C65.5877 49.6064 65.5808 49.605 65.5744 49.6022C65.563 49.5967 65.5542 49.587 65.5499 49.5751C65.5455 49.5632 65.5459 49.5501 65.551 49.5385L65.9641 48.6317C65.9697 48.6206 65.9794 48.6122 65.9911 48.6081C66.0028 48.6041 66.0156 48.6047 66.0268 48.6099C66.038 48.6151 66.0468 48.6244 66.0513 48.636C66.0558 48.6476 66.0557 48.6604 66.0509 48.6719L65.6364 49.5787C65.6326 49.587 65.6265 49.594 65.6189 49.5989C65.6112 49.6038 65.6023 49.6064 65.5932 49.6064" fill="#50AC55"/>
<path d="M64.4301 50.2937C64.4239 50.2938 64.4177 50.2926 64.412 50.2902L63.5458 49.9432C63.534 49.9385 63.5245 49.9293 63.5195 49.9176C63.5145 49.9059 63.5143 49.8927 63.519 49.8808C63.5237 49.869 63.5329 49.8595 63.5446 49.8545C63.5562 49.8495 63.5694 49.8493 63.5812 49.854L64.4474 50.2013C64.4577 50.2055 64.4662 50.2131 64.4714 50.2229C64.4767 50.2327 64.4784 50.244 64.4763 50.255C64.4741 50.2659 64.4683 50.2757 64.4597 50.2828C64.4512 50.2899 64.4404 50.2937 64.4293 50.2937H64.4301Z" fill="#50AC55"/>
<path d="M69.1763 45.4621C69.0448 45.4273 68.9094 45.4095 68.7734 45.4092V55.3657H70.0928L70.35 47.0412C70.361 46.6836 70.251 46.3329 70.0378 46.0461C69.8247 45.7593 69.521 45.5535 69.1763 45.4621Z" fill="#4CBD4C"/>
<path d="M67.7927 53.5507L67.5801 52.5198C67.5801 52.5198 66.3238 52.6001 65.7563 49.795C65.6851 49.4058 65.5703 49.0259 65.4141 48.6625C65.3276 48.4672 65.1685 48.3136 64.9708 48.2343C64.773 48.155 64.5522 48.1564 64.3555 48.2381C64.6127 49.9778 65.4123 53.2812 67.792 53.551" fill="#4CBD4C"/>
<path d="M70.0684 51.9718C71.4189 51.1467 72.1324 49.6257 72.5101 48.2972C72.1395 47.7349 71.5826 48.2436 71.1426 48.8411C70.7419 49.3913 70.442 50.0087 70.2569 50.6644L69.8516 52.0727C69.8516 52.0727 70.0067 52.0614 70.2459 52.0169L70.0684 51.9718Z" fill="#4CBD4C"/>
<path d="M70.7523 61.9607H66.3638C66.321 61.9607 66.2787 61.9503 66.2408 61.9303C66.2028 61.9103 66.1703 61.8813 66.146 61.8459L66.0659 61.7254C64.8674 59.9754 64.2388 57.8958 64.2665 55.7726V54.3667H72.9914V55.528C73.0023 57.7829 72.2941 59.9822 70.9702 61.8043C70.9161 61.8785 70.8398 61.9334 70.7523 61.9607Z" fill="#975706"/>
<path d="M68.7715 54.3667H64.2665V55.7733C64.2387 57.8966 64.8673 59.9764 66.0659 61.7265L66.146 61.847C66.1703 61.8824 66.2028 61.9113 66.2408 61.9313C66.2788 61.9513 66.321 61.9618 66.3639 61.9618H68.773L68.7715 54.3667Z" fill="#A3620A"/>
<path d="M63.907 54.3682H73.3542C73.3906 54.3683 73.4255 54.3828 73.4512 54.4087C73.4769 54.4345 73.4913 54.4696 73.4913 54.5061V55.3024C73.4913 55.3389 73.4769 55.3739 73.4512 55.3998C73.4255 55.4256 73.3906 55.4402 73.3542 55.4403H63.907C63.8705 55.4403 63.8356 55.4257 63.8098 55.3999C63.784 55.374 63.7695 55.3389 63.7695 55.3024V54.5061C63.7695 54.4695 63.784 54.4344 63.8098 54.4086C63.8356 54.3827 63.8705 54.3682 63.907 54.3682Z" fill="#BB7710"/>
<path d="M68.7734 54.3682H63.9066C63.8886 54.3682 63.8707 54.3717 63.8541 54.3787C63.8374 54.3856 63.8223 54.3958 63.8096 54.4086C63.7968 54.4214 63.7867 54.4366 63.7799 54.4533C63.773 54.4701 63.7695 54.488 63.7695 54.5061V55.3024C63.7695 55.3389 63.784 55.3739 63.8097 55.3998C63.8354 55.4256 63.8702 55.4402 63.9066 55.4403H68.7734V54.3682Z" fill="#C78113"/>
<path d="M12.8515 57.0576C12.7811 57.0577 12.7137 57.0858 12.6639 57.1357C12.6142 57.1856 12.5862 57.2533 12.5861 57.3239V60.7834C12.5863 60.8539 12.6143 60.9215 12.6641 60.9713C12.7138 61.0211 12.7812 61.0492 12.8515 61.0493H15.927C15.9973 61.0492 16.0646 61.0211 16.1144 60.9713C16.1641 60.9215 16.1921 60.8539 16.1923 60.7834V57.3239C16.1922 57.2533 16.1642 57.1856 16.1145 57.1357C16.0648 57.0858 15.9973 57.0577 15.927 57.0576H12.8515ZM15.927 61.5825H12.8515C12.6403 61.5823 12.4378 61.4981 12.2884 61.3482C12.139 61.1984 12.055 60.9953 12.0547 60.7834V57.3239C12.055 57.1119 12.139 56.9088 12.2884 56.7589C12.4377 56.609 12.6402 56.5247 12.8515 56.5244H15.927C16.1382 56.5247 16.3407 56.609 16.4901 56.7589C16.6394 56.9088 16.7235 57.1119 16.7237 57.3239V60.7834C16.7235 60.9953 16.6394 61.1984 16.49 61.3482C16.3407 61.4981 16.1382 61.5823 15.927 61.5825Z" fill="#B28D13"/>
<path d="M20.4169 61.9565H14.4101C14.3675 61.9565 14.3253 61.9481 14.286 61.9317C14.2466 61.9154 14.2109 61.8914 14.1808 61.8611C14.1507 61.8309 14.1268 61.795 14.1105 61.7555C14.0942 61.716 14.0859 61.6736 14.0859 61.6309V55.6034C14.0859 55.5607 14.0942 55.5184 14.1105 55.4789C14.1268 55.4394 14.1507 55.4035 14.1808 55.3732C14.2109 55.343 14.2466 55.319 14.286 55.3026C14.3253 55.2863 14.3675 55.2778 14.4101 55.2778H20.4169C20.503 55.2778 20.5855 55.3121 20.6464 55.3732C20.7073 55.4343 20.7414 55.5171 20.7414 55.6034V61.6309C20.7414 61.7173 20.7073 61.8001 20.6464 61.8611C20.5855 61.9222 20.503 61.9565 20.4169 61.9565Z" fill="#D9B122"/>
<path d="M20.418 55.2759H17.4141V61.9546H20.418C20.504 61.9546 20.5865 61.9203 20.6474 61.8593C20.7082 61.7983 20.7424 61.7156 20.7425 61.6293V55.6033C20.7425 55.5169 20.7083 55.4341 20.6475 55.373C20.5866 55.312 20.5041 55.2777 20.418 55.2777" fill="#CCA51D"/>
</svg>
