<svg width="40" height="40" viewBox="0 0 40 40" fill="none" xmlns="http://www.w3.org/2000/svg">
<g id="ic_irrigation">
<path id="Vector" d="M20 10C20.3296 10 20.6519 9.90225 20.926 9.71912C21.2 9.53598 21.4137 9.27568 21.5398 8.97114C21.6659 8.6666 21.6989 8.33149 21.6346 8.00818C21.5703 7.68488 21.4116 7.38791 21.1785 7.15482C20.9454 6.92174 20.6485 6.763 20.3252 6.69869C20.0018 6.63438 19.6667 6.66739 19.3622 6.79353C19.0576 6.91968 18.7974 7.1333 18.6142 7.40738C18.4311 7.68147 18.3333 8.0037 18.3333 8.33333C18.3333 8.77536 18.5089 9.19928 18.8215 9.51185C19.134 9.82441 19.558 10 20 10ZM25 8.33333C25.3296 8.33333 25.6519 8.23559 25.926 8.05245C26.2 7.86931 26.4137 7.60902 26.5398 7.30447C26.6659 6.99993 26.6989 6.66482 26.6346 6.34152C26.5703 6.01822 26.4116 5.72124 26.1785 5.48816C25.9454 5.25507 25.6485 5.09633 25.3251 5.03203C25.0018 4.96772 24.6667 5.00072 24.3622 5.12687C24.0576 5.25301 23.7974 5.46664 23.6142 5.74072C23.4311 6.0148 23.3333 6.33703 23.3333 6.66667C23.3333 7.1087 23.5089 7.53262 23.8215 7.84518C24.134 8.15774 24.558 8.33333 25 8.33333ZM33.3333 11.6667C33.663 11.6667 33.9852 11.5689 34.2593 11.3858C34.5334 11.2026 34.747 10.9423 34.8731 10.6378C34.9993 10.3333 35.0323 9.99815 34.968 9.67485C34.9037 9.35155 34.7449 9.05458 34.5118 8.82149C34.2788 8.5884 33.9818 8.42967 33.6585 8.36536C33.3352 8.30105 33.0001 8.33406 32.6955 8.4602C32.391 8.58635 32.1307 8.79997 31.9475 9.07405C31.7644 9.34813 31.6667 9.67037 31.6667 10C31.6667 10.442 31.8423 10.866 32.1548 11.1785C32.4674 11.4911 32.8913 11.6667 33.3333 11.6667ZM33.3333 15C33.0037 15 32.6815 15.0977 32.4074 15.2809C32.1333 15.464 31.9197 15.7243 31.7935 16.0289C31.6674 16.3334 31.6344 16.6685 31.6987 16.9918C31.763 17.3151 31.9217 17.6121 32.1548 17.8452C32.3879 18.0783 32.6849 18.237 33.0082 18.3013C33.3315 18.3656 33.6666 18.3326 33.9711 18.2065C34.2757 18.0803 34.536 17.8667 34.7191 17.5926C34.9023 17.3185 35 16.9963 35 16.6667C35 16.2246 34.8244 15.8007 34.5118 15.4882C34.1993 15.1756 33.7754 15 33.3333 15ZM15 8.33333C15.3296 8.33333 15.6519 8.23559 15.926 8.05245C16.2 7.86931 16.4137 7.60902 16.5398 7.30447C16.6659 6.99993 16.699 6.66482 16.6346 6.34152C16.5703 6.01822 16.4116 5.72124 16.1785 5.48816C15.9454 5.25507 15.6485 5.09633 15.3252 5.03203C15.0018 4.96772 14.6667 5.00072 14.3622 5.12687C14.0576 5.25301 13.7974 5.46664 13.6142 5.74072C13.4311 6.0148 13.3333 6.33703 13.3333 6.66667C13.3333 7.1087 13.5089 7.53262 13.8215 7.84518C14.134 8.15774 14.558 8.33333 15 8.33333ZM30 15C30.3296 15 30.6519 14.9023 30.926 14.7191C31.2 14.536 31.4137 14.2757 31.5398 13.9711C31.6659 13.6666 31.6989 13.3315 31.6346 13.0082C31.5703 12.6849 31.4116 12.3879 31.1785 12.1548C30.9454 11.9217 30.6485 11.763 30.3252 11.6987C30.0019 11.6344 29.6667 11.6674 29.3622 11.7935C29.0577 11.9197 28.7974 12.1333 28.6142 12.4074C28.4311 12.6815 28.3333 13.0037 28.3333 13.3333C28.3333 13.7754 28.5089 14.1993 28.8215 14.5118C29.134 14.8244 29.558 15 30 15ZM6.66667 18.3333C6.9963 18.3333 7.31853 18.2356 7.59262 18.0525C7.8667 17.8693 8.08032 17.609 8.20647 17.3045C8.33261 16.9999 8.36562 16.6648 8.30131 16.3415C8.237 16.0182 8.07827 15.7212 7.84518 15.4882C7.61209 15.2551 7.31512 15.0963 6.99182 15.032C6.66852 14.9677 6.3334 15.0007 6.02886 15.1269C5.72432 15.253 5.46402 15.4666 5.28088 15.7407C5.09775 16.0148 5 16.337 5 16.6667C5 17.1087 5.17559 17.5326 5.48816 17.8452C5.80072 18.1577 6.22464 18.3333 6.66667 18.3333ZM33.3333 31.6667H23.3333V26.6667H25C25.442 26.6667 25.8659 26.4911 26.1785 26.1785C26.4911 25.866 26.6667 25.442 26.6667 25V21.6667C26.6667 21.2246 26.4911 20.8007 26.1785 20.4882C25.8659 20.1756 25.442 20 25 20H15C14.558 20 14.134 20.1756 13.8215 20.4882C13.5089 20.8007 13.3333 21.2246 13.3333 21.6667V25C13.3333 25.442 13.5089 25.866 13.8215 26.1785C14.134 26.4911 14.558 26.6667 15 26.6667H16.6667V31.6667H6.66667C6.22464 31.6667 5.80072 31.8423 5.48816 32.1548C5.17559 32.4674 5 32.8913 5 33.3333C5 33.7754 5.17559 34.1993 5.48816 34.5118C5.80072 34.8244 6.22464 35 6.66667 35H33.3333C33.7754 35 34.1993 34.8244 34.5118 34.5118C34.8244 34.1993 35 33.7754 35 33.3333C35 32.8913 34.8244 32.4674 34.5118 32.1548C34.1993 31.8423 33.7754 31.6667 33.3333 31.6667ZM10 15C10.3296 15 10.6519 14.9023 10.926 14.7191C11.2 14.536 11.4137 14.2757 11.5398 13.9711C11.6659 13.6666 11.699 13.3315 11.6346 13.0082C11.5703 12.6849 11.4116 12.3879 11.1785 12.1548C10.9454 11.9217 10.6485 11.763 10.3252 11.6987C10.0018 11.6344 9.66674 11.6674 9.36219 11.7935C9.05765 11.9197 8.79735 12.1333 8.61422 12.4074C8.43108 12.6815 8.33333 13.0037 8.33333 13.3333C8.33333 13.7754 8.50893 14.1993 8.82149 14.5118C9.13405 14.8244 9.55797 15 10 15ZM15 15H16.6667V16.6667C16.6667 17.1087 16.8423 17.5326 17.1548 17.8452C17.4674 18.1577 17.8913 18.3333 18.3333 18.3333H21.6667C22.1087 18.3333 22.5326 18.1577 22.8452 17.8452C23.1577 17.5326 23.3333 17.1087 23.3333 16.6667V15H25C25.442 15 25.8659 14.8244 26.1785 14.5118C26.4911 14.1993 26.6667 13.7754 26.6667 13.3333C26.6667 12.8913 26.4911 12.4674 26.1785 12.1548C25.8659 11.8423 25.442 11.6667 25 11.6667H15C14.558 11.6667 14.134 11.8423 13.8215 12.1548C13.5089 12.4674 13.3333 12.8913 13.3333 13.3333C13.3333 13.7754 13.5089 14.1993 13.8215 14.5118C14.134 14.8244 14.558 15 15 15ZM6.66667 11.6667C6.9963 11.6667 7.31853 11.5689 7.59262 11.3858C7.8667 11.2026 8.08032 10.9423 8.20647 10.6378C8.33261 10.3333 8.36562 9.99815 8.30131 9.67485C8.237 9.35155 8.07827 9.05458 7.84518 8.82149C7.61209 8.5884 7.31512 8.42967 6.99182 8.36536C6.66852 8.30105 6.3334 8.33406 6.02886 8.4602C5.72432 8.58635 5.46402 8.79997 5.28088 9.07405C5.09775 9.34813 5 9.67037 5 10C5 10.442 5.17559 10.866 5.48816 11.1785C5.80072 11.4911 6.22464 11.6667 6.66667 11.6667Z" fill="#03753C"/>
</g>
</svg>
