<svg width="32" height="32" viewBox="0 0 32 32" fill="none" xmlns="http://www.w3.org/2000/svg">
<circle cx="16" cy="16" r="16" fill="#FFE3AE"/>
<path d="M21.4782 15.9624H13.9249C13.913 15.9624 13.9015 15.9623 13.8901 15.9608C13.8745 15.9608 13.8586 15.9624 13.8428 15.9624C13.115 15.9611 12.4159 15.678 11.8921 15.1726C11.3683 14.6673 11.0606 13.9788 11.0332 13.2515C11.0059 12.5242 11.2612 11.8145 11.7456 11.2713C12.23 10.728 12.9058 10.3934 13.6315 10.3374C13.8547 9.83955 14.2292 9.42453 14.7017 9.15153C15.1741 8.87853 15.7205 8.76125 16.2633 8.81645C16.5895 8.33628 17.0282 7.94333 17.5412 7.67163C18.0542 7.39993 18.6259 7.25787 19.2064 7.25781C21.0397 7.25781 22.5668 8.75011 22.7401 10.643C23.3053 10.9269 23.7581 11.393 24.0254 11.9663C24.2926 12.5395 24.3585 13.1862 24.2126 13.8016C24.0666 14.417 23.7172 14.9651 23.2209 15.3572C22.7247 15.7493 22.1106 15.9625 21.4782 15.9622V15.9624Z" fill="#AC660C"/>
<path d="M15.937 20.4856C15.8366 20.4853 15.7378 20.4607 15.6488 20.4142C15.5598 20.3677 15.4833 20.3006 15.4257 20.2183C15.3681 20.1361 15.3312 20.0412 15.318 19.9416C15.3047 19.8421 15.3156 19.7409 15.3497 19.6464L16.2759 17.1023C16.303 17.0239 16.3455 16.9517 16.4008 16.8899C16.4561 16.8281 16.5231 16.778 16.598 16.7424C16.6728 16.7067 16.7541 16.6863 16.8369 16.6823C16.9198 16.6784 17.0025 16.691 17.0805 16.7194C17.1584 16.7478 17.2299 16.7913 17.2908 16.8475C17.3517 16.9038 17.4007 16.9717 17.4352 17.0471C17.4696 17.1226 17.4887 17.2041 17.4913 17.287C17.4939 17.3699 17.48 17.4525 17.4503 17.5299L16.5243 20.0741C16.4805 20.1946 16.4006 20.2989 16.2955 20.3725C16.1905 20.4461 16.0652 20.4856 15.937 20.4856Z" fill="#AC660C"/>
<path d="M13.437 20.4856C13.3366 20.4853 13.2378 20.4607 13.1488 20.4142C13.0598 20.3677 12.9833 20.3006 12.9257 20.2183C12.8681 20.1361 12.8312 20.0412 12.818 19.9416C12.8047 19.8421 12.8156 19.7409 12.8497 19.6464L13.7759 17.1023C13.803 17.0239 13.8455 16.9517 13.9008 16.8899C13.9561 16.8281 14.0231 16.778 14.098 16.7424C14.1728 16.7067 14.2541 16.6863 14.3369 16.6823C14.4198 16.6784 14.5025 16.691 14.5805 16.7194C14.6584 16.7478 14.7299 16.7913 14.7908 16.8475C14.8517 16.9038 14.9007 16.9717 14.9352 17.0471C14.9696 17.1226 14.9887 17.2041 14.9913 17.287C14.9939 17.3699 14.98 17.4525 14.9503 17.5299L14.0243 20.0741C13.9805 20.1946 13.9006 20.2989 13.7955 20.3725C13.6905 20.4461 13.5652 20.4856 13.437 20.4856Z" fill="#AC660C"/>
<path d="M18.437 20.4856C18.3366 20.4853 18.2378 20.4607 18.1488 20.4142C18.0598 20.3677 17.9833 20.3006 17.9257 20.2183C17.8681 20.1361 17.8312 20.0412 17.818 19.9416C17.8047 19.8421 17.8156 19.7409 17.8497 19.6464L18.7759 17.1023C18.803 17.0239 18.8455 16.9517 18.9008 16.8899C18.9561 16.8281 19.0231 16.778 19.098 16.7424C19.1728 16.7067 19.2541 16.6863 19.3369 16.6823C19.4198 16.6784 19.5025 16.691 19.5805 16.7194C19.6584 16.7478 19.7299 16.7913 19.7908 16.8475C19.8517 16.9038 19.9007 16.9717 19.9352 17.0471C19.9696 17.1226 19.9887 17.2041 19.9913 17.287C19.9939 17.3699 19.98 17.4525 19.9503 17.5299L19.0243 20.0741C18.9805 20.1946 18.9006 20.2989 18.7955 20.3725C18.6905 20.4461 18.5652 20.4856 18.437 20.4856Z" fill="#AC660C"/>
<path d="M20.937 20.4856C20.8366 20.4853 20.7378 20.4607 20.6488 20.4142C20.5598 20.3677 20.4833 20.3006 20.4257 20.2183C20.3681 20.1361 20.3312 20.0412 20.318 19.9416C20.3047 19.8421 20.3156 19.7409 20.3497 19.6464L21.2759 17.1023C21.303 17.0239 21.3455 16.9517 21.4008 16.8899C21.4561 16.8281 21.5231 16.778 21.598 16.7424C21.6728 16.7067 21.7541 16.6863 21.8369 16.6823C21.9198 16.6784 22.0025 16.691 22.0805 16.7194C22.1584 16.7478 22.2299 16.7913 22.2908 16.8475C22.3517 16.9038 22.4007 16.9717 22.4352 17.0471C22.4696 17.1226 22.4887 17.2041 22.4913 17.287C22.4939 17.3699 22.48 17.4525 22.4503 17.5299L21.5243 20.0741C21.4805 20.1946 21.4006 20.2989 21.2955 20.3725C21.1905 20.4461 21.0652 20.4856 20.937 20.4856Z" fill="#AC660C"/>
<path d="M14.5274 24.5641C14.4269 24.5641 14.3278 24.5397 14.2387 24.4933C14.1495 24.4469 14.0729 24.3797 14.0153 24.2973C13.9577 24.215 13.9208 24.1201 13.9077 24.0205C13.8946 23.9208 13.9057 23.8195 13.9401 23.725L14.8661 21.1807C14.8942 21.1036 14.9372 21.0327 14.9927 20.9722C15.0481 20.9116 15.115 20.8628 15.1894 20.8281C15.2638 20.7934 15.3442 20.7737 15.4262 20.7701C15.5082 20.7666 15.5902 20.7791 15.6673 20.8072C15.7444 20.8352 15.8152 20.8782 15.8757 20.9337C15.9363 20.9892 15.9852 21.056 16.0199 21.1304C16.0546 21.2048 16.0743 21.2853 16.0779 21.3673C16.0814 21.4493 16.0688 21.5312 16.0407 21.6083L15.1144 24.1525C15.0706 24.273 14.9908 24.3771 14.8858 24.4507C14.7807 24.5244 14.6556 24.564 14.5274 24.5641Z" fill="#AC660C"/>
<path d="M12.0274 24.5641C11.9269 24.5641 11.8278 24.5397 11.7387 24.4933C11.6495 24.4469 11.5729 24.3797 11.5153 24.2974C11.4577 24.2151 11.4208 24.1201 11.4077 24.0205C11.3946 23.9208 11.4057 23.8195 11.4401 23.7251L12.3661 21.1807C12.4228 21.025 12.5392 20.8982 12.6894 20.8281C12.8397 20.7581 13.0116 20.7505 13.1673 20.8072C13.3231 20.8639 13.4499 20.9802 13.5199 21.1305C13.5899 21.2807 13.5975 21.4526 13.5407 21.6084L12.6144 24.1525C12.5706 24.2731 12.4908 24.3772 12.3858 24.4508C12.2807 24.5244 12.1556 24.564 12.0274 24.5641Z" fill="#AC660C"/>
<path d="M17.0274 24.5641C16.9269 24.5641 16.8278 24.5397 16.7387 24.4933C16.6495 24.4469 16.5729 24.3797 16.5153 24.2974C16.4577 24.2151 16.4208 24.1201 16.4077 24.0205C16.3946 23.9208 16.4057 23.8195 16.4401 23.7251L17.3661 21.1807C17.4228 21.025 17.5392 20.8982 17.6894 20.8281C17.8397 20.7581 18.0116 20.7505 18.1673 20.8072C18.3231 20.8639 18.4499 20.9802 18.5199 21.1305C18.5899 21.2807 18.5975 21.4526 18.5407 21.6084L17.6144 24.1525C17.5706 24.2731 17.4908 24.3772 17.3858 24.4508C17.2807 24.5244 17.1556 24.564 17.0274 24.5641Z" fill="#AC660C"/>
<path d="M19.5274 24.5641C19.4269 24.5641 19.3278 24.5397 19.2387 24.4933C19.1495 24.4469 19.0729 24.3797 19.0153 24.2973C18.9577 24.215 18.9208 24.1201 18.9077 24.0205C18.8946 23.9208 18.9057 23.8195 18.9401 23.725L19.8661 21.1807C19.8942 21.1036 19.9372 21.0327 19.9927 20.9722C20.0481 20.9116 20.115 20.8628 20.1894 20.8281C20.2638 20.7934 20.3442 20.7737 20.4262 20.7701C20.5082 20.7666 20.5902 20.7791 20.6673 20.8072C20.7444 20.8352 20.8152 20.8782 20.8757 20.9337C20.9363 20.9892 20.9852 21.056 21.0199 21.1304C21.0546 21.2048 21.0743 21.2853 21.0779 21.3673C21.0814 21.4493 21.0688 21.5312 21.0407 21.6083L20.1144 24.1525C20.0706 24.273 19.9908 24.3771 19.8858 24.4507C19.7807 24.5244 19.6556 24.564 19.5274 24.5641Z" fill="#AC660C"/>
</svg>
