<svg xmlns="http://www.w3.org/2000/svg" xmlns:android="http://schemas.android.com/apk/res/android" width="40dp" height="40dp" viewportWidth="40" viewportHeight="40">
	<path d="M20,20m-20,0a20,20 0,1 1,40 0a20,20 0,1 1,-40 0" fill="#b5b9ba"/>
	<path d="M20.007,30.3848a10.5,10.5 0,1 1,10.5 -10.5A10.512,10.512 0,0 1,20.007 30.3848ZM20.007,10.8848a9,9 0,1 0,9 9A9.01,9.01 0,0 0,20.007 10.8848Z" fill="#252525"/>
	<path d="M21.101,20.2412l0.826,3.138a1,1 0,0 1,-0.967 1.255h-1.72a1,1 0,0 1,-0.979 -1.206l0.674,-3.2a0.483,0.483 0,0 0,-0.115 -0.42,0.475 0.475,0 0,0 -0.1,-0.088 2.237,2.237 0,0 1,-0.838 -2.6l0.007,-0.018c0.017,-0.048 0.037,-0.095 0.057,-0.143a2.259,2.259 0,0 1,0.966 -1.049l0.055,-0.028 0.088,-0.043c0.045,-0.021 0.091,-0.04 0.136,-0.058l0.009,0a2.348,2.348 0,0 1,0.435 -0.117c0.032,0 0.065,-0.011 0.1,-0.015s0.055,-0.006 0.082,-0.008c0.05,0 0.1,-0.007 0.152,-0.008h0.05c0.066,0 0.131,0 0.2,0.01l0.087,0.011 0.088,0.014a2.239,2.239 0,0 1,0.916 4.037,0.514 0.514,0 0,0 -0.1,0.09A0.488,0.488 0,0 0,21.101 20.2412Z" fill="#252525"/>
</svg>
