<svg xmlns="http://www.w3.org/2000/svg" xmlns:android="http://schemas.android.com/apk/res/android" width="40dp" height="40dp" viewportWidth="40" viewportHeight="40">
	<path d="M20,20m-20,0a20,20 0,1 1,40 0a20,20 0,1 1,-40 0" fill="#b5b9ba"/>
	<path d="M18.1589,30.5h-6.911a1.718,1.718 0,0 1,-1.716 -1.716v-17.535a1.718,1.718 0,0 1,1.716 -1.716h12.243a1.718,1.718 0,0 1,1.716 1.716v5.549a0.75,0.75 0,0 1,-1.5 0v-5.549a0.217,0.217 0,0 0,-0.216 -0.216L11.2479,11.0332a0.217,0.217 0,0 0,-0.216 0.216v17.535a0.216,0.216 0,0 0,0.216 0.216h6.911a0.75,0.75 0,0 1,0 1.5Z" fill="#231f20"/>
	<path d="M29.082,30.227h-8.367a1,1 0,0 1,-0.993 -1,5.177 5.177,0 1,1 10.353,0A1,1 0,0 1,29.082 30.227ZM21.2549,28.727h7.287a3.671,3.671 0,0 0,-7.287 0Z" fill="#1d1c1a"/>
	<path d="M24.897,23.6929a2.653,2.653 0,1 1,2.631 -2.653A2.646,2.646 0,0 1,24.897 23.6929ZM24.897,19.8872a1.153,1.153 0,1 0,1.131 1.152A1.144,1.144 0,0 0,24.897 19.8872Z" fill="#1d1c1a"/>
	<path d="M17.071,15.0932h-3.276a0.75,0.75 0,0 1,0 -1.5L17.071,13.5932a0.75,0.75 0,0 1,0 1.5Z" fill="#231f20"/>
	<path d="M20.946,18.9399h-7.154a0.75,0.75 0,0 1,0 -1.5h7.154a0.75,0.75 0,0 1,0 1.5Z" fill="#231f20"/>
	<path d="M20.946,21.9399h-7.154a0.75,0.75 0,0 1,0 -1.5h7.154a0.75,0.75 0,0 1,0 1.5Z" fill="#231f20"/>
	<path d="M20.946,24.9399h-7.154a0.75,0.75 0,0 1,0 -1.5h7.154a0.75,0.75 0,0 1,0 1.5Z" fill="#231f20"/>
</svg>
