<svg xmlns="http://www.w3.org/2000/svg" xmlns:android="http://schemas.android.com/apk/res/android" width="40dp" height="40dp" viewportWidth="40" viewportHeight="40">
	<path d="M20,20m-20,0a20,20 0,1 1,40 0a20,20 0,1 1,-40 0" fill="#b5b9ba"/>
	<path d="M23.1159,22.8267h-6.231a0.934,0.934 0,0 1,-0.931 -0.936,4.047 4.047,0 1,1 8.093,0A0.934,0.934 0,0 1,23.1159 22.8267ZM17.516,21.3267h4.97a2.54,2.54 0,0 0,-4.97 0Z" fill="#252525"/>
	<path d="M20.0009,17.5064a2.167,2.167 0,1 1,2.151 -2.167A2.161,2.161 0,0 1,20.0009 17.5064ZM20.0009,14.6724a0.667,0.667 0,1 0,0.651 0.667A0.66,0.66 0,0 0,20.0009 14.6724Z" fill="#252525"/>
	<path d="M23.0129,10.9814a5.431,5.431 0,0 0,3.7 3.7v4.626a7.454,7.454 0,0 1,-2.212 5.279l-4.5,4.429 -4.5,-4.429a7.455,7.455 0,0 1,-2.211 -5.279v-4.626a5.431,5.431 0,0 0,3.7 -3.7h6.026m1.288,-1.5h-8.6a3.911,3.911 0,0 1,-3.91 3.91v5.914a8.909,8.909 0,0 0,2.659 6.349l4.51,4.438a1.487,1.487 0,0 0,2.085 0l4.51,-4.437a8.909,8.909 0,0 0,2.659 -6.349v-5.914a3.91,3.91 0,0 1,-3.91 -3.91Z" fill="#252525"/>
</svg>
