<svg xmlns="http://www.w3.org/2000/svg" xmlns:android="http://schemas.android.com/apk/res/android" width="40dp" height="40dp" viewportWidth="40" viewportHeight="40">
	<path d="M20,20m-20,0a20,20 0,1 1,40 0a20,20 0,1 1,-40 0" fill="#b5b9ba"/>
	<path d="M28.1741,27.8989h-2.168v-1.5h1.851v-15.4h-13.1v1.851h-1.5v-2.168a1.185,1.185 0,0 1,1.183 -1.183h13.73a1.185,1.185 0,0 1,1.183 1.183v16.032A1.185,1.185 0,0 1,28.1741 27.8989Z" fill="#252525"/>
	<path d="M17.493,21.1971a0.75,0.75 0,0 1,-0.53 -1.28l4.294,-4.294a0.75,0.75 0,0 1,1.061 1.061l-4.294,4.294A0.748,0.748 0,0 1,17.493 21.1971Z" fill="#252525"/>
	<path d="M17.493,21.1979a0.747,0.747 0,0 1,-0.53 -0.22l-1.9,-1.9a0.75,0.75 0,0 1,1.061 -1.061l1.9,1.9a0.75,0.75 0,0 1,-0.531 1.28Z" fill="#252525"/>
	<path d="M21.7869,24.521h-6.19a0.75,0.75 0,0 1,0 -1.5h6.19a0.75,0.75 0,0 1,0 1.5Z" fill="#252525"/>
	<path d="M21.7869,27.153h-6.19a0.75,0.75 0,0 1,0 -1.5h6.19a0.75,0.75 0,0 1,0 1.5Z" fill="#252525"/>
	<path d="M25.49,30.4999h-13.6a1.252,1.252 0,0 1,-1.25 -1.25v-15.9a1.251,1.251 0,0 1,1.25 -1.25h13.6a1.251,1.251 0,0 1,1.25 1.25v15.9A1.251,1.251 0,0 1,25.49 30.4999ZM12.144,28.9999h13.1v-15.4h-13.1Z" fill="#252525"/>
</svg>
