<svg width="145" height="144" viewBox="0 0 145 144" fill="none" xmlns="http://www.w3.org/2000/svg">
<g id="jiokrishi">
<g clip-path="url(#clip0_21799_16001)">
<g id="BG">
<path id="Vector" d="M144.178 0H0.177734V144H144.178V0Z" fill="#03753C"/>
</g>
<g id="Icon">
<path id="Vector_2" d="M87.4327 85.5H82.0327C80.6084 85.4881 79.2464 84.914 78.2434 83.9026C77.2404 82.8911 76.6777 81.5244 76.6777 80.1V79.2C76.6896 74.9071 78.4002 70.7935 81.4357 67.758C84.4713 64.7225 88.5849 63.0119 92.8778 63H98.2778C99.7099 63 101.083 63.5689 102.096 64.5816C103.109 65.5943 103.678 66.9678 103.678 68.4V69.3C103.666 73.6006 101.949 77.7211 98.9038 80.7579C95.8586 83.7947 91.7334 85.5 87.4327 85.5Z" fill="white"/>
<path id="Vector_3" d="M56.9227 85.5H62.3228C63.7471 85.4881 65.1091 84.914 66.1121 83.9026C67.1151 82.8911 67.6778 81.5244 67.6778 80.1V79.2C67.6659 74.9071 65.9553 70.7935 62.9198 67.758C59.8842 64.7225 55.7706 63.0119 51.4777 63H46.0777C44.6533 63 43.2866 63.5627 42.2752 64.5657C41.2638 65.5687 40.6896 66.9306 40.6777 68.355V69.255C40.6777 73.5634 42.3893 77.6954 45.4358 80.742C48.4823 83.7885 52.6143 85.5 56.9227 85.5Z" fill="white"/>
<path id="Vector_4" d="M87.4327 112.5H82.0327C80.6084 112.488 79.2464 111.914 78.2434 110.903C77.2404 109.891 76.6777 108.524 76.6777 107.1V106.2C76.6896 101.907 78.4002 97.7935 81.4357 94.758C84.4713 91.7225 88.5849 90.0119 92.8778 90H98.2778C99.7099 90 101.083 90.5689 102.096 91.5816C103.109 92.5943 103.678 93.9678 103.678 95.4V96.3C103.666 100.601 101.949 104.721 98.9038 107.758C95.8586 110.795 91.7334 112.5 87.4327 112.5Z" fill="white"/>
<path id="Vector_5" d="M56.9227 112.5H62.3228C63.7471 112.488 65.1091 111.914 66.1121 110.903C67.1151 109.891 67.6778 108.524 67.6778 107.1V106.2C67.6659 101.907 65.9553 97.7935 62.9198 94.758C59.8842 91.7225 55.7706 90.0119 51.4777 90H46.0777C44.6533 90 43.2866 90.5627 42.2752 91.5657C41.2638 92.5687 40.6896 93.9306 40.6777 95.355V96.255C40.6777 100.563 42.3893 104.695 45.4358 107.742C48.4823 110.788 52.6143 112.5 56.9227 112.5Z" fill="white"/>
<path id="Vector_6" d="M72.1777 63C70.9843 63 69.8397 62.5259 68.9958 61.682C68.1518 60.8381 67.6777 59.6935 67.6777 58.5V31.5C67.6777 30.3065 68.1518 29.1619 68.9958 28.318C69.8397 27.4741 70.9843 27 72.1777 27C73.3712 27 74.5158 27.4741 75.3597 28.318C76.2036 29.1619 76.6777 30.3065 76.6777 31.5V58.5C76.6777 59.6935 76.2036 60.8381 75.3597 61.682C74.5158 62.5259 73.3712 63 72.1777 63Z" fill="white"/>
<path id="Vector_7" d="M85.6777 58.5C84.4843 58.5 83.3397 58.0259 82.4958 57.182C81.6518 56.3381 81.1777 55.1935 81.1777 54V45C81.1777 43.8065 81.6518 42.6619 82.4958 41.818C83.3397 40.9741 84.4843 40.5 85.6777 40.5C86.8712 40.5 88.0158 40.9741 88.8597 41.818C89.7036 42.6619 90.1777 43.8065 90.1777 45V54C90.1777 55.1935 89.7036 56.3381 88.8597 57.182C88.0158 58.0259 86.8712 58.5 85.6777 58.5Z" fill="white"/>
<path id="Vector_8" d="M58.6777 58.5C57.4843 58.5 56.3397 58.0259 55.4958 57.182C54.6518 56.3381 54.1777 55.1935 54.1777 54V45C54.1777 43.8065 54.6518 42.6619 55.4958 41.818C56.3397 40.9741 57.4843 40.5 58.6777 40.5C59.8712 40.5 61.0158 40.9741 61.8597 41.818C62.7036 42.6619 63.1777 43.8065 63.1777 45V54C63.1777 55.1935 62.7036 56.3381 61.8597 57.182C61.0158 58.0259 59.8712 58.5 58.6777 58.5Z" fill="white"/>
</g>
</g>
</g>
<defs>
<clipPath id="clip0_21799_16001">
<rect x="0.177734" width="144" height="144" rx="72" fill="white"/>
</clipPath>
</defs>
</svg>
