<svg width="90" height="69" viewBox="0 0 90 69" fill="none" xmlns="http://www.w3.org/2000/svg">
<g id="Group 143108">
<path id="Path 90615" d="M0.202117 68.9977H89.7631L87.8631 65.1977C86.4541 62.38 84.1691 60.0953 81.3511 58.6867L78.5051 57.2637C76.6825 56.3524 75.0714 55.0688 73.7761 53.4957C72.4098 51.8378 70.6935 50.5029 68.7504 49.5866C66.8073 48.6703 64.6854 48.1953 62.5371 48.1957H61.3691C59.071 48.1881 56.8065 47.6436 54.7561 46.6058C50.1361 44.2858 41.1811 40.7498 36.9701 45.5848C35.3725 47.4752 33.3082 48.9148 30.9821 49.7607L28.2571 50.7087C26.1703 51.4349 24.293 52.6609 22.7891 54.2797C20.6097 56.6068 17.6861 58.0997 14.5231 58.5007C8.80013 59.2507 -0.105883 61.6097 0.202117 68.9977Z" fill="#936D46"/>
<path id="Path 90616" d="M0.202025 69.0005H89.764L87.864 65.2004C87.2023 63.8825 86.3438 62.673 85.318 61.6134L77.605 59.7715C70.483 58.0699 63.021 58.4627 56.117 60.9024L54.869 61.3434C48.3969 63.6309 41.426 64.1223 34.697 62.7654L28.362 61.4875C25.1734 60.8447 21.9154 60.6138 18.668 60.8005L4.53001 61.6144C1.92601 63.2154 0.0590245 65.5555 0.202025 69.0005Z" fill="#84623F"/>
<path id="Path 90617" d="M64.872 0.247986C64.7592 0.187751 64.65 0.120958 64.545 0.0479736L64.48 0C64.61 0.088 64.7406 0.170653 64.872 0.247986Z" fill="#FDD471"/>
<path id="Path 90618" d="M64.872 0.247986C64.7592 0.187751 64.65 0.120958 64.545 0.0479736L64.48 0C64.61 0.088 64.7406 0.170653 64.872 0.247986Z" fill="#FDD471"/>
<path id="Path 90620" d="M52.0691 56.8679C49.0691 45.6979 50.9691 34.1538 52.4291 22.9678C52.9721 18.7788 53.4421 14.5879 53.5771 10.3679C54.0941 4.88586 51.7851 1.81488 46.8981 6.05988C44.7768 7.91758 43.1252 10.2508 42.0781 12.8688C43.0004 10.173 44.5986 7.75878 46.7201 5.85688C48.9631 3.66888 52.3951 2.27284 53.8051 6.09784C54.1392 7.49873 54.2629 8.94154 54.1721 10.3788C54.1461 14.6218 53.7811 18.8609 53.3431 23.0739C52.7641 28.6889 52.0651 34.2849 51.9321 39.8829C51.6815 45.4461 52.3071 51.014 53.7861 56.3829L52.0691 56.8719V56.8679Z" fill="#005028"/>
<path id="Path 90621" d="M46.2551 2.41426C43.9114 1.92391 41.4838 2.00951 39.1805 2.66371C36.8772 3.31791 34.7671 4.52116 33.0311 6.17024C29.5829 9.53177 27.3538 13.9468 26.696 18.7172C27.9486 17.2648 29.5778 16.1862 31.4041 15.6002C32.9944 15.1754 34.6219 14.9045 36.2641 14.7913C38.6989 14.5685 41.0895 14.0001 43.364 13.1033C45.6485 12.1963 47.6184 10.642 49.032 8.63124C51.088 5.53224 49.5861 3.24126 46.2551 2.41426Z" fill="#005028"/>
<path id="Path 90622" d="M50.9572 53.4624C50.4965 53.1144 50.0298 52.775 49.5572 52.4444C47.7972 51.2164 45.8842 50.5953 43.8972 51.7163C43.0942 52.1923 42.4229 52.8614 41.9444 53.6629C41.4658 54.4643 41.1952 55.3727 41.1572 56.3054C41.1203 57.082 41.2594 57.8569 41.5642 58.5722C41.8689 59.2875 42.3314 59.9246 42.917 60.4361C43.5027 60.9475 44.1963 61.3199 44.9461 61.5255C45.696 61.7311 46.4826 61.7646 47.2472 61.6234C49.5394 61.1387 51.6109 59.9193 53.1472 58.1503C53.5324 57.8047 53.7908 57.34 53.8812 56.8303C53.9622 55.7903 53.0812 55.1494 52.3682 54.5694C51.9048 54.1914 51.4345 53.8224 50.9572 53.4624ZM43.3962 60.8144C43.3722 60.7964 43.3542 60.7854 43.3312 60.7664C43.4645 60.8557 43.5955 60.939 43.7242 61.0164C43.6109 60.9557 43.5014 60.8882 43.3962 60.8144Z" fill="#FDD471"/>
<path id="Path 90623" d="M50.117 10.3476C49.985 10.7346 49.836 11.1056 49.68 11.4476C48.4587 13.9264 46.7412 16.128 44.634 17.9157C42.434 19.9007 40.034 21.6537 37.954 23.7597C36.0377 25.7982 34.5644 28.2115 33.627 30.8476C32.5 25.1786 32.475 18.8556 35.15 13.5996C36.5141 10.9293 38.5095 8.6325 40.963 6.90864C42.85 5.58864 47.001 3.19364 49.228 4.88264C50.961 6.19964 50.76 8.45761 50.117 10.3476Z" fill="#03753C"/>
</g>
</svg>
