<svg width="40" height="40" viewBox="0 0 40 40" fill="none" xmlns="http://www.w3.org/2000/svg">
<g id="comma">
<path id="Vector" d="M6.77693 19.419C7.98489 18.6238 9.4187 18.2429 10.8621 18.3339C12.3054 18.4249 13.6801 18.9828 14.7786 19.9234C15.8772 20.864 16.6401 22.1363 16.9522 23.5485C17.2644 24.9606 17.1089 26.4359 16.5091 27.752C15.9094 29.068 14.898 30.1533 13.6274 30.8442C12.3569 31.535 10.8962 31.794 9.46554 31.582C8.03493 31.3701 6.71205 30.6986 5.69645 29.669C4.68085 28.6394 4.0276 27.3074 3.83526 25.874C3.22692 22.8857 2.99026 19.294 4.18026 16.0424C5.45693 12.559 8.28693 9.70236 13.3553 8.3757C13.7776 8.27865 14.2212 8.34992 14.5918 8.5744C14.9625 8.79889 15.2312 9.15893 15.3409 9.57817C15.4506 9.99742 15.3927 10.4429 15.1794 10.8202C14.9662 11.1974 14.6144 11.4768 14.1986 11.599C10.0986 12.6724 8.18193 14.8157 7.31026 17.189C7.05193 17.8974 6.87693 18.6457 6.77693 19.419Z" fill="#03753C"/>
<path id="Vector_2" d="M25.1109 19.419C26.3189 18.6238 27.7527 18.2429 29.196 18.3339C30.6394 18.4249 32.0141 18.9828 33.1126 19.9234C34.2112 20.864 34.9741 22.1363 35.2862 23.5485C35.5984 24.9606 35.4428 26.4359 34.8431 27.752C34.2434 29.068 33.232 30.1533 31.9614 30.8442C30.6909 31.535 29.2301 31.794 27.7995 31.582C26.3689 31.3701 25.046 30.6986 24.0304 29.669C23.0148 28.6394 22.3616 27.3074 22.1692 25.874C21.5609 22.8857 21.3242 19.294 22.5142 16.0424C23.7909 12.559 26.6209 9.70236 31.6892 8.3757C32.1116 8.27865 32.5551 8.34992 32.9258 8.5744C33.2965 8.79889 33.5652 9.15893 33.6749 9.57817C33.7846 9.99742 33.7267 10.4429 33.5134 10.8202C33.3002 11.1974 32.9483 11.4768 32.5326 11.599C28.4326 12.6724 26.5159 14.8157 25.6442 17.189C25.3859 17.8974 25.2109 18.6457 25.1109 19.419Z" fill="#03753C"/>
</g>
</svg>
