<svg width="18" height="18" viewBox="0 0 18 18" fill="none" xmlns="http://www.w3.org/2000/svg">
<g id="Group 2829" clip-path="url(#clip0_11234_152527)">
<g id="Group 2829_2">
<g id="Group 2828">
<g id="Group 2824">
<path id="Path 122" d="M8.82368 16.8363C7.79714 16.839 6.78011 16.6381 5.83173 16.2452C4.88336 15.8523 4.02234 15.2752 3.29853 14.5473C2.9001 14.1492 2.54584 13.7093 2.24165 13.2352C2.16558 13.1095 2.1415 12.959 2.17475 12.8158C2.208 12.6726 2.29592 12.5481 2.41962 12.4687C2.54332 12.3893 2.6931 12.3613 2.8371 12.3908C2.98111 12.4202 3.10797 12.5047 3.19062 12.6262C3.45147 13.032 3.75523 13.4085 4.09663 13.7492C5.03154 14.6841 6.22271 15.3208 7.51948 15.5788C8.81624 15.8367 10.1603 15.7044 11.3818 15.1984C12.6033 14.6924 13.6475 13.8356 14.382 12.7362C15.1166 11.6369 15.5085 10.3444 15.5085 9.02223C15.5085 7.70007 15.1166 6.40759 14.382 5.30825C13.6475 4.2089 12.6033 3.35206 11.3818 2.84609C10.1603 2.34012 8.81624 2.20777 7.51948 2.46572C6.22271 2.72366 5.03154 3.36033 4.09663 4.29524C3.75521 4.63599 3.45146 5.01248 3.19062 5.41823C3.10797 5.53977 2.98111 5.62428 2.8371 5.6537C2.6931 5.68313 2.54332 5.65514 2.41962 5.57576C2.29592 5.49638 2.208 5.37183 2.17475 5.22866C2.1415 5.08548 2.16558 4.93499 2.24165 4.80922C2.54584 4.3352 2.9001 3.89532 3.29853 3.49721C4.20708 2.58878 5.32563 1.91845 6.55512 1.54555C7.78462 1.17265 9.08725 1.10871 10.3474 1.35939C11.6075 1.61008 12.7863 2.16767 13.7795 2.98274C14.7726 3.79782 15.5493 4.84525 16.041 6.03224C16.5326 7.21924 16.7242 8.50918 16.5983 9.7878C16.4724 11.0664 16.033 12.2943 15.3193 13.3626C14.6055 14.4309 13.6393 15.3067 12.5063 15.9124C11.3732 16.5182 10.1085 16.8351 8.82368 16.8352V16.8363Z" fill="#03753C"/>
<path id="Path 123" d="M9.96411 9.58722H1.97412C1.82454 9.58722 1.68121 9.52783 1.57544 9.42206C1.46967 9.31629 1.41016 9.17284 1.41016 9.02325C1.41016 8.87367 1.46967 8.73022 1.57544 8.62445C1.68121 8.51868 1.82454 8.45923 1.97412 8.45923H9.96411C10.1137 8.45923 10.2573 8.51868 10.363 8.62445C10.4688 8.73022 10.5281 8.87367 10.5281 9.02325C10.5281 9.17284 10.4688 9.31629 10.363 9.42206C10.2573 9.52783 10.1137 9.58722 9.96411 9.58722Z" fill="#03753C"/>
</g>
<g id="Group 2827">
<g id="Group 2825">
<path id="Path 124" d="M9.95957 9.58725C9.8838 9.58738 9.80863 9.57219 9.73886 9.54263C9.6691 9.51308 9.60618 9.46977 9.55356 9.41525L7.01547 6.78324C6.91164 6.67556 6.8548 6.53106 6.85752 6.3815C6.86023 6.23194 6.9222 6.08958 7.02988 5.98575C7.13756 5.88192 7.28217 5.82513 7.43173 5.82785C7.58129 5.83057 7.72365 5.89254 7.82749 6.00022L10.3656 8.63223C10.4426 8.71188 10.4943 8.81244 10.5145 8.92136C10.5347 9.03028 10.5224 9.14276 10.4791 9.24472C10.4358 9.34669 10.3635 9.43363 10.2711 9.49472C10.1787 9.55582 10.0703 9.58833 9.95957 9.58823V9.58725Z" fill="#03753C"/>
</g>
<g id="Group 2826">
<path id="Path 125" d="M7.42572 12.2193C7.31495 12.2194 7.20661 12.1869 7.1142 12.1258C7.02179 12.0647 6.9495 11.9777 6.90619 11.8757C6.86289 11.7737 6.85059 11.6613 6.87079 11.5524C6.891 11.4435 6.94272 11.3429 7.01972 11.2633L9.55781 8.63126C9.60922 8.57794 9.67057 8.53529 9.73847 8.50571C9.80637 8.47612 9.8795 8.46018 9.95356 8.45883C10.0276 8.45749 10.1012 8.47074 10.1701 8.49783C10.239 8.52493 10.3021 8.56532 10.3554 8.61673C10.4087 8.66814 10.4513 8.72955 10.4809 8.79746C10.5105 8.86536 10.5264 8.93843 10.5278 9.01248C10.5291 9.08654 10.5158 9.16016 10.4887 9.2291C10.4616 9.29803 10.4212 9.36096 10.3698 9.41428L7.83173 12.0462C7.7792 12.1009 7.7162 12.1445 7.64643 12.1742C7.57666 12.204 7.50156 12.2193 7.42572 12.2193Z" fill="#03753C"/>
</g>
</g>
</g>
</g>
</g>
<defs>
<clipPath id="clip0_11234_152527">
<rect width="18" height="18" fill="white"/>
</clipPath>
</defs>
</svg>
