<svg width="14" height="14" viewBox="0 0 14 14" fill="none" xmlns="http://www.w3.org/2000/svg">
<g id="Group 3379">
<path id="Path 674" d="M11.4289 13.9109C11.3049 13.9109 11.184 13.9109 11.064 13.9019C10.2969 13.8714 9.54044 13.7126 8.82595 13.4319C7.00608 12.6727 5.36046 11.5497 3.98995 10.1319C2.71007 8.86638 1.68725 7.3652 0.977945 5.71097C0.566945 4.72397 -0.522052 2.10093 1.13795 0.691929C1.49424 0.368645 1.96118 0.194735 2.44215 0.206089C2.92311 0.217443 3.38131 0.413227 3.72195 0.752964C3.87695 0.932964 4.01395 1.11786 4.14695 1.29886C4.20795 1.38186 4.26896 1.46493 4.33096 1.54593L5.16496 2.63285C5.35915 2.83845 5.50667 3.0835 5.59745 3.35135C5.68823 3.6192 5.72013 3.90354 5.69096 4.18485C5.63083 4.51252 5.47933 4.81648 5.25395 5.0618C5.21195 5.1138 5.16895 5.16189 5.12795 5.22489C5.09297 5.27739 5.06969 5.33667 5.05969 5.39896C5.04968 5.46125 5.05318 5.52516 5.06996 5.58597C5.94291 6.80101 6.96679 7.90015 8.11695 8.85697C8.46295 9.12097 8.75296 9.14993 8.97996 8.94193C9.2819 8.62334 9.69309 8.43057 10.1311 8.40238C10.5692 8.37419 11.0017 8.51257 11.342 8.78983C11.529 8.93683 11.713 9.08976 11.897 9.24076L13.216 10.3169C13.4594 10.4866 13.6552 10.7159 13.7846 10.9829C13.914 11.25 13.9726 11.5456 13.9549 11.8418C13.9276 12.3357 13.7297 12.8049 13.395 13.169C13.141 13.4283 12.8335 13.629 12.4939 13.7571C12.1544 13.8853 11.7909 13.9377 11.4289 13.9109ZM2.47096 1.45194C2.27965 1.45489 2.09483 1.52172 1.94595 1.64188C1.07995 2.37488 1.63695 4.04186 2.13195 5.22586C2.77944 6.73156 3.71226 8.09764 4.87895 9.24881C6.12817 10.5453 7.62877 11.5732 9.28895 12.2698C9.87366 12.4985 10.4926 12.6277 11.12 12.6519C11.802 12.6829 12.18 12.6398 12.481 12.3128L12.4889 12.304C12.6206 12.1522 12.6977 11.9605 12.708 11.7598C12.718 11.5988 12.693 11.4988 12.426 11.2808L11.1009 10.1988C10.9249 10.0528 10.748 9.90788 10.568 9.76688C10.468 9.68488 10.22 9.49397 9.82395 9.85697C9.48457 10.1616 9.04397 10.3289 8.58794 10.3265C8.13192 10.324 7.69311 10.1519 7.35696 9.84378C6.75696 9.38378 4.08896 6.83199 3.85696 5.87699C3.79715 5.64464 3.78797 5.40201 3.83007 5.16581C3.87217 4.92961 3.96455 4.70522 4.10095 4.50785C4.15995 4.42185 4.22294 4.34383 4.28394 4.26883C4.40494 4.11883 4.44496 4.06885 4.45796 3.98685C4.48396 3.82185 4.39495 3.67475 4.17495 3.38675L3.34095 2.29984C3.27395 2.21284 3.20795 2.12297 3.14095 2.03397C3.01695 1.86597 2.89895 1.70678 2.77595 1.56278C2.73621 1.52383 2.68865 1.49378 2.63641 1.47464C2.58416 1.45551 2.52845 1.44788 2.47296 1.45194H2.47096Z" fill="#03753C"/>
</g>
</svg>
