<svg width="20" height="20" viewBox="0 0 20 20" fill="none" xmlns="http://www.w3.org/2000/svg">
<g id="Krishi 1" clip-path="url(#clip0_11234_152365)">
<g id="Group 8339">
<g id="Group 8338">
<path id="Path 7874" d="M9.99414 13.0077C9.82843 13.008 9.66959 13.0741 9.55252 13.1913C9.43544 13.3086 9.36914 13.4675 9.36914 13.6332V18.1821C9.37594 18.3433 9.44473 18.4957 9.5612 18.6073C9.67766 18.719 9.8328 18.7813 9.99414 18.7813C10.1555 18.7813 10.3106 18.719 10.4271 18.6073C10.5435 18.4957 10.6123 18.3433 10.6191 18.1821V13.6332C10.6193 13.551 10.6028 13.4697 10.5714 13.3937C10.54 13.3177 10.4939 13.2488 10.4358 13.1907C10.3776 13.1325 10.3088 13.0864 10.2329 13.055C10.1569 13.0236 10.0763 13.0075 9.99414 13.0077Z" fill="#03753C"/>
<path id="Path 7875" d="M7.44293 13.0268C7.28159 12.9884 7.1111 13.0156 6.96984 13.1025C6.82857 13.1893 6.72839 13.3288 6.68989 13.4901L5.65148 17.84C5.63243 17.9198 5.62984 18.0027 5.6428 18.0837C5.65575 18.1648 5.68446 18.2424 5.72743 18.3123C5.7704 18.3822 5.82699 18.4429 5.89345 18.4911C5.9599 18.5392 6.03499 18.5737 6.1148 18.5928C6.19462 18.6118 6.27683 18.615 6.35786 18.602C6.43888 18.589 6.5169 18.5603 6.58681 18.5174C6.65671 18.4744 6.71771 18.4181 6.76584 18.3516C6.81398 18.2852 6.8488 18.2098 6.86784 18.13L7.90517 13.7801C7.9245 13.7003 7.92772 13.6173 7.91493 13.5362C7.90214 13.4551 7.87325 13.3773 7.8303 13.3073C7.78734 13.2373 7.73082 13.1765 7.66428 13.1284C7.59774 13.0802 7.52285 13.0457 7.44293 13.0268Z" fill="#03753C"/>
<path id="Path 7876" d="M4.75929 13.0299C4.68788 12.9892 4.60972 12.9631 4.52817 12.9529C4.44663 12.9426 4.36328 12.9486 4.28403 12.9704C4.20479 12.9921 4.13081 13.0292 4.06593 13.0797C4.00106 13.1301 3.94705 13.1928 3.90643 13.2643L1.32613 17.7977C1.24406 17.9419 1.22249 18.1128 1.26646 18.2728C1.31042 18.4328 1.41626 18.5689 1.56051 18.651C1.70476 18.733 1.87574 18.7545 2.03577 18.7105C2.1958 18.6665 2.33239 18.5608 2.41446 18.4166L4.99367 13.8832C5.03433 13.8118 5.06048 13.7331 5.07071 13.6515C5.08093 13.57 5.07512 13.4872 5.05335 13.4079C5.03157 13.3287 4.99421 13.2545 4.94376 13.1897C4.8933 13.1248 4.83074 13.0705 4.75929 13.0299Z" fill="#03753C"/>
<path id="Path 7877" d="M13.2971 13.49C13.2781 13.4102 13.2433 13.3348 13.1951 13.2683C13.147 13.2019 13.0871 13.1456 13.0172 13.1026C12.9473 13.0596 12.8693 13.0309 12.7882 13.018C12.7072 13.005 12.6239 13.0081 12.5441 13.0272C12.4643 13.0462 12.3892 13.0808 12.3227 13.1289C12.2563 13.177 12.1997 13.2378 12.1567 13.3077C12.1138 13.3776 12.085 13.4553 12.0721 13.5364C12.0591 13.6174 12.0628 13.7001 12.0819 13.78L13.1192 18.1299C13.1609 18.2878 13.2634 18.4232 13.4035 18.5071C13.5436 18.5909 13.7101 18.6167 13.869 18.5788C14.0278 18.5409 14.1659 18.4425 14.2531 18.3044C14.3403 18.1664 14.3707 17.9996 14.3366 17.8399L13.2971 13.49Z" fill="#03753C"/>
<path id="Path 7878" d="M16.0796 13.2622C15.997 13.1189 15.8605 13.0142 15.7009 12.971C15.5413 12.9277 15.3715 12.9495 15.2278 13.0315C15.0842 13.1134 14.9788 13.249 14.9348 13.4084C14.8908 13.5678 14.9111 13.7381 14.9924 13.8822L17.5889 18.4267C17.6296 18.498 17.6846 18.5605 17.7495 18.6108C17.8144 18.661 17.8884 18.6981 17.9676 18.7197C18.0468 18.7413 18.1292 18.7471 18.2107 18.7368C18.2921 18.7264 18.3705 18.7002 18.4418 18.6595C18.5131 18.6187 18.576 18.5644 18.6263 18.4995C18.6765 18.4347 18.7131 18.3605 18.7348 18.2813C18.7564 18.2021 18.7625 18.1194 18.7521 18.038C18.7418 17.9565 18.7158 17.8779 18.6751 17.8066L16.0796 13.2622Z" fill="#03753C"/>
<path id="Path 7879" d="M3.13546 9.61223V10.8066H1.90173C1.74053 10.8134 1.58913 10.8822 1.47747 10.9987C1.36581 11.1151 1.30277 11.2703 1.30277 11.4316C1.30277 11.593 1.36581 11.7481 1.47747 11.8646C1.58913 11.981 1.74053 12.0498 1.90173 12.0566H18.1333C18.2176 12.0602 18.3018 12.0467 18.3807 12.0169C18.4596 11.9871 18.5314 11.9415 18.5923 11.8831C18.6532 11.8248 18.7024 11.7547 18.7355 11.6771C18.7686 11.5995 18.7854 11.516 18.7854 11.4316C18.7854 11.3473 18.7686 11.2637 18.7355 11.1861C18.7024 11.1085 18.6532 11.0385 18.5923 10.9801C18.5314 10.9217 18.4596 10.8762 18.3807 10.8464C18.3018 10.8166 18.2176 10.8031 18.1333 10.8066H17.6407V6.15222C17.7398 6.28482 17.888 6.37257 18.0519 6.39622C18.2158 6.41987 18.3826 6.37738 18.5152 6.27822C18.6478 6.17906 18.7357 6.03141 18.7594 5.86752C18.783 5.70364 18.7403 5.53694 18.6411 5.40433L16.6576 2.65544C16.5828 2.55231 16.4786 2.47477 16.3581 2.43328L12.9358 1.23333L12.9098 1.22776C12.8898 1.22221 12.869 1.21659 12.8479 1.21325C12.8268 1.20992 12.8093 1.20555 12.7893 1.20444C12.769 1.20334 12.7478 1.20334 12.7275 1.20444C12.7067 1.20334 12.6863 1.20334 12.6656 1.20444C12.6456 1.20444 12.627 1.20992 12.607 1.21325C12.587 1.21659 12.5652 1.22221 12.5441 1.22776L12.5191 1.23441L9.09683 2.43436C8.97654 2.47617 8.87131 2.55378 8.79626 2.65667L6.81384 5.40555C6.76584 5.47209 6.73074 5.54734 6.71185 5.62718C6.69296 5.70702 6.69006 5.78992 6.70317 5.87091C6.71627 5.95191 6.74579 6.02951 6.78889 6.09932C6.83199 6.16913 6.88837 6.22967 6.9549 6.27768C7.02144 6.32568 7.09641 6.36011 7.17626 6.379C7.2561 6.39789 7.33832 6.40092 7.41931 6.38781C7.50031 6.37471 7.57845 6.34574 7.64826 6.30263C7.71807 6.25953 7.77821 6.20316 7.82621 6.13662L7.84683 6.1099V10.8066H4.38654V9.56991C4.96368 9.23691 5.42824 8.73892 5.72009 8.13993C7.02232 5.85215 5.76534 3.56333 4.89978 2.40222C4.7647 2.21962 4.58883 2.07162 4.38546 1.97049C4.18209 1.86937 3.95719 1.81799 3.73008 1.82048C3.50296 1.82298 3.28013 1.8793 3.07903 1.98487C2.87793 2.09044 2.70442 2.2422 2.57339 2.42772C1.75228 3.58549 0.555353 5.85881 1.75091 8.10548C2.02552 8.75188 2.51454 9.28404 3.13546 9.61223ZM11.7867 9.31886L11.0738 9.95444V8.68328L11.7867 9.31886ZM12.7264 10.1567L13.4545 10.8066H11.9961L12.7264 10.1567ZM14.3779 9.95444L13.665 9.31886L14.3779 8.68328V9.95444ZM12.7264 8.48105L11.9788 7.81441H13.4729L12.7264 8.48105ZM9.0914 4.38437L9.69579 3.54547L12.7275 2.48224L15.7592 3.54547L16.3928 4.42546C16.3928 4.43102 16.3928 4.43657 16.3928 4.44323V10.8066H15.63V7.36221C15.63 7.15033 15.5455 6.94711 15.3957 6.79729C15.2458 6.64747 15.0433 6.56332 14.8314 6.56332H10.6246C10.4127 6.56332 10.2091 6.64747 10.0593 6.79729C9.90946 6.94711 9.826 7.15033 9.826 7.36221V10.8066H9.09791V4.44323C9.09569 4.42434 9.09143 4.40545 9.09032 4.38545L9.0914 4.38437ZM3.59227 3.15105C3.60869 3.12625 3.63121 3.10592 3.65738 3.09178C3.68354 3.07763 3.71227 3.07011 3.74201 3.06994C3.77192 3.06976 3.80215 3.07676 3.82882 3.09029C3.85549 3.10381 3.87749 3.12356 3.89501 3.1478C4.72834 4.26668 5.53291 5.93439 4.63068 7.51995C4.55506 7.65257 4.47308 7.7813 4.38437 7.90555V6.48655C4.38793 6.40226 4.37403 6.31822 4.34422 6.23929C4.31442 6.16037 4.26915 6.0882 4.21076 6.0273C4.15237 5.9664 4.0822 5.91799 4.0046 5.88488C3.927 5.85178 3.84374 5.8347 3.75937 5.8347C3.675 5.8347 3.59175 5.85178 3.51415 5.88488C3.43654 5.91799 3.36637 5.9664 3.30798 6.0273C3.2496 6.0882 3.20433 6.16037 3.17452 6.23929C3.14471 6.31822 3.13082 6.40226 3.13437 6.48655V8.01433C3.03628 7.87812 2.95228 7.73262 2.88264 7.5799C2.87586 7.5635 2.86753 7.54758 2.85876 7.53215C1.96543 5.8766 2.93452 4.07658 3.59119 3.15214L3.59227 3.15105Z" fill="#03753C"/>
</g>
</g>
</g>
<defs>
<clipPath id="clip0_11234_152365">
<rect width="20" height="20" fill="white"/>
</clipPath>
</defs>
</svg>
