<svg width="20" height="20" viewBox="0 0 20 20" fill="none" xmlns="http://www.w3.org/2000/svg">
<g id="Settings" clip-path="url(#clip0_11234_152460)">
<g id="Group 4548">
<g id="Group 4547">
<path id="Path 2134" d="M10.8653 18.6983H9.17364C8.70097 18.6977 8.24785 18.5096 7.91372 18.1753C7.57959 17.8409 7.39172 17.3878 7.39134 16.9151V16.2982C7.39217 16.2015 7.36622 16.1063 7.31637 16.0234C7.26651 15.9404 7.19469 15.8729 7.10885 15.8282C6.86049 15.7048 6.62027 15.5657 6.38967 15.4116C6.3082 15.359 6.21373 15.3301 6.11677 15.328C6.01981 15.3259 5.92418 15.3507 5.84051 15.3998L5.27592 15.7261C4.98411 15.89 4.65214 15.9685 4.31781 15.953C3.98348 15.9374 3.66024 15.8285 3.38489 15.6382C3.17968 15.4934 3.00971 15.3041 2.88759 15.0846L2.02509 13.5897C1.78937 13.18 1.72564 12.6935 1.84787 12.2369C1.9701 11.7804 2.26831 11.391 2.67717 11.154L3.21155 10.8449C3.29819 10.7941 3.36883 10.7199 3.41542 10.6309C3.46201 10.5419 3.48268 10.4416 3.47509 10.3414C3.46634 10.1983 3.46634 9.69778 3.47509 9.55444C3.48261 9.45432 3.46192 9.3541 3.41538 9.26514C3.36884 9.17617 3.2983 9.10202 3.21176 9.05111L2.67717 8.74227C2.28824 8.51066 2.0003 8.14171 1.8702 7.70813C1.7401 7.27455 1.7773 6.80783 1.97447 6.40035C1.9853 6.37952 1.99321 6.3631 2.88821 4.81018C3.05626 4.52014 3.30365 4.28408 3.60127 4.12984C3.89889 3.97561 4.23435 3.90969 4.56822 3.93962C4.81795 3.9619 5.05942 4.04015 5.27468 4.1687L5.84051 4.49585C5.92419 4.54503 6.01991 4.56984 6.11695 4.56767C6.21398 4.5655 6.3085 4.53651 6.38989 4.48364C6.62039 4.32976 6.86038 4.19059 7.10843 4.06698C7.19438 4.02245 7.26631 3.95479 7.31625 3.87187C7.36619 3.78894 7.39218 3.6938 7.39134 3.59701V2.97994C7.39178 2.50731 7.57967 2.05425 7.9138 1.71997C8.24792 1.38569 8.70101 1.19756 9.17364 1.1969H10.8653C11.3379 1.19756 11.791 1.38569 12.1251 1.71997C12.4593 2.05425 12.6472 2.50731 12.6476 2.97994V3.59721C12.6468 3.6939 12.6727 3.78902 12.7226 3.87187C12.7724 3.95471 12.8443 4.02203 12.9301 4.06657C13.1783 4.19022 13.4185 4.32939 13.6493 4.48324C13.7307 4.53593 13.8251 4.56513 13.922 4.56726C14.019 4.56939 14.1146 4.5445 14.1982 4.49544L14.733 4.1862C14.9358 4.06912 15.1596 3.99314 15.3917 3.96261C15.6238 3.93207 15.8597 3.94753 16.0858 4.00818C16.312 4.06883 16.5239 4.1736 16.7096 4.3162C16.8953 4.45881 17.0511 4.63645 17.168 4.83927L18.0311 6.33586C18.197 6.6259 18.2772 6.95706 18.2625 7.29085C18.2477 7.62465 18.1386 7.94735 17.9478 8.22164C17.8032 8.42881 17.6134 8.60046 17.3928 8.72355L16.8272 9.0505C16.7405 9.10131 16.6699 9.17534 16.6233 9.26432C16.5767 9.35331 16.556 9.45368 16.5636 9.55383C16.5724 9.69738 16.5724 10.1975 16.5636 10.3406C16.556 10.4408 16.5766 10.5412 16.6232 10.6303C16.6698 10.7194 16.7405 10.7935 16.8272 10.8443L17.3924 11.1711C17.6119 11.2936 17.8009 11.464 17.9453 11.6697C18.1372 11.9441 18.2472 12.2674 18.2624 12.6019C18.2775 12.9364 18.1973 13.2684 18.0309 13.559L17.1505 15.0852C17.0358 15.2841 16.883 15.4583 16.7009 15.5981C16.5188 15.738 16.3109 15.8406 16.0892 15.9001C15.8674 15.9595 15.6361 15.9746 15.4085 15.9446C15.1809 15.9146 14.9614 15.8402 14.7626 15.7253L14.198 15.3992C14.1143 15.3502 14.0187 15.3254 13.9217 15.3276C13.8248 15.3297 13.7303 15.3586 13.6488 15.4112C13.4184 15.5652 13.1784 15.7044 12.9303 15.8278C12.8444 15.8724 12.7724 15.94 12.7225 16.023C12.6726 16.1059 12.6466 16.2012 12.6474 16.298V16.9149C12.647 17.3875 12.4592 17.8407 12.1251 18.175C11.7911 18.5094 11.338 18.6976 10.8653 18.6983ZM6.10739 14.08C6.45438 14.0788 6.79397 14.1804 7.08343 14.3717C7.26991 14.4963 7.4642 14.6086 7.66509 14.7083C7.95867 14.8572 8.20528 15.0845 8.37759 15.365C8.5499 15.6455 8.64118 15.9682 8.64134 16.2974V16.9145C8.64145 17.0557 8.69754 17.1911 8.79731 17.2911C8.89708 17.391 9.03241 17.4473 9.17364 17.4477H10.8653C11.0066 17.4474 11.1419 17.391 11.2417 17.2911C11.3415 17.1911 11.3975 17.0557 11.3976 16.9145V16.2974C11.3977 15.9682 11.4891 15.6455 11.6614 15.365C11.8338 15.0845 12.0804 14.8571 12.3741 14.7083C12.5747 14.6085 12.7689 14.4963 12.9553 14.3719C13.2312 14.1908 13.5518 14.0897 13.8817 14.08C14.2115 14.0703 14.5376 14.1522 14.8236 14.3168L15.3884 14.6434C15.5034 14.7063 15.6383 14.7226 15.7649 14.6885C15.8915 14.6545 16.0001 14.5728 16.068 14.4607L16.9484 12.9346C16.9977 12.8478 17.0206 12.7485 17.0142 12.6489C17.0078 12.5494 16.9725 12.454 16.9126 12.3743C16.8729 12.3244 16.8232 12.2833 16.7668 12.2538L16.2016 11.9273C15.9133 11.7607 15.6774 11.5168 15.5208 11.2229C15.3643 10.9291 15.2932 10.5973 15.3157 10.2651C15.3213 10.1734 15.3213 9.72325 15.3157 9.63013C15.2932 9.29799 15.3642 8.96625 15.5208 8.67249C15.6774 8.37872 15.9133 8.13479 16.2016 7.96834L16.767 7.64119C16.8236 7.61182 16.8733 7.57068 16.9128 7.52055C16.9724 7.44071 17.0075 7.34534 17.0138 7.24589C17.02 7.14644 16.9972 7.04733 16.948 6.96065L16.0851 5.46427C16.0502 5.40372 16.0037 5.35081 15.9483 5.30823C15.8929 5.26564 15.8296 5.2344 15.7621 5.21627C15.6946 5.19814 15.6242 5.19334 15.5549 5.20243C15.4856 5.21152 15.4187 5.23424 15.3582 5.26917L14.8234 5.57821C14.5375 5.7429 14.2114 5.8249 13.8816 5.81523C13.5518 5.80555 13.2311 5.70445 12.9553 5.52327C12.7685 5.39894 12.5741 5.28639 12.3732 5.18636C12.0798 5.03747 11.8333 4.81041 11.661 4.53003C11.4888 4.24965 11.3975 3.92688 11.3974 3.59782V2.98055C11.3973 2.83932 11.3413 2.70391 11.2415 2.60396C11.1417 2.50402 11.0063 2.44779 10.8651 2.44751H9.17342C9.03221 2.44784 8.89688 2.50403 8.7971 2.60396C8.69733 2.7039 8.64124 2.83933 8.64113 2.98055V3.59762C8.64099 3.92679 8.5497 4.24957 8.37739 4.53003C8.20507 4.81049 7.95846 5.03788 7.66489 5.18677C7.46423 5.28666 7.27003 5.39888 7.08343 5.52307C6.8076 5.70435 6.48684 5.80555 6.15691 5.81523C5.82699 5.8249 5.50087 5.74281 5.21489 5.578L4.64905 5.25126C4.59543 5.21734 4.53534 5.19484 4.4726 5.18534C4.37383 5.17338 4.27372 5.19059 4.18459 5.23478C4.09546 5.27898 4.02119 5.34831 3.97093 5.43416C3.97093 5.43416 3.17926 6.80919 3.08718 6.9694C3.03492 7.09121 3.0279 7.22761 3.0674 7.35413C3.1069 7.48065 3.19031 7.58886 3.30259 7.6593L3.83697 7.96834C4.12525 8.13485 4.36105 8.37889 4.5176 8.67269C4.67415 8.96649 4.74517 9.29819 4.72259 9.63033C4.71675 9.72241 4.71675 10.1722 4.72259 10.2651C4.74508 10.5973 4.67404 10.9289 4.5175 11.2227C4.36096 11.5166 4.1252 11.7607 3.83697 11.9273L3.30259 12.2361C3.18013 12.307 3.09082 12.4235 3.05426 12.5602C3.0177 12.6969 3.03688 12.8427 3.1076 12.9653L3.9703 14.4607C4.00041 14.5179 4.04222 14.5683 4.09301 14.6084C4.1726 14.6672 4.26747 14.7019 4.36627 14.7083C4.46507 14.7146 4.56362 14.6924 4.6501 14.6442L5.21509 14.3174C5.48656 14.1614 5.79428 14.0796 6.10739 14.08Z" fill="#03753C"/>
<path id="Path 2135" d="M10.0247 13.5942C9.30367 13.5942 8.59878 13.3804 7.99923 12.9798C7.39967 12.5792 6.93237 12.0098 6.65643 11.3436C6.38049 10.6775 6.30829 9.94434 6.44896 9.23712C6.58964 8.52989 6.93687 7.88034 7.44675 7.37046C7.95663 6.86058 8.60626 6.51321 9.31348 6.37253C10.0207 6.23186 10.7538 6.30411 11.4199 6.58005C12.0861 6.856 12.6555 7.32327 13.0561 7.92283C13.4568 8.52238 13.6706 9.2273 13.6706 9.94838C13.6695 10.915 13.285 11.8416 12.6015 12.5251C11.918 13.2086 10.9913 13.5931 10.0247 13.5942ZM10.0247 7.55255C9.55089 7.55255 9.08769 7.69314 8.69369 7.95639C8.2997 8.21965 7.99261 8.59385 7.81128 9.03163C7.62994 9.46941 7.5825 9.95096 7.67494 10.4157C7.76739 10.8805 7.99557 11.3074 8.33064 11.6425C8.6657 11.9776 9.0926 12.2058 9.55734 12.2982C10.0221 12.3907 10.5038 12.3433 10.9416 12.1619C11.3794 11.9806 11.7535 11.6733 12.0168 11.2794C12.2801 10.8854 12.4206 10.4222 12.4206 9.94838C12.4199 9.31318 12.1672 8.70421 11.7181 8.25506C11.2689 7.80591 10.6599 7.55326 10.0247 7.55255Z" fill="#03753C"/>
</g>
</g>
</g>
<defs>
<clipPath id="clip0_11234_152460">
<rect width="20" height="20" fill="white"/>
</clipPath>
</defs>
</svg>
