<svg width="20" height="20" viewBox="0 0 20 20" fill="none" xmlns="http://www.w3.org/2000/svg">
<g id="solar:documents-outline">
<path id="Vector" fill-rule="evenodd" clip-rule="evenodd" d="M9.12018 1.04163H10.8785C12.0177 1.04163 12.9368 1.04163 13.6593 1.13913C14.4093 1.23913 15.041 1.45579 15.5427 1.95663C15.791 2.20579 15.9693 2.48663 16.0985 2.79829C16.8752 2.89496 17.5277 3.10829 18.0427 3.62329C18.5443 4.12496 18.7593 4.75663 18.861 5.50663C18.9577 6.22913 18.9577 7.14829 18.9577 8.28746V11.7125C18.9577 12.8516 18.9577 13.7708 18.861 14.4933C18.7593 15.2433 18.5443 15.875 18.0427 16.3766C17.5277 16.8916 16.876 17.105 16.0985 17.2025C15.9693 17.5133 15.791 17.7941 15.5427 18.0433C15.041 18.545 14.4093 18.76 13.6593 18.8616C12.9368 18.9583 12.0177 18.9583 10.8785 18.9583H9.12018C7.98102 18.9583 7.06185 18.9583 6.33935 18.8616C5.58935 18.76 4.95768 18.545 4.45602 18.0433C4.21657 17.8028 4.02759 17.517 3.90018 17.2025C3.12352 17.105 2.47102 16.8916 1.95602 16.3766C1.45435 15.875 1.23935 15.2433 1.13852 14.4933C1.04102 13.7708 1.04102 12.8516 1.04102 11.7125V8.28746C1.04102 7.14829 1.04102 6.22913 1.13852 5.50663C1.23852 4.75663 1.45518 4.12496 1.95602 3.62329C2.47102 3.10829 3.12268 2.89496 3.90018 2.79829C4.02777 2.48363 4.21672 2.19752 4.45602 1.95663C4.95768 1.45496 5.58935 1.23996 6.33935 1.13913C7.06185 1.04163 7.98102 1.04163 9.12018 1.04163ZM3.60602 4.11663C3.24185 4.20496 3.01435 4.33329 2.84018 4.50829C2.60935 4.73829 2.45935 5.06163 2.37685 5.67329C2.29268 6.30329 2.29102 7.13746 2.29102 8.33329V11.6666C2.29102 12.8625 2.29268 13.6975 2.37685 14.3266C2.45935 14.9383 2.61018 15.2616 2.84018 15.4925C3.01435 15.6666 3.24185 15.795 3.60685 15.8833C3.54102 15.2066 3.54102 14.3783 3.54102 13.3791V6.62079C3.54102 5.62246 3.54102 4.79329 3.60602 4.11663ZM16.3927 15.8833C16.7568 15.795 16.9843 15.6666 17.1585 15.4925C17.3893 15.2616 17.5393 14.9383 17.6218 14.3258C17.706 13.6975 17.7077 12.8633 17.7077 11.6675V8.33413C17.7077 7.13746 17.706 6.30329 17.6218 5.67329C17.5393 5.06163 17.3885 4.73829 17.1585 4.50746C16.9843 4.33329 16.7568 4.20496 16.3918 4.11663C16.4577 4.79329 16.4577 5.62246 16.4577 6.62079V13.3791C16.4577 14.3775 16.4577 15.2066 16.3927 15.8833ZM6.50602 2.37746C5.89435 2.45996 5.57102 2.61079 5.34018 2.84079C5.10935 3.07163 4.95935 3.39496 4.87685 4.00746C4.79268 4.63496 4.79102 5.46996 4.79102 6.66663V13.3333C4.79102 14.5291 4.79268 15.3633 4.87685 15.9933C4.95935 16.605 5.11018 16.9283 5.34018 17.1591C5.57102 17.39 5.89435 17.54 6.50685 17.6225C7.13518 17.7066 7.97018 17.7083 9.16602 17.7083H10.8327C12.0285 17.7083 12.8635 17.7066 13.4927 17.6225C14.1043 17.54 14.4277 17.3891 14.6585 17.1591C14.8893 16.9283 15.0393 16.605 15.1218 15.9925C15.206 15.3633 15.2077 14.5291 15.2077 13.3333V6.66663C15.2077 5.47079 15.206 4.63579 15.1218 4.00663C15.0393 3.39496 14.8885 3.07163 14.6585 2.84079C14.4277 2.60996 14.1043 2.45996 13.4918 2.37746C12.8635 2.29329 12.0285 2.29163 10.8327 2.29163H9.16602C7.97018 2.29163 7.13518 2.29329 6.50602 2.37746ZM6.87435 7.49996C6.87435 7.3342 6.9402 7.17523 7.05741 7.05802C7.17462 6.94081 7.33359 6.87496 7.49935 6.87496H12.4993C12.6651 6.87496 12.8241 6.94081 12.9413 7.05802C13.0585 7.17523 13.1243 7.3342 13.1243 7.49996C13.1243 7.66572 13.0585 7.82469 12.9413 7.9419C12.8241 8.05911 12.6651 8.12496 12.4993 8.12496H7.49935C7.33359 8.12496 7.17462 8.05911 7.05741 7.9419C6.9402 7.82469 6.87435 7.66572 6.87435 7.49996ZM6.87435 10.8333C6.87435 10.6675 6.9402 10.5086 7.05741 10.3914C7.17462 10.2741 7.33359 10.2083 7.49935 10.2083H12.4993C12.6651 10.2083 12.8241 10.2741 12.9413 10.3914C13.0585 10.5086 13.1243 10.6675 13.1243 10.8333C13.1243 10.9991 13.0585 11.158 12.9413 11.2752C12.8241 11.3924 12.6651 11.4583 12.4993 11.4583H7.49935C7.33359 11.4583 7.17462 11.3924 7.05741 11.2752C6.9402 11.158 6.87435 10.9991 6.87435 10.8333ZM6.87435 14.1666C6.87435 14.0009 6.9402 13.8419 7.05741 13.7247C7.17462 13.6075 7.33359 13.5416 7.49935 13.5416H9.99935C10.1651 13.5416 10.3241 13.6075 10.4413 13.7247C10.5585 13.8419 10.6243 14.0009 10.6243 14.1666C10.6243 14.3324 10.5585 14.4914 10.4413 14.6086C10.3241 14.7258 10.1651 14.7916 9.99935 14.7916H7.49935C7.33359 14.7916 7.17462 14.7258 7.05741 14.6086C6.9402 14.4914 6.87435 14.3324 6.87435 14.1666Z" fill="#03753C"/>
</g>
</svg>
