<svg width="49" height="49" viewBox="0 0 49 49" fill="none" xmlns="http://www.w3.org/2000/svg">
<g id="Group 44684">
<g id="Group 35620">
<g id="Group 989">
<path id="Path 1849" d="M20.075 18.8018C20.075 18.9375 20.0211 19.0678 19.9251 19.1638C19.829 19.2598 19.6988 19.3137 19.563 19.3137C19.4272 19.3137 19.2969 19.2598 19.2009 19.1638C19.1049 19.0678 19.051 18.9375 19.051 18.8018C18.9775 18.7061 18.9321 18.5917 18.9202 18.4717C18.9082 18.3516 18.9301 18.2308 18.9834 18.1226C19.0367 18.0143 19.1193 17.9231 19.2217 17.8594C19.3241 17.7956 19.4423 17.7617 19.563 17.7617C19.6836 17.7617 19.8019 17.7956 19.9043 17.8594C20.0067 17.9231 20.0893 18.0143 20.1426 18.1226C20.1959 18.2308 20.2178 18.3516 20.2058 18.4717C20.1939 18.5917 20.1485 18.7061 20.075 18.8018Z" fill="#00B2EF"/>
<path id="Path 1850" d="M21.3249 21.4309C21.3249 21.5668 21.2708 21.6971 21.1747 21.7932C21.0786 21.8893 20.9483 21.9434 20.8124 21.9434C20.6765 21.9434 20.546 21.8893 20.4499 21.7932C20.3538 21.6971 20.3 21.5668 20.3 21.4309C20.2266 21.3353 20.1812 21.2211 20.1694 21.1011C20.1575 20.9811 20.1797 20.8601 20.2331 20.752C20.2864 20.6438 20.3687 20.5527 20.4711 20.489C20.5735 20.4253 20.6918 20.3916 20.8124 20.3916C20.933 20.3916 21.0511 20.4253 21.1535 20.489C21.2559 20.5527 21.3384 20.6438 21.3918 20.752C21.4451 20.8601 21.4671 20.9811 21.4552 21.1011C21.4434 21.2211 21.3983 21.3353 21.3249 21.4309Z" fill="#00B2EF"/>
<path id="Path 1851" d="M20.1072 24.4141C20.1072 24.4813 20.0938 24.5477 20.0681 24.6099C20.0424 24.672 20.0046 24.7286 19.957 24.7761C19.9095 24.8237 19.8531 24.8612 19.791 24.887C19.7289 24.9127 19.6622 24.926 19.595 24.926C19.5277 24.926 19.4613 24.9127 19.3992 24.887C19.337 24.8612 19.2804 24.8237 19.2329 24.7761C19.1853 24.7286 19.1478 24.672 19.1221 24.6099C19.0963 24.5477 19.083 24.4813 19.083 24.4141C19.0094 24.3184 18.9641 24.204 18.9521 24.084C18.9402 23.9639 18.9623 23.8429 19.0156 23.7346C19.0689 23.6264 19.1512 23.5354 19.2536 23.4717C19.3561 23.4079 19.4743 23.374 19.595 23.374C19.7156 23.374 19.8338 23.4079 19.9363 23.4717C20.0387 23.5354 20.1213 23.6264 20.1745 23.7346C20.2278 23.8429 20.2497 23.9639 20.2378 24.084C20.2258 24.204 20.1807 24.3184 20.1072 24.4141Z" fill="#00B2EF"/>
<path id="Path 1852" d="M17.801 21.4307C17.801 21.4979 17.8144 21.5646 17.8401 21.6267C17.8658 21.6888 17.9034 21.7452 17.9509 21.7927C17.9985 21.8403 18.0551 21.8781 18.1172 21.9038C18.1793 21.9295 18.2458 21.9426 18.313 21.9426C18.3802 21.9426 18.4469 21.9295 18.509 21.9038C18.5712 21.8781 18.6275 21.8403 18.6751 21.7927C18.7226 21.7452 18.7604 21.6888 18.7861 21.6267C18.8119 21.5646 18.825 21.4979 18.825 21.4307C18.8985 21.335 18.9439 21.2206 18.9558 21.1006C18.9678 20.9805 18.9459 20.8597 18.8926 20.7515C18.8393 20.6432 18.7567 20.552 18.6543 20.4883C18.5519 20.4245 18.4336 20.3906 18.313 20.3906C18.1923 20.3906 18.0741 20.4245 17.9717 20.4883C17.8693 20.552 17.7867 20.6432 17.7334 20.7515C17.6801 20.8597 17.6582 20.9805 17.6702 21.1006C17.6821 21.2206 17.7275 21.335 17.801 21.4307Z" fill="#00B2EF"/>
</g>
<g id="Group 994">
<path id="Path 62439" d="M4.04712 42.7366C4.04712 42.7366 4.34723 42.3716 5.28223 41.2986C5.46123 40.2366 6.38212 39.2986 7.06812 39.2986C7.16812 39.2986 7.50312 39.0876 7.59912 39.1206C7.69512 38.9152 7.84314 38.7384 8.02856 38.6079C8.21399 38.4774 8.43024 38.3978 8.65601 38.3767C8.72059 38.3765 8.78513 38.3836 8.84814 38.3977C8.9355 38.1545 9.08902 37.9404 9.2915 37.7798C9.49399 37.6192 9.7374 37.5185 9.99414 37.4888C10.0963 37.4895 10.1977 37.5068 10.2942 37.5405C10.3748 37.275 10.5304 37.0385 10.7422 36.8591C10.954 36.6798 11.2128 36.5653 11.488 36.5295C11.6691 36.5399 11.8452 36.5924 12.0024 36.6826C12.1597 36.7729 12.2938 36.8985 12.394 37.0496C12.454 36.9306 12.5433 36.8291 12.6536 36.7544C12.7638 36.6797 12.8915 36.6342 13.0242 36.6226C13.117 36.6234 13.2082 36.6469 13.29 36.6907C13.3903 36.5319 13.5267 36.3993 13.6882 36.3035C13.8497 36.2077 14.0316 36.1515 14.219 36.1396C14.3877 36.1483 14.5524 36.1943 14.7012 36.2744C14.8499 36.3545 14.979 36.4665 15.0791 36.6025H15.1201C15.3121 36.4016 15.5753 36.2842 15.853 36.2756C16.064 36.2756 16.4991 35.4427 16.6841 35.5837L16.4951 36.4907C16.6521 36.2397 17.1012 35.1907 17.3362 35.1807C17.5082 35.1807 17.446 36.1706 17.584 36.3176C17.959 36.0566 18.6292 35.1656 18.9932 35.4556C19.1499 35.2901 19.3652 35.1928 19.593 35.1846C19.7319 35.1915 19.8674 35.2296 19.9897 35.2957C20.1121 35.3617 20.2181 35.4543 20.3 35.5667C20.398 35.4519 20.5187 35.3587 20.6545 35.293C20.7903 35.2272 20.9383 35.1902 21.0891 35.1846C21.2842 35.198 21.4731 35.2587 21.6396 35.3613C21.8062 35.4639 21.9454 35.6054 22.0452 35.7737C22.2362 35.5507 22.2451 36.3367 22.4941 36.3337C22.6822 36.3518 22.862 36.4191 23.0156 36.5291C23.1693 36.639 23.2913 36.7876 23.3691 36.9597L23.4001 36.9656C23.5474 36.8364 23.7354 36.7631 23.9312 36.7585C24.0919 36.7697 24.2474 36.8199 24.3845 36.9045C24.5216 36.9892 24.6361 37.1059 24.718 37.2446L24.8091 37.2656C24.8684 37.1978 24.9409 37.1429 25.0222 37.104C25.1035 37.0651 25.1922 37.0431 25.2822 37.0396C25.4036 37.0482 25.5209 37.0863 25.6243 37.1506C25.7276 37.2149 25.8136 37.3036 25.875 37.4087C26.0583 37.2406 26.2965 37.1447 26.5452 37.1387C26.8094 37.1708 27.059 37.2772 27.2654 37.4453C27.4717 37.6134 27.6263 37.8364 27.7112 38.0886C27.8394 38.0024 27.9896 37.9552 28.144 37.9526C28.3546 37.9773 28.5541 38.0604 28.72 38.1924C28.8859 38.3244 29.0116 38.5001 29.083 38.6997L29.1831 38.7437C29.291 38.6525 29.4269 38.601 29.5681 38.5977C29.5878 38.7511 29.6514 38.8955 29.7515 39.0134C29.8515 39.1314 29.9837 39.2178 30.1318 39.2622C30.28 39.3066 30.4377 39.3073 30.5862 39.2639C30.7346 39.2205 30.8672 39.1348 30.968 39.0176C31.508 39.0176 31.9682 39.5778 32.1682 40.3748C32.256 40.3393 32.3495 40.3205 32.4441 40.3196C32.9341 40.3196 33.356 40.8095 33.552 41.5195C33.9183 41.9059 34.2527 42.3214 34.552 42.7617C34.552 42.7617 23.7152 42.7477 23.2942 42.7188" fill="#AA792E"/>
<g id="Group 993">
<g id="Group 992">
<g id="Group 991">
<path id="Path 1855" d="M31.889 42.7534C31.598 42.2354 30.443 41.6865 29.972 40.7825C29.516 39.9075 29.2459 39.0974 27.9529 38.9824C27.6419 38.9544 26.7299 38.7035 26.7039 38.2275C26.4634 37.5759 26.0263 37.015 25.4529 36.6228C24.8796 36.2306 24.1985 36.0265 23.5039 36.0386C23.3638 36.0387 23.224 36.0506 23.086 36.0745C22.8831 35.3153 22.4353 34.6443 21.8121 34.1658C21.1888 33.6872 20.4248 33.4277 19.639 33.4277C18.8531 33.4277 18.0894 33.6872 17.4661 34.1658C16.8428 34.6443 16.3948 35.3153 16.1919 36.0745C16.0539 36.0506 15.9141 36.0387 15.774 36.0386C15.1236 36.075 14.5039 36.3262 14.0118 36.7529C13.5197 37.1797 13.1831 37.7578 13.055 38.3965C12.814 38.2225 12.5549 38.2854 12.2549 38.2854C11.3799 38.2854 10.955 38.8126 10.44 39.6426C9.71698 40.8106 8.13997 42.7425 9.45097 42.7605C9.95097 42.7655 18.196 42.7454 18.806 42.7314" fill="#CC9017"/>
<g id="Group 990">
<path id="Path 1856" d="M18.25 42.7275C17.8469 41.7093 17.6452 40.6226 17.656 39.5276C17.6167 38.455 17.9813 37.4066 18.6777 36.5898C19.3741 35.7731 20.3516 35.2472 21.417 35.1165C21.8376 35.0815 22.2613 35.1154 22.6711 35.2166C22.3318 34.6366 21.8467 34.1556 21.2639 33.821C20.6812 33.4865 20.0211 33.3102 19.3491 33.3096C18.573 33.3453 17.8263 33.6182 17.21 34.0913C16.5936 34.5644 16.1372 35.215 15.9021 35.9556C15.7641 35.9315 15.6242 35.9196 15.4841 35.9197C14.8336 35.9562 14.2136 36.2076 13.7214 36.6345C13.2293 37.0615 12.893 37.6397 12.7651 38.2786C12.1268 38.2073 11.4807 38.2971 10.886 38.5396C9.49099 39.3236 9.91317 40.2106 9.75317 40.2246C7.31217 40.4466 8.02408 42.0114 7.15308 42.7524" fill="#8C632A"/>
<path id="Ellipse 398" d="M20.8641 39.495C21.2408 39.495 21.5461 39.1883 21.5461 38.81C21.5461 38.4317 21.2408 38.125 20.8641 38.125C20.4875 38.125 20.1821 38.4317 20.1821 38.81C20.1821 39.1883 20.4875 39.495 20.8641 39.495Z" fill="#8C632A"/>
<path id="Ellipse 399" d="M23.5922 41.1815C23.9688 41.1815 24.2742 40.8748 24.2742 40.4965C24.2742 40.1182 23.9688 39.8115 23.5922 39.8115C23.2155 39.8115 22.9102 40.1182 22.9102 40.4965C22.9102 40.8748 23.2155 41.1815 23.5922 41.1815Z" fill="#8C632A"/>
<path id="Ellipse 400" d="M23.1722 38.4167C23.3169 38.4167 23.4342 38.2985 23.4342 38.1527C23.4342 38.0069 23.3169 37.8887 23.1722 37.8887C23.0275 37.8887 22.9102 38.0069 22.9102 38.1527C22.9102 38.2985 23.0275 38.4167 23.1722 38.4167Z" fill="#8C632A"/>
<path id="Ellipse 401" d="M19.3472 41.0241C19.4919 41.0241 19.6092 40.9059 19.6092 40.7601C19.6092 40.6143 19.4919 40.4961 19.3472 40.4961C19.2025 40.4961 19.0852 40.6143 19.0852 40.7601C19.0852 40.9059 19.2025 41.0241 19.3472 41.0241Z" fill="#8C632A"/>
<path id="Ellipse 402" d="M20.1602 37.4313C20.3049 37.4313 20.4222 37.3131 20.4222 37.1673C20.4222 37.0215 20.3049 36.9033 20.1602 36.9033C20.0155 36.9033 19.8982 37.0215 19.8982 37.1673C19.8982 37.3131 20.0155 37.4313 20.1602 37.4313Z" fill="#8C632A"/>
<path id="Ellipse 403" d="M25.8062 39.8327C25.9509 39.8327 26.0682 39.7145 26.0682 39.5687C26.0682 39.4229 25.9509 39.3047 25.8062 39.3047C25.6615 39.3047 25.5442 39.4229 25.5442 39.5687C25.5442 39.7145 25.6615 39.8327 25.8062 39.8327Z" fill="#8C632A"/>
</g>
</g>
</g>
</g>
</g>
<g id="Group 997">
<path id="Path 1857" d="M20.0041 29.8599C19.9555 29.9113 19.8962 29.9516 19.8303 29.9775C19.7645 30.0035 19.6937 30.0145 19.623 30.01C18.77 29.9274 17.9416 29.6775 17.1851 29.2749C16.0441 28.6599 13.167 26.2479 13.085 23.7959C13.0772 23.6452 13.1002 23.4947 13.1521 23.353C13.2199 23.2181 13.3237 23.1044 13.4521 23.0249C13.9431 22.7169 14.636 23.218 14.636 23.218C14.687 23.218 16.3679 24.467 17.6069 25.209C18.2452 25.5901 18.7886 26.1111 19.196 26.7329C19.7182 27.5591 20.0395 28.4962 20.134 29.469C20.1425 29.5397 20.1353 29.6114 20.1128 29.679C20.0903 29.7465 20.0533 29.8083 20.0041 29.8599Z" fill="#6DC82A"/>
<path id="Path 1858" d="M25.3959 24.309C25.1839 24.049 24.472 24.088 24.318 24.165C23.5956 24.5372 22.8944 24.9496 22.2179 25.4001C21.6189 25.7087 21.0926 26.1414 20.674 26.6694C20.2553 27.1974 19.9539 27.8085 19.7899 28.4621C19.2745 30.1479 19.0681 31.9129 19.1808 33.6721C19.1855 33.7851 19.2337 33.8919 19.3153 33.9702C19.397 34.0484 19.5057 34.0921 19.6188 34.092H19.6378C19.6955 34.0895 19.7523 34.0758 19.8046 34.0515C19.8569 34.0271 19.9038 33.9927 19.9428 33.9501C19.9818 33.9076 20.0121 33.8577 20.0319 33.8034C20.0516 33.7492 20.0606 33.6916 20.058 33.634C20.0032 32.4889 20.072 31.3414 20.2638 30.2111C21.1029 30.1505 21.9161 29.8946 22.6388 29.4641C23.2775 29.0831 23.8213 28.5621 24.2289 27.9401C24.8758 27.1602 25.331 26.2394 25.558 25.2519C25.622 24.9283 25.5642 24.5927 25.3959 24.309Z" fill="#91DC5A"/>
<g id="Group 995">
<path id="Path 183" d="M14.625 25.0811C15.053 25.1811 15.3069 25.5809 15.5769 25.9299C16.2126 26.639 16.916 27.2844 17.677 27.8569C18.0426 28.1588 18.3658 28.5087 18.6379 28.897" stroke="#009444" stroke-width="0.632" stroke-miterlimit="10" stroke-linecap="round"/>
<path id="Path 184" d="M18.126 28.2898C18.142 28.0078 18.2629 27.1228 18.2729 26.8418" stroke="#009444" stroke-width="0.632" stroke-miterlimit="10" stroke-linecap="round"/>
<path id="Path 185" d="M16.9709 27.2351C16.9589 26.9821 17.106 26.1501 16.895 25.8721" stroke="#009444" stroke-width="0.632" stroke-miterlimit="10" stroke-linecap="round"/>
<path id="Path 186" d="M16.0449 26.4495C16.1069 26.1915 16.2601 25.4095 16.0281 25.1025" stroke="#009444" stroke-width="0.632" stroke-miterlimit="10" stroke-linecap="round"/>
<path id="Path 187" d="M16.3921 26.8472C15.8346 26.8427 15.2798 26.768 14.741 26.625" stroke="#009444" stroke-width="0.632" stroke-miterlimit="10" stroke-linecap="round"/>
<path id="Path 188" d="M17.688 27.9156C17.407 28.0266 16.3379 27.6787 16.0369 27.7157" stroke="#009444" stroke-width="0.632" stroke-miterlimit="10" stroke-linecap="round"/>
<path id="Path 195" d="M15.3801 25.6692C15.3661 25.5322 15.4671 25.142 15.3491 25.001" stroke="#009444" stroke-width="0.632" stroke-miterlimit="10" stroke-linecap="round"/>
</g>
<g id="Group 996">
<path id="Path 183_2" d="M24.4011 25.4258C23.9731 25.5208 23.719 25.9257 23.45 26.2747C22.8141 26.9832 22.1109 27.6283 21.3501 28.2007C20.9846 28.5031 20.6615 28.8533 20.3892 29.2417" stroke="#39B54A" stroke-width="0.632" stroke-miterlimit="10" stroke-linecap="round"/>
<path id="Path 184_2" d="M20.9028 28.6345C20.8858 28.3535 20.7669 27.4675 20.7559 27.1865" stroke="#39B54A" stroke-width="0.632" stroke-miterlimit="10" stroke-linecap="round"/>
<path id="Path 185_2" d="M22.051 27.5798C22.063 27.3278 21.9171 26.4948 22.1281 26.2178" stroke="#39B54A" stroke-width="0.632" stroke-miterlimit="10" stroke-linecap="round"/>
<path id="Path 186_2" d="M22.9811 26.7952C22.9191 26.5372 22.765 25.7552 22.997 25.4482" stroke="#39B54A" stroke-width="0.632" stroke-miterlimit="10" stroke-linecap="round"/>
<path id="Path 187_2" d="M22.635 27.1929C23.1925 27.1881 23.747 27.1134 24.2859 26.9707" stroke="#39B54A" stroke-width="0.632" stroke-miterlimit="10" stroke-linecap="round"/>
<path id="Path 188_2" d="M21.3379 28.2603C21.6189 28.3713 22.688 28.0234 22.989 28.0604" stroke="#39B54A" stroke-width="0.632" stroke-miterlimit="10" stroke-linecap="round"/>
<path id="Path 195_2" d="M23.6451 26.0127C23.6581 25.8767 23.5571 25.4857 23.6761 25.3457" stroke="#39B54A" stroke-width="0.632" stroke-miterlimit="10" stroke-linecap="round"/>
</g>
</g>
<g id="Group 999">
<path id="Path 1859" d="M40.5231 6.24364L39.2382 6.95165L38.786 6.23265C38.7302 6.14446 38.643 6.08093 38.5419 6.05492C38.4408 6.02891 38.3336 6.04247 38.2421 6.09276L30.2782 10.4746C30.1866 10.5249 30.1178 10.6083 30.0856 10.7078C30.0535 10.8072 30.0604 10.9153 30.1051 11.0098L31.8503 14.6335C32.2753 14.7385 32.7011 14.8446 33.1281 14.9436C35.2001 15.4246 36.717 18.8316 36.88 20.7436C35.9755 20.485 35.0945 20.1505 34.2463 19.7436L35.5812 22.5085C35.629 22.6101 35.697 22.7009 35.7812 22.7751C35.8653 22.8494 35.9637 22.9055 36.0705 22.9402C36.1772 22.9748 36.29 22.9874 36.4018 22.9768C36.5135 22.9662 36.6218 22.9328 36.7201 22.8787L45.2673 18.1787C45.366 18.1249 45.4525 18.0513 45.5216 17.9626C45.5908 17.874 45.641 17.7722 45.6691 17.6633C45.6972 17.5545 45.7027 17.4409 45.6852 17.3298C45.6677 17.2188 45.6273 17.1125 45.5671 17.0176L44.4992 15.3176L45.2802 14.8877C45.5665 14.7301 45.7787 14.4653 45.8698 14.1514C45.9609 13.8375 45.9237 13.5001 45.7663 13.2136L42.2011 6.73363C42.1232 6.59117 42.018 6.4655 41.8915 6.36376C41.765 6.26201 41.6196 6.18612 41.4638 6.14061C41.3079 6.0951 41.1447 6.08095 40.9833 6.09862C40.8219 6.11629 40.6654 6.16549 40.5231 6.24364ZM45.0422 13.6067C45.0944 13.7022 45.1067 13.8146 45.0763 13.9192C45.046 14.0237 44.9753 14.1118 44.88 14.1645L44.057 14.6167L39.6752 7.64867L40.9191 6.96459C41.0145 6.9123 41.1268 6.9 41.2314 6.93016C41.3359 6.96033 41.4243 7.03064 41.4772 7.12572L45.0422 13.6067Z" fill="#80ABDB"/>
<path id="Path 1860" d="M24.9592 15.3799L25.6011 13.0508L22.9673 9.9248L21.0232 16.6248L24.9592 15.3799Z" fill="#D2D5D5"/>
<path id="Path 1861" d="M22.9673 9.92467C22.5232 9.79571 22.0459 9.84837 21.6407 10.0712C21.2354 10.2939 20.9353 10.6686 20.8062 11.1127L19.8343 14.4606C19.7056 14.9047 19.7585 15.3817 19.9815 15.7867C20.2044 16.1918 20.5792 16.4918 21.0232 16.6207L22.9673 9.92467Z" fill="#F6F6F6"/>
<path id="Path 1862" d="M33.1272 14.9458C32.7002 14.8458 32.2741 14.7457 31.8491 14.6357C31.3121 14.5027 30.776 14.3688 30.239 14.2358C28.623 13.8358 27.2181 13.4448 25.6011 13.0488L24.959 15.3779C26.973 16.2879 28.767 17.1649 30.781 18.0779C31.851 18.5619 32.8962 19.0958 33.9502 19.6128C33.9872 19.6308 34.096 19.6799 34.25 19.7449C35.0982 20.1519 35.9794 20.4864 36.884 20.7449C36.721 18.8379 35.2041 15.4288 33.1321 14.9448L33.1272 14.9458Z" fill="#80ABDB"/>
<path id="Path 1863" d="M23.7351 14.4968L20.8992 15.3967C20.7126 15.4592 20.5132 15.4737 20.3196 15.4387C20.1259 15.4038 19.944 15.3205 19.791 15.1968H19.7861C19.8324 15.5291 19.9739 15.841 20.1934 16.0947C20.4128 16.3485 20.701 16.5331 21.0232 16.6267L24.959 15.3857L25.6021 13.0569L24.9292 12.2568L24.54 13.6667C24.4864 13.8621 24.3845 14.0409 24.2439 14.1868C24.1033 14.3326 23.9284 14.4409 23.7351 14.5017V14.4968Z" fill="#A7A9AC"/>
<g id="Group 998">
<path id="Path 1864" d="M34.7461 18.8345C34.5771 18.7605 34.4531 18.7043 34.4111 18.6843C33.2111 18.0963 32.028 17.4904 30.811 16.9414C28.879 16.0684 27.117 15.2214 25.239 14.3564L24.957 15.3794C26.971 16.2894 28.7651 17.1663 30.7791 18.0793C31.8491 18.5633 32.894 19.0975 33.948 19.6145C33.985 19.6335 34.094 19.6813 34.248 19.7463C35.0962 20.1536 35.9774 20.4882 36.8821 20.7463C36.8448 20.3726 36.7762 20.0027 36.677 19.6404C36.013 19.3804 35.2011 19.0403 34.7471 18.8403L34.7461 18.8345Z" fill="#008ECC"/>
<path id="Path 1865" d="M45.2701 16.5476C45.3118 16.7219 45.2952 16.9051 45.223 17.0691C45.1507 17.2331 45.0269 17.369 44.8702 17.4558L40.2801 19.9807C40.1049 20.0772 39.9099 20.1319 39.71 20.1406C39.5102 20.1494 39.311 20.112 39.128 20.0312C38.945 19.9505 38.783 19.8284 38.6549 19.6748C38.5267 19.5212 38.4357 19.3402 38.389 19.1458C38.006 17.5277 37.3126 15.9994 36.347 14.6458C35.7996 14.0139 35.0584 13.5811 34.2391 13.4148C33.7642 13.3124 33.3199 13.1001 32.9417 12.7952C32.5635 12.4902 32.2619 12.1011 32.0611 11.6587L31.2882 9.92578L30.2762 10.4827C30.1845 10.5332 30.1155 10.617 30.0833 10.7166C30.0512 10.8162 30.0583 10.9242 30.1031 11.0188L31.848 14.6428C32.273 14.7478 32.6991 14.8526 33.1261 14.9526C35.1981 15.4326 36.715 18.8417 36.878 20.7527C35.9734 20.4941 35.0922 20.1596 34.244 19.7527L35.5792 22.5178C35.6269 22.6194 35.695 22.7099 35.7791 22.7842C35.8633 22.8584 35.9617 22.9148 36.0684 22.9495C36.1752 22.9841 36.288 22.9964 36.3997 22.9858C36.5115 22.9752 36.6198 22.9418 36.7181 22.8877L45.265 18.1877C45.363 18.1337 45.4492 18.0601 45.5179 17.9717C45.5866 17.8832 45.6365 17.7817 45.6646 17.6733C45.6927 17.5649 45.6983 17.452 45.6812 17.3413C45.6641 17.2306 45.6245 17.1247 45.565 17.0298L45.2701 16.5476Z" fill="#008ECC"/>
</g>
</g>
</g>
</g>
</svg>
