<svg width="50" height="38" viewBox="0 0 50 38" fill="none" xmlns="http://www.w3.org/2000/svg">
<g id="Group 366">
<g id="Group 35621">
<path id="Path 62439" d="M0 37.6411C0 37.6411 0.346092 37.2161 1.44409 35.9661C1.65409 34.7301 2.73498 33.6311 3.53198 33.6311C3.64798 33.6311 4.0401 33.3851 4.1521 33.4231C4.26417 33.183 4.43714 32.9766 4.65405 32.8245C4.87096 32.6723 5.12404 32.5798 5.38794 32.5562C5.46329 32.5564 5.5385 32.5647 5.61206 32.5811C5.71454 32.2974 5.89405 32.0482 6.13062 31.8611C6.36718 31.674 6.65128 31.5566 6.95093 31.5222C7.07113 31.5223 7.19049 31.5426 7.30396 31.5823C7.39922 31.2721 7.58198 30.9959 7.83032 30.7871C8.07867 30.5783 8.3822 30.4458 8.7041 30.4053C8.91549 30.4174 9.12116 30.4783 9.30493 30.5835C9.48871 30.6887 9.64541 30.8351 9.76294 31.0112C9.83263 30.8719 9.93682 30.7528 10.0657 30.6653C10.1945 30.5777 10.3438 30.5247 10.499 30.5112C10.6074 30.512 10.7141 30.5386 10.8101 30.5891C10.9274 30.4039 11.0871 30.2491 11.2759 30.1375C11.4647 30.0259 11.6771 29.9608 11.896 29.9473C12.0931 29.9572 12.2854 30.0106 12.4592 30.104C12.633 30.1974 12.7838 30.3282 12.9009 30.4871L12.949 30.4822C13.1736 30.2477 13.4813 30.1108 13.8059 30.1011C14.0519 30.1011 14.5611 29.1301 14.7781 29.2961L14.5569 30.3521C14.7389 30.0591 15.266 28.8322 15.54 28.8262C15.74 28.8262 15.6691 29.9791 15.8301 30.1501C16.2691 29.8501 17.0511 28.8081 17.4771 29.1501C17.6618 28.9568 17.9146 28.8435 18.1819 28.8342C18.344 28.8425 18.5024 28.8867 18.6453 28.9639C18.7881 29.041 18.9122 29.1492 19.0081 29.2803C19.123 29.1465 19.2643 29.0378 19.4231 28.9612C19.5819 28.8846 19.7547 28.8418 19.9309 28.8352C20.1589 28.8506 20.3797 28.921 20.5745 29.0405C20.7692 29.16 20.9321 29.325 21.0491 29.5212C21.2731 29.2612 21.286 30.1771 21.575 30.1731C21.7946 30.1936 22.0049 30.2719 22.1846 30.3999C22.3642 30.5279 22.5068 30.7012 22.5979 30.9021L22.634 30.9092C22.8062 30.7589 23.0254 30.6736 23.2539 30.6682C23.4418 30.6809 23.6239 30.7391 23.7842 30.8379C23.9445 30.9367 24.0783 31.073 24.1741 31.2351L24.28 31.2603C24.3499 31.1813 24.4348 31.1172 24.53 31.072C24.6252 31.0268 24.7287 31.0013 24.834 30.9971C24.9756 31.007 25.1128 31.0515 25.2334 31.1265C25.354 31.2014 25.4543 31.3047 25.5259 31.4272C25.741 31.2317 26.0195 31.1203 26.3101 31.1133C26.6184 31.1506 26.9096 31.2743 27.1506 31.4702C27.3916 31.6661 27.5723 31.9261 27.6719 32.2202C27.8215 32.1194 27.9975 32.0645 28.178 32.0623C28.4241 32.0903 28.6575 32.1866 28.8518 32.3401C29.0462 32.4936 29.1938 32.6982 29.2781 32.9312L29.397 32.9832C29.5236 32.8769 29.6826 32.817 29.8479 32.8132C30.0611 32.8455 30.2599 32.9402 30.4192 33.0854C30.5785 33.2307 30.6912 33.4199 30.7429 33.6292C30.9373 33.4282 31.2025 33.3113 31.4819 33.3032C32.1129 33.3032 32.6541 33.9551 32.8821 34.8821C32.9846 34.8412 33.0938 34.8195 33.2041 34.8181C33.7781 34.8181 34.2709 35.3903 34.5039 36.2183C34.9307 36.6689 35.3207 37.1531 35.6699 37.6663C35.6699 37.6663 23.003 37.6492 22.511 37.6162" fill="#AA792E"/>
<g id="Group 953">
<g id="Group 951">
<g id="Group 950">
<path id="Path 1810" d="M32.5471 37.6614C32.2081 37.0614 30.8559 36.4183 30.3059 35.3613C29.7729 34.3413 29.457 33.3985 27.946 33.2615C27.583 33.2295 26.5171 32.9353 26.4861 32.3813C26.2037 31.6212 25.6922 30.9676 25.0222 30.5107C24.3522 30.0539 23.5569 29.8164 22.7461 29.8313C22.5822 29.8313 22.4186 29.8455 22.2571 29.8735C22.0178 28.988 21.4935 28.2056 20.7651 27.6479C20.0368 27.0903 19.1449 26.7881 18.2275 26.7881C17.3102 26.7881 16.4183 27.0903 15.6899 27.6479C14.9616 28.2056 14.4373 28.988 14.198 29.8735C14.0365 29.8456 13.8729 29.8313 13.709 29.8313C12.9499 29.8728 12.2262 30.1652 11.6511 30.6624C11.076 31.1595 10.6819 31.8333 10.531 32.5784C10.249 32.3784 9.94507 32.4485 9.59007 32.4485C8.56807 32.4485 8.069 33.0613 7.468 34.0283C6.624 35.3893 4.78397 37.6434 6.31297 37.6604C6.89097 37.6674 16.534 37.6435 17.248 37.6265" fill="#CC9017"/>
<g id="Group 949">
<path id="Path 1811" d="M16.604 37.6331C16.1311 36.4486 15.8934 35.1833 15.9041 33.908C15.8605 32.656 16.2885 31.4334 17.1033 30.4819C17.9181 29.5305 19.0602 28.9196 20.304 28.77C20.7958 28.7299 21.2909 28.7697 21.77 28.8879C21.3722 28.2118 20.8048 27.6512 20.124 27.2615C19.4432 26.8718 18.6724 26.6666 17.8879 26.666C16.9817 26.7062 16.1096 27.0232 15.3892 27.5745C14.6687 28.1257 14.1345 28.8848 13.8589 29.749C13.6973 29.7214 13.5338 29.7074 13.3699 29.707C12.6107 29.7488 11.8869 30.041 11.3118 30.5383C10.7367 31.0356 10.3428 31.7099 10.1919 32.4551C9.44502 32.3705 8.6889 32.4734 7.99194 32.7549C6.36194 33.6689 6.85399 34.701 6.66699 34.718C3.81399 34.977 4.64593 36.7998 3.62793 37.6628" fill="#8C632A"/>
<path id="Ellipse 382" d="M19.66 33.8655C20.1002 33.8655 20.457 33.5083 20.457 33.0675C20.457 32.6268 20.1002 32.2695 19.66 32.2695C19.2199 32.2695 18.863 32.6268 18.863 33.0675C18.863 33.5083 19.2199 33.8655 19.66 33.8655Z" fill="#8C632A"/>
<path id="Ellipse 383" d="M22.849 35.8314C23.2892 35.8314 23.646 35.4741 23.646 35.0334C23.646 34.5926 23.2892 34.2354 22.849 34.2354C22.4088 34.2354 22.052 34.5926 22.052 35.0334C22.052 35.4741 22.4088 35.8314 22.849 35.8314Z" fill="#8C632A"/>
<path id="Ellipse 384" d="M22.359 32.6091C22.5286 32.6091 22.666 32.4717 22.666 32.3021C22.666 32.1326 22.5286 31.9951 22.359 31.9951C22.1895 31.9951 22.052 32.1326 22.052 32.3021C22.052 32.4717 22.1895 32.6091 22.359 32.6091Z" fill="#8C632A"/>
<path id="Ellipse 385" d="M17.8881 35.6482C18.0576 35.6482 18.1951 35.5107 18.1951 35.3412C18.1951 35.1716 18.0576 35.0342 17.8881 35.0342C17.7185 35.0342 17.5811 35.1716 17.5811 35.3412C17.5811 35.5107 17.7185 35.6482 17.8881 35.6482Z" fill="#8C632A"/>
<path id="Ellipse 386" d="M18.839 31.4617C19.0085 31.4617 19.146 31.3242 19.146 31.1547C19.146 30.9851 19.0085 30.8477 18.839 30.8477C18.6694 30.8477 18.532 30.9851 18.532 31.1547C18.532 31.3242 18.6694 31.4617 18.839 31.4617Z" fill="#8C632A"/>
<path id="Ellipse 387" d="M25.4369 34.2585C25.6064 34.2585 25.7439 34.1211 25.7439 33.9515C25.7439 33.782 25.6064 33.6445 25.4369 33.6445C25.2673 33.6445 25.1299 33.782 25.1299 33.9515C25.1299 34.1211 25.2673 34.2585 25.4369 34.2585Z" fill="#8C632A"/>
</g>
</g>
</g>
<g id="Group 952">
<path id="Path 1812" d="M13.9361 23.7469C14.2361 24.0719 13.466 25.2469 13.136 25.5399C13.0614 25.6235 12.9701 25.6906 12.8679 25.7367C12.7658 25.7828 12.6551 25.8067 12.543 25.8072C12.4309 25.8078 12.3199 25.7849 12.2173 25.7399C12.1147 25.6948 12.0227 25.6287 11.9473 25.5458C11.8719 25.4629 11.8148 25.3651 11.7796 25.2587C11.7444 25.1523 11.7318 25.0396 11.7429 24.9281C11.754 24.8166 11.7883 24.7086 11.8438 24.6112C11.8992 24.5138 11.9747 24.4293 12.065 24.3629C12.395 24.0619 13.6401 23.4219 13.9361 23.7469Z" fill="#6DBF67"/>
<path id="Path 1813" d="M15.2601 26.4199C15.7001 26.4199 16.0601 27.7729 16.0601 28.2139C16.0697 28.3243 16.0563 28.4355 16.0206 28.5405C15.9849 28.6455 15.9276 28.742 15.8526 28.8237C15.7777 28.9055 15.6865 28.9707 15.585 29.0154C15.4835 29.06 15.3739 29.083 15.263 29.083C15.1521 29.083 15.0425 29.06 14.941 29.0154C14.8395 28.9707 14.7484 28.9055 14.6734 28.8237C14.5985 28.742 14.5414 28.6455 14.5057 28.5405C14.47 28.4355 14.4565 28.3243 14.4661 28.2139C14.4631 27.7729 14.8201 26.4199 15.2601 26.4199Z" fill="#6DBF67"/>
<path id="Path 1814" d="M11.835 19.5133C11.835 19.1833 13.089 18.9134 13.498 18.9134C13.5864 18.8964 13.6774 18.899 13.7646 18.9212C13.8519 18.9435 13.933 18.985 14.0024 19.0423C14.0718 19.0997 14.1279 19.1716 14.1663 19.253C14.2046 19.3345 14.2244 19.4233 14.2244 19.5133C14.2244 19.6033 14.2046 19.6923 14.1663 19.7738C14.1279 19.8552 14.0718 19.9271 14.0024 19.9845C13.933 20.0418 13.8519 20.083 13.7646 20.1053C13.6774 20.1276 13.5864 20.1304 13.498 20.1134C13.085 20.1114 11.835 19.8433 11.835 19.5133Z" fill="#6DBF67"/>
<path id="Path 1815" d="M15.7791 21.6047C15.5791 21.3847 16.1131 20.5586 16.3421 20.3466C16.3946 20.2981 16.4561 20.2605 16.5232 20.2358C16.5903 20.211 16.6615 20.1997 16.7329 20.2026C16.8044 20.2054 16.8748 20.2224 16.9397 20.2524C17.0047 20.2823 17.0628 20.3246 17.1114 20.3771C17.1599 20.4297 17.1977 20.4914 17.2224 20.5585C17.2472 20.6256 17.2585 20.6968 17.2556 20.7682C17.2528 20.8397 17.2358 20.9099 17.2058 20.9748C17.1759 21.0397 17.1336 21.0981 17.0811 21.1467C16.8521 21.3567 15.9861 21.8237 15.7791 21.6047Z" fill="#6DBF67"/>
<path id="Path 1816" d="M16.2169 15.3289C16.5409 15.2619 17.0587 16.4289 17.1427 16.8289C17.1787 16.9124 17.1958 17.0026 17.1925 17.0933C17.1892 17.1841 17.1656 17.273 17.1237 17.3536C17.0817 17.4342 17.0225 17.5044 16.9501 17.5592C16.8776 17.614 16.7939 17.6521 16.705 17.6705C16.616 17.6889 16.5239 17.6871 16.4357 17.6656C16.3474 17.6441 16.2652 17.6033 16.1947 17.546C16.1242 17.4887 16.0673 17.4163 16.0282 17.3343C15.9891 17.2523 15.969 17.1627 15.9689 17.0719C15.8849 16.6749 15.8929 15.3959 16.2169 15.3289Z" fill="#6DBF67"/>
<path id="Path 1817" d="M18.643 10.4529C18.943 10.5899 18.667 11.839 18.497 12.209C18.4764 12.2974 18.4365 12.3802 18.38 12.4512C18.3235 12.5223 18.2518 12.5799 18.1703 12.6199C18.0888 12.6599 17.9996 12.6812 17.9088 12.6824C17.8181 12.6836 17.7281 12.6646 17.6456 12.6268C17.5631 12.5889 17.4901 12.5332 17.4318 12.4637C17.3735 12.3941 17.3313 12.3123 17.3085 12.2244C17.2856 12.1366 17.2827 12.0448 17.2997 11.9556C17.3167 11.8665 17.3533 11.7823 17.4069 11.709C17.5769 11.342 18.337 10.3159 18.643 10.4529Z" fill="#6DBF67"/>
</g>
</g>
<g id="Group 961">
<g id="Group 955">
<g id="Group 954">
<path id="Path 1818" d="M22.1331 10.7222L36.5571 2.07812L47.5439 20.2871L33.1201 28.9312L22.1331 10.7222Z" fill="#6DBF67"/>
<path id="Path 1819" d="M22.1331 10.7222L25.0181 8.99316L36.0051 27.2021L33.1201 28.9312L22.1331 10.7222Z" fill="#33914E"/>
</g>
<path id="Path 1820" d="M35.5921 0.0793515L20.8089 8.93824C20.7268 8.98737 20.6589 9.05672 20.6114 9.13965C20.5638 9.22259 20.5381 9.31626 20.5371 9.41187C20.5361 9.50748 20.5597 9.60188 20.6055 9.6858C20.6513 9.76971 20.7179 9.84053 20.7989 9.89136L22.1289 10.7234L36.553 2.07935L36.44 0.518316C36.4325 0.423009 36.401 0.331144 36.3482 0.251471C36.2953 0.171798 36.2229 0.106944 36.138 0.062994C36.0531 0.0190443 35.9584 -0.00260504 35.8628 0.000249905C35.7673 0.00310485 35.6742 0.0304117 35.5921 0.0793515Z" fill="#6DBF67"/>
<path id="Path 1821" d="M34.0801 30.929L48.8621 22.071C48.9441 22.0219 49.012 21.9526 49.0596 21.8696C49.1071 21.7867 49.1328 21.693 49.1338 21.5974C49.1348 21.5018 49.1113 21.4074 49.0654 21.3235C49.0196 21.2396 48.953 21.169 48.8721 21.1182L47.542 20.2861L33.1169 28.9302L33.231 30.491C33.2382 30.5865 33.2699 30.6787 33.3228 30.7585C33.3756 30.8384 33.4481 30.9034 33.5332 30.9473C33.6183 30.9912 33.7134 31.0124 33.8091 31.0093C33.9048 31.0061 33.9981 30.9784 34.0801 30.929Z" fill="#6DBF67"/>
<path id="Path 1822" d="M23.6909 7.20898L20.8059 8.93799C20.7237 8.98702 20.6556 9.0564 20.6079 9.1394C20.5603 9.22241 20.5346 9.31615 20.5337 9.41187C20.5328 9.50758 20.5567 9.6019 20.6028 9.68579C20.6489 9.76968 20.7156 9.8403 20.7969 9.89087L22.127 10.7229L25.012 8.9939L23.6819 8.16187C23.6006 8.11129 23.5339 8.04068 23.4878 7.95679C23.4417 7.8729 23.4178 7.77857 23.4187 7.68286C23.4196 7.58715 23.4453 7.49341 23.4929 7.4104C23.5406 7.32739 23.6087 7.25801 23.6909 7.20898Z" fill="#33914E"/>
<path id="Path 1823" d="M36.9651 29.2012L34.0801 30.9302C33.998 30.9794 33.9047 31.0068 33.8091 31.0098C33.7134 31.0128 33.6184 30.9913 33.5334 30.9473C33.4485 30.9033 33.3763 30.8381 33.3235 30.7583C33.2707 30.6785 33.2391 30.5866 33.2319 30.4912L33.1179 28.9302L36.0029 27.2012L36.1169 28.7622C36.1241 28.8576 36.1557 28.9495 36.2085 29.0293C36.2613 29.1091 36.3335 29.1743 36.4185 29.2183C36.5034 29.2623 36.5984 29.2838 36.6941 29.2808C36.7897 29.2778 36.883 29.2504 36.9651 29.2012Z" fill="#33914E"/>
</g>
<g id="Group 956">
<path id="Path 1824" d="M40.3449 11.6162C41.0303 12.756 41.3625 14.0735 41.2995 15.402C41.2364 16.7306 40.781 18.0105 39.9906 19.0803C39.2003 20.15 38.1104 20.9615 36.859 21.4121C35.6076 21.8627 34.2508 21.9324 32.9599 21.612C31.669 21.2917 30.5019 20.5956 29.6063 19.6123C28.7108 18.6289 28.1269 17.4023 27.9284 16.0871C27.7299 14.7719 27.9257 13.4272 28.4911 12.2233C29.0565 11.0194 29.966 10.0103 31.1049 9.32319C31.861 8.86282 32.7008 8.55669 33.5758 8.4228C34.4509 8.28891 35.3439 8.3297 36.203 8.54292C37.0622 8.75613 37.8705 9.13752 38.5814 9.66499C39.2924 10.1925 39.8917 10.8557 40.3449 11.6162Z" fill="#FFD430"/>
<path id="Path 1825" d="M27.956 13.8643C27.6615 15.4735 27.9653 17.1349 28.8105 18.5356C29.6558 19.9364 30.9839 20.9797 32.5449 21.4692L27.956 13.8643Z" fill="#FCB813"/>
</g>
<g id="Group 960">
<g id="Group 959">
<path id="Path 1827" d="M35.1618 15.4699C35.155 15.5006 35.1417 15.5293 35.1225 15.5542C35.1033 15.5791 35.0789 15.5996 35.051 15.614C34.708 15.7771 34.3363 15.871 33.957 15.8908C33.4348 15.9104 32.9145 15.819 32.4304 15.6223C31.9463 15.4256 31.5094 15.1282 31.1489 14.75C31.1117 14.6947 31.0863 14.6323 31.0739 14.5669C31.0685 14.5006 31.0818 14.4342 31.112 14.375C31.228 14.146 31.6049 14.175 31.6049 14.175C31.6249 14.164 32.548 14.2539 33.188 14.2529C33.5174 14.2519 33.8428 14.3255 34.1399 14.468C34.5265 14.6622 34.8623 14.944 35.1208 15.291C35.1406 15.3159 35.1545 15.3447 35.1616 15.3757C35.1687 15.4067 35.1688 15.4389 35.1618 15.4699Z" fill="#6DC82A"/>
<path id="Path 1828" d="M35.9428 12.1416C35.8028 12.0916 35.5429 12.2685 35.5009 12.3315C35.3118 12.6367 35.1397 12.9523 34.9858 13.2766C34.8289 13.5296 34.7278 13.8131 34.6894 14.1084C34.6509 14.4036 34.676 14.7037 34.7629 14.9885C35.1412 16.0695 35.6511 17.0998 36.2809 18.0564C36.313 18.1001 36.3593 18.1312 36.412 18.144C36.4647 18.1568 36.5202 18.1506 36.5688 18.1265H36.5759C36.5971 18.1124 36.6155 18.0944 36.6298 18.0732C36.6441 18.0521 36.654 18.0284 36.6591 18.0034C36.6642 17.9784 36.6644 17.9528 36.6596 17.9277C36.6547 17.9027 36.6449 17.8787 36.6308 17.8574C36.1575 17.113 35.7279 16.3419 35.3439 15.5476C35.6482 15.3341 35.8982 15.0522 36.0739 14.7246C36.2297 14.4356 36.3174 14.1147 36.33 13.7866C36.398 13.3442 36.3606 12.8918 36.2209 12.4665C36.1949 12.4035 36.0958 12.1886 35.9428 12.1416Z" fill="#91DC5A"/>
<g id="Group 957">
<path id="Path 183" d="M34.424 15.5346C34.4075 15.5347 34.391 15.5313 34.3759 15.5246C34.193 15.4443 34.0004 15.3885 33.8029 15.3586C33.6889 15.3386 33.5738 15.3226 33.4628 15.3066C33.1486 15.2749 32.8391 15.2079 32.54 15.1066L32.466 15.0776C32.3448 15.0085 32.2036 14.9828 32.0658 15.0046C32.0365 15.0121 32.0053 15.0081 31.9787 14.9936C31.952 14.9791 31.9319 14.9552 31.9223 14.9265C31.9127 14.8977 31.9141 14.8662 31.9267 14.8386C31.9392 14.811 31.9619 14.7892 31.9899 14.7775C32.1816 14.7344 32.3824 14.7626 32.5549 14.8566L32.6259 14.8845C32.9081 14.9808 33.2004 15.0451 33.497 15.0756C33.61 15.0916 33.727 15.1086 33.842 15.1286C34.0591 15.1616 34.2708 15.223 34.4718 15.3115C34.4965 15.3228 34.5167 15.3424 34.529 15.3667C34.5412 15.3909 34.5448 15.4187 34.5392 15.4453C34.5336 15.4719 34.5192 15.4958 34.4982 15.5131C34.4773 15.5305 34.4512 15.54 34.424 15.5405V15.5346Z" fill="#009444"/>
<path id="Path 184" d="M34.0888 15.4231C34.067 15.4231 34.0457 15.4171 34.027 15.4058C34.0084 15.3945 33.993 15.3785 33.9829 15.3592C33.9549 15.3052 33.9069 15.2001 33.8559 15.0891C33.8049 14.9781 33.7399 14.8351 33.7099 14.7801C33.7005 14.7663 33.6941 14.7508 33.6911 14.7344C33.6881 14.718 33.6887 14.7011 33.6926 14.6848C33.6964 14.6686 33.7035 14.6534 33.7136 14.6402C33.7236 14.6269 33.7364 14.6158 33.7509 14.6077C33.7655 14.5996 33.7817 14.5948 33.7983 14.5933C33.8149 14.5918 33.8316 14.5936 33.8474 14.5989C33.8632 14.6042 33.8778 14.6128 33.8901 14.6241C33.9024 14.6353 33.9121 14.6489 33.9189 14.6641C33.9529 14.7271 34.0189 14.864 34.0729 14.989C34.1199 15.089 34.1728 15.1991 34.1938 15.2471C34.2032 15.2653 34.2079 15.2857 34.2072 15.3062C34.2065 15.3267 34.2005 15.3467 34.1899 15.3643C34.1793 15.3818 34.1643 15.3964 34.1464 15.4065C34.1286 15.4166 34.1084 15.422 34.0878 15.4221L34.0888 15.4231Z" fill="#009444"/>
<path id="Path 185" d="M33.4119 15.2817C33.3921 15.2819 33.3727 15.2771 33.3552 15.2678C33.3378 15.2586 33.3227 15.2452 33.3118 15.2288C33.2857 15.1864 33.2622 15.1426 33.241 15.0977C33.196 15.0087 33.0909 14.7977 33.0269 14.7747C32.9975 14.7629 32.974 14.74 32.9614 14.7109C32.9489 14.6819 32.9485 14.6491 32.96 14.6196C32.9656 14.6049 32.974 14.5917 32.9849 14.5803C32.9957 14.569 33.0088 14.5597 33.0232 14.5535C33.0376 14.5472 33.0531 14.5441 33.0688 14.544C33.0846 14.5438 33.1002 14.5468 33.1147 14.5527C33.2517 14.6067 33.3499 14.7828 33.4539 14.9898C33.4759 15.0348 33.4978 15.0767 33.5098 15.0957C33.5217 15.1138 33.5286 15.1346 33.5295 15.1563C33.5305 15.1779 33.5256 15.1994 33.5154 15.2185C33.5051 15.2376 33.4898 15.2535 33.4712 15.2647C33.4526 15.2758 33.4316 15.2817 33.4099 15.2817H33.4119Z" fill="#009444"/>
<path id="Path 186" d="M32.8789 15.2023C32.8535 15.2022 32.8289 15.194 32.8084 15.1789C32.7879 15.1638 32.7728 15.1426 32.7652 15.1184C32.7288 14.9535 32.6437 14.8032 32.521 14.6872C32.4941 14.6737 32.4734 14.6507 32.4627 14.6225C32.452 14.5944 32.4522 14.5633 32.4634 14.5354C32.4746 14.5074 32.4958 14.4846 32.523 14.4716C32.5501 14.4587 32.5814 14.4564 32.6101 14.4653C32.8171 14.5483 32.947 14.8993 32.993 15.0463C33.0024 15.0766 32.9995 15.1093 32.9849 15.1374C32.9703 15.1655 32.9452 15.1866 32.9151 15.1962C32.9035 15.2001 32.8912 15.2023 32.8789 15.2023Z" fill="#009444"/>
<path id="Path 187" d="M32.4241 15.5623C32.3963 15.5616 32.3697 15.5511 32.3487 15.533C32.3277 15.5148 32.3136 15.49 32.3089 15.4626C32.3042 15.4353 32.3091 15.4072 32.3228 15.3831C32.3365 15.3589 32.3581 15.3403 32.3841 15.3303L32.4331 15.3132C32.6375 15.2605 32.8329 15.1788 33.014 15.0703C33.0367 15.0485 33.0672 15.0361 33.0987 15.0361C33.1302 15.0361 33.1604 15.0485 33.1831 15.0703C33.206 15.0915 33.2194 15.1208 33.2207 15.1519C33.2221 15.1829 33.2109 15.2133 33.19 15.2363C32.9849 15.3803 32.7546 15.4843 32.511 15.5432L32.4629 15.5593C32.4502 15.5625 32.4372 15.5635 32.4241 15.5623Z" fill="#009444"/>
<path id="Path 188" d="M33.1661 15.6796C33.1412 15.6793 33.1169 15.6713 33.0968 15.6567C33.0766 15.642 33.0615 15.6215 33.0536 15.5978C33.0456 15.5742 33.0453 15.5487 33.0526 15.5248C33.0598 15.501 33.0743 15.48 33.0941 15.4648C33.1933 15.4059 33.2998 15.3605 33.411 15.3298C33.5281 15.2955 33.6407 15.2478 33.7469 15.1877C33.7565 15.1753 33.7685 15.1649 33.7821 15.1572C33.7956 15.1494 33.8107 15.1445 33.8263 15.1425C33.8418 15.1406 33.8573 15.1418 33.8724 15.1459C33.8875 15.1501 33.9016 15.1571 33.9139 15.1667C33.9387 15.1864 33.9549 15.2149 33.9588 15.2463C33.9628 15.2777 33.9541 15.3095 33.9349 15.3346C33.8065 15.4436 33.6536 15.5194 33.4891 15.5556C33.4028 15.5819 33.3189 15.6155 33.2381 15.6557C33.2174 15.6713 33.1921 15.6796 33.1661 15.6796Z" fill="#009444"/>
<path id="Path 195" d="M32.447 15.0533C32.4287 15.0533 32.4106 15.0489 32.3943 15.0406C32.378 15.0322 32.3638 15.0201 32.353 15.0052C32.3331 14.9759 32.316 14.9447 32.302 14.9122C32.2856 14.8721 32.2644 14.8342 32.239 14.7991C32.2126 14.7857 32.1921 14.7631 32.1814 14.7354C32.1708 14.7078 32.1706 14.6772 32.1812 14.6495C32.1917 14.6218 32.2122 14.599 32.2385 14.5855C32.2649 14.572 32.2954 14.5687 32.324 14.5762C32.424 14.6102 32.4771 14.7221 32.5191 14.8111C32.5281 14.8301 32.5399 14.8561 32.5459 14.8641C32.5586 14.8822 32.5663 14.9035 32.5676 14.9256C32.569 14.9477 32.5643 14.9698 32.554 14.9893C32.5436 15.0089 32.5279 15.0252 32.5088 15.0364C32.4898 15.0477 32.4682 15.0536 32.4461 15.0533H32.447Z" fill="#009444"/>
</g>
<g id="Group 958">
<path id="Path 183_2" d="M35.1668 15.2686H35.1578C35.1261 15.2663 35.0968 15.2516 35.076 15.2276C35.0552 15.2036 35.0447 15.1724 35.0469 15.1407C35.0627 14.921 35.1078 14.7044 35.181 14.4967C35.216 14.3897 35.2547 14.2796 35.2937 14.1746C35.4061 13.898 35.4866 13.6094 35.5337 13.3145C35.5337 13.2895 35.5398 13.2646 35.5418 13.2386C35.5406 13.0421 35.6117 12.8521 35.7417 12.7047C35.7653 12.686 35.795 12.6768 35.825 12.679C35.855 12.6812 35.883 12.6945 35.9036 12.7164C35.9242 12.7382 35.9359 12.7669 35.9363 12.7969C35.9367 12.827 35.9258 12.8561 35.9058 12.8785C35.8225 12.9896 35.7794 13.1257 35.7837 13.2645C35.7837 13.2915 35.7779 13.3176 35.7749 13.3436C35.7256 13.6566 35.6406 13.963 35.5218 14.2567C35.4838 14.3567 35.4459 14.4685 35.4109 14.5745C35.3447 14.7629 35.3039 14.9593 35.2898 15.1585C35.2873 15.1891 35.2732 15.2176 35.2503 15.2381C35.2274 15.2586 35.1975 15.2695 35.1668 15.2686Z" fill="#39B54A"/>
<path id="Path 184_2" d="M35.2249 14.9206C35.2052 14.9208 35.1859 14.9162 35.1685 14.9072C35.1511 14.8981 35.1359 14.8848 35.1248 14.8686C35.0948 14.8246 35.0248 14.7337 34.9568 14.6457C34.8678 14.5307 34.7769 14.4125 34.7369 14.3515C34.7236 14.3251 34.7206 14.2948 34.7283 14.2663C34.736 14.2378 34.7538 14.2133 34.7786 14.1972C34.8034 14.1811 34.8334 14.1746 34.8626 14.1791C34.8918 14.1837 34.9181 14.1988 34.9368 14.2216C34.9708 14.2746 35.0638 14.3947 35.1448 14.4997C35.2258 14.6047 35.2878 14.6836 35.3218 14.7336C35.334 14.7517 35.341 14.7728 35.3421 14.7946C35.3432 14.8164 35.3384 14.8379 35.3282 14.8571C35.3179 14.8763 35.3025 14.8926 35.2837 14.9037C35.265 14.9149 35.2438 14.9207 35.222 14.9206H35.2249Z" fill="#39B54A"/>
<path id="Path 185_2" d="M35.4189 14.26C35.3974 14.2599 35.3761 14.254 35.3577 14.2429C35.3392 14.2318 35.324 14.216 35.3137 14.197C35.3037 14.177 35.2758 14.1382 35.2458 14.0972C35.1172 13.96 35.037 13.7843 35.0178 13.5972C35.0212 13.568 35.0352 13.541 35.0571 13.5215C35.0791 13.5019 35.1073 13.4913 35.1367 13.4912H35.1499C35.1814 13.4947 35.2101 13.5104 35.23 13.5352C35.2498 13.5599 35.2592 13.5915 35.2559 13.623C35.2479 13.69 35.3879 13.8862 35.4409 13.9612C35.4712 14.0016 35.4992 14.0437 35.5249 14.0872C35.5345 14.1054 35.5391 14.1257 35.5386 14.1462C35.538 14.1668 35.5323 14.1869 35.5217 14.2046C35.5112 14.2223 35.4964 14.2368 35.4785 14.2471C35.4607 14.2573 35.4405 14.263 35.4199 14.2632L35.4189 14.26Z" fill="#39B54A"/>
<path id="Path 186_2" d="M35.5929 13.7515C35.5771 13.7514 35.5614 13.7484 35.5468 13.7422C35.5322 13.736 35.519 13.7269 35.508 13.7156C35.399 13.6056 35.1488 13.3265 35.1728 13.1055C35.1765 13.0742 35.1925 13.0459 35.2169 13.0261C35.2414 13.0063 35.2725 12.9967 35.3039 12.9995C35.3194 13.0011 35.3345 13.006 35.3483 13.0134C35.3621 13.0209 35.3741 13.0308 35.3839 13.043C35.3938 13.0551 35.4012 13.0692 35.4057 13.0842C35.4101 13.0992 35.4115 13.115 35.4098 13.1306C35.4548 13.2936 35.5483 13.439 35.6779 13.5476C35.6931 13.5646 35.7032 13.5854 35.7069 13.6079C35.7107 13.6304 35.7078 13.6536 35.6989 13.6746C35.69 13.6955 35.6752 13.7136 35.6564 13.7266C35.6376 13.7395 35.6157 13.7467 35.5929 13.7476V13.7515Z" fill="#39B54A"/>
<path id="Path 187_2" d="M35.553 13.9806C35.5245 13.9797 35.4971 13.9686 35.4761 13.9494C35.455 13.9302 35.4416 13.9042 35.438 13.8759C35.4344 13.8476 35.441 13.819 35.4565 13.7951C35.4721 13.7712 35.4956 13.7536 35.5229 13.7455C35.7043 13.6364 35.869 13.5018 36.012 13.3456L36.0478 13.3114C36.0716 13.2929 36.1015 13.2841 36.1316 13.2865C36.1616 13.289 36.1895 13.3027 36.2099 13.3249C36.2304 13.347 36.2417 13.376 36.2417 13.4062C36.2417 13.4363 36.2304 13.4653 36.2099 13.4875L36.175 13.5207C36.0076 13.7082 35.8065 13.8623 35.582 13.9755C35.5726 13.9783 35.5628 13.9801 35.553 13.9806Z" fill="#39B54A"/>
<path id="Path 188_2" d="M35.3039 14.6812C35.2749 14.6799 35.2471 14.6681 35.2261 14.6479C35.205 14.6278 35.192 14.6008 35.1894 14.5718C35.1869 14.5428 35.195 14.514 35.2121 14.4905C35.2293 14.467 35.2545 14.4504 35.2829 14.4441C35.3846 14.3793 35.4786 14.3031 35.563 14.217C35.6434 14.1328 35.7349 14.06 35.8349 14.0002C35.8493 13.993 35.865 13.9886 35.8811 13.9875C35.8972 13.9865 35.9132 13.9888 35.9284 13.9941C35.9437 13.9995 35.9578 14.0077 35.9697 14.0186C35.9816 14.0294 35.9913 14.0427 35.998 14.0574C36.0047 14.072 36.0083 14.0879 36.0088 14.104C36.0092 14.1201 36.0064 14.1361 36.0005 14.1511C35.9946 14.1661 35.9859 14.1799 35.9746 14.1914C35.9633 14.2029 35.9497 14.2121 35.9348 14.2183C35.8607 14.2707 35.7911 14.329 35.7268 14.3931C35.5458 14.5601 35.4269 14.6632 35.3269 14.6802L35.3039 14.6812Z" fill="#39B54A"/>
<path id="Path 195_2" d="M35.6667 13.303C35.6442 13.3029 35.6221 13.2967 35.603 13.2846C35.5839 13.2726 35.5686 13.2554 35.5588 13.2351C35.5481 13.2181 35.5362 13.2017 35.5237 13.186C35.4493 13.111 35.4076 13.0097 35.4077 12.904C35.4143 12.8749 35.4316 12.8494 35.4561 12.8323C35.4805 12.8151 35.5102 12.8078 35.5398 12.8115C35.5694 12.8152 35.5966 12.8298 35.616 12.8525C35.6354 12.8752 35.6457 12.9042 35.6448 12.9341C35.6637 12.9727 35.6873 13.0089 35.7148 13.042C35.7378 13.0702 35.7577 13.1008 35.7747 13.133C35.783 13.1512 35.7868 13.1712 35.7854 13.1911C35.784 13.2111 35.7778 13.2304 35.7671 13.2473C35.7564 13.2642 35.7414 13.2781 35.7239 13.2878C35.7064 13.2975 35.6868 13.3028 35.6667 13.303Z" fill="#39B54A"/>
</g>
</g>
</g>
</g>
</g>
</g>
</svg>
